<svg width="100" height="112" viewBox="0 0 100 112" fill="none" xmlns="http://www.w3.org/2000/svg">
<path d="M73.75 81.2363H91.2352V87.3097H73.75V81.2363Z" fill="white"/>
<path d="M0 74.6797V99.3409H99.1858V74.6797H0ZM93.1709 88.2767C93.1709 88.7989 92.7454 89.2438 92.2038 89.2438H72.7838C72.2423 89.2438 71.8167 88.7989 71.8167 88.2767V80.269C71.8167 79.7468 72.2423 79.3019 72.7838 79.3019H92.2038C92.7454 79.3019 93.1709 79.7468 93.1709 80.269V88.2767Z" fill="#3692E7"/>
<g filter="url(#filter0_d_166_3222)">
<path d="M6.5 101.273H92.688V106.999H6.5V101.273Z" fill="#A8D6F3"/>
</g>
<path d="M87.8516 0H92.571V72.7458H87.8516V0Z" fill="#007BFF"/>
<path d="M68.6445 14.7012H85.9168V20.6778H68.6445V14.7012Z" fill="#007BFF"/>
<path d="M32.4727 11.9922H66.7077V23.5393H32.4727V11.9922Z" fill="#007BFF"/>
<path d="M62.4746 25.4746L55.6082 36.8284H43.5774L36.7109 25.4746H62.4746Z" fill="#007BFF"/>
<path d="M48.6289 38.7617H50.5631V55.8409H48.6289V38.7617Z" fill="#A3D8FF"/>
<path d="M67.7538 43.2857L63.8854 47.9858C63.692 48.2179 63.4019 48.3533 63.1311 48.3533C62.9183 48.3533 62.7056 48.276 62.5121 48.1212C62.106 47.7924 62.0479 47.1735 62.3767 46.7672L66.2451 42.0478C66.5933 41.6416 67.1929 41.5836 67.6185 41.9317C68.0246 42.2605 68.0826 42.8794 67.7538 43.2857Z" fill="white"/>
<path d="M80.2485 51.2942L76.206 54.3697C76.032 54.5051 75.8192 54.5631 75.6258 54.5631C75.3356 54.5631 75.0455 54.447 74.8521 54.1956C74.5233 53.77 74.6007 53.1511 75.0262 52.8416L79.0686 49.7662C79.4941 49.4373 80.0937 49.5147 80.4226 49.9402C80.7515 50.3657 80.674 50.9654 80.2485 51.2942Z" fill="white"/>
<path d="M31.2969 65.4141H67.8913V72.7447H31.2969V65.4141Z" fill="#007BFF"/>
<path d="M31.2969 57.7754H67.8913V63.4813H31.2969V57.7754Z" fill="#007BFF"/>
<defs>
<filter id="filter0_d_166_3222" x="4.22" y="101.273" width="90.7475" height="10.2846" filterUnits="userSpaceOnUse" color-interpolation-filters="sRGB">
<feFlood flood-opacity="0" result="BackgroundImageFix"/>
<feColorMatrix in="SourceAlpha" type="matrix" values="0 0 0 0 0 0 0 0 0 0 0 0 0 0 0 0 0 0 127 0" result="hardAlpha"/>
<feOffset dy="2.28"/>
<feGaussianBlur stdDeviation="1.14"/>
<feComposite in2="hardAlpha" operator="out"/>
<feColorMatrix type="matrix" values="0 0 0 0 0 0 0 0 0 0 0 0 0 0 0 0 0 0 0.25 0"/>
<feBlend mode="normal" in2="BackgroundImageFix" result="effect1_dropShadow_166_3222"/>
<feBlend mode="normal" in="SourceGraphic" in2="effect1_dropShadow_166_3222" result="shape"/>
</filter>
</defs>
</svg>
