<svg width="159" height="158" viewBox="0 0 159 158" fill="none" xmlns="http://www.w3.org/2000/svg">
<path d="M79.375 157.75C35.8117 157.75 0.5 122.438 0.5 78.875C0.5 35.3117 35.8117 0 79.375 0C122.938 0 158.25 35.3117 158.25 78.875C158.25 122.438 122.938 157.75 79.375 157.75ZM115.542 55.8738C117.023 54.3934 117.023 51.9847 115.542 50.5043L107.485 42.4529C106.004 40.9725 103.596 40.9725 102.115 42.4529L79.2961 65.2721L56.477 42.4529C54.9966 40.9725 52.5878 40.9725 51.1074 42.4529L43.05 50.5043C41.5696 51.9847 41.5696 54.3934 43.05 55.8738L65.8752 78.699L43.05 101.512C41.5696 102.993 41.5696 105.401 43.05 106.882L51.1074 114.939C52.5878 116.419 54.9966 116.419 56.477 114.939L79.2961 92.1139L102.115 114.939C103.596 116.419 106.004 116.419 107.485 114.939L115.542 106.882C117.023 105.401 117.023 102.993 115.542 101.512L92.717 78.699L115.542 55.8738Z" fill="#F2FCFE"/>
</svg>
