<svg width="121" height="127" viewBox="0 0 121 127" fill="none" xmlns="http://www.w3.org/2000/svg">
<g filter="url(#filter0_d_166_3223)">
<path d="M14 116H89V122H14V116Z" fill="#A8D6F3"/>
</g>
<path d="M73.2946 119.163H65.2558V106.868H71.4031C72.1786 106.868 72.8217 106.225 72.8217 105.45C72.8217 104.674 72.1786 104.031 71.4031 104.031V91.7364C72.1786 91.7364 72.8217 91.0933 72.8217 90.3178C72.8217 89.5423 72.1786 88.8992 71.4031 88.8992H2.83721V39.2481C2.83721 37.9429 3.89643 36.8837 5.20155 36.8837H22.2248H48.7054H60.0543H78.969H95.9923C97.2974 36.8837 98.3566 37.9429 98.3566 39.2481V71.4031C98.3566 72.1786 98.9997 72.8217 99.7752 72.8217C100.551 72.8217 101.194 72.1786 101.194 71.4031V39.2481C101.194 36.373 98.8673 34.0465 95.9923 34.0465H80.3876V16.5504V16.5315C80.3876 16.4936 80.3687 16.4747 80.3687 16.4558C80.3498 16.2478 80.293 16.0586 80.1985 15.8884C80.1795 15.8695 80.1985 15.8316 80.1795 15.8127L70.7222 0.68093C70.2115 -0.151318 68.8307 -0.151318 68.32 0.68093L58.8626 15.8127C58.8437 15.8316 58.8437 15.8695 58.8437 15.8884C58.7491 16.0586 58.6924 16.2478 58.6735 16.4558C58.6735 16.4936 58.6546 16.5126 58.6546 16.5315V16.5504V34.0465H50.1429V1.4186C50.1429 0.643101 49.4998 0 48.7243 0H22.2248C21.4493 0 20.8062 0.643101 20.8062 1.4186V34.0465H5.20155C2.32651 34.0465 0 36.373 0 39.2481V101.667C0 104.542 2.32651 106.868 5.20155 106.868H35.938V119.163H27.8992C27.1237 119.163 26.4806 119.806 26.4806 120.581C26.4806 121.357 27.1237 122 27.8992 122H73.2946C74.0701 122 74.7132 121.357 74.7132 120.581C74.7132 119.806 74.0701 119.163 73.2946 119.163ZM69.5116 4.1045L76.4155 15.1318H62.6267L69.5116 4.1045ZM61.4729 30.2636H77.5504V34.0465H61.4729V30.2636ZM31.6822 17.969H23.6434V15.1318H31.6822C32.4577 15.1318 33.1008 15.7749 33.1008 16.5504C33.1008 17.3259 32.4577 17.969 31.6822 17.969ZM33.1008 24.1163C33.1008 24.8918 32.4577 25.5349 31.6822 25.5349H23.6434V22.6977H31.6822C32.4577 22.6977 33.1008 23.3408 33.1008 24.1163ZM31.6822 10.4031H23.6434V7.56589H31.6822C32.4577 7.56589 33.1008 8.20899 33.1008 8.9845C33.1008 9.76 32.4577 10.4031 31.6822 10.4031ZM23.6434 30.2636H47.2868V34.0465H23.6434V30.2636ZM48.7054 97.8837C48.7054 96.8434 49.5566 95.9923 50.5969 95.9923C51.6372 95.9923 52.4884 96.8434 52.4884 97.8837C52.4884 98.924 51.6372 99.7752 50.5969 99.7752C49.5566 99.7752 48.7054 98.924 48.7054 97.8837ZM62.4186 106.868V110.651H38.7752V106.868H62.4186Z" fill="#A8D6F3"/>
<path d="M119.034 92.8335L115.459 91.9445C115.195 91.1501 114.873 90.3935 114.514 89.6558L116.405 86.4971C116.746 85.9485 116.651 85.2298 116.197 84.7569L110.996 79.5554C110.542 79.1014 109.823 79.0068 109.255 79.3473L106.097 81.2388C105.359 80.8794 104.602 80.5578 103.808 80.293L102.919 76.6992C102.768 76.075 102.2 75.6211 101.538 75.6211H94.1993C93.5562 75.6211 92.9887 76.0561 92.8185 76.6992L91.9295 80.293C91.1351 80.5578 90.3785 80.8794 89.6408 81.2388L86.4821 79.3473C85.9146 79.0068 85.2148 79.1014 84.7419 79.5554L79.5403 84.7569C79.0864 85.2109 78.9918 85.9296 79.3323 86.4971L81.2238 89.6558C80.8644 90.3935 80.5428 91.1501 80.278 91.9445L76.7031 92.8335C76.079 92.9848 75.625 93.5523 75.625 94.2143V101.553C75.625 102.196 76.06 102.764 76.7031 102.934L80.278 103.823C80.5428 104.617 80.8644 105.374 81.2238 106.112L79.3323 109.27C78.9918 109.819 79.0864 110.538 79.5403 111.011L84.7419 116.212C85.1959 116.666 85.9146 116.761 86.4821 116.42L89.6408 114.529C90.3785 114.888 91.1351 115.21 91.9295 115.474L92.8185 119.068C92.9698 119.692 93.5372 120.146 94.1993 120.146H101.538C102.181 120.146 102.749 119.711 102.919 119.068L103.808 115.474C104.602 115.21 105.359 114.888 106.097 114.529L109.255 116.42C109.804 116.761 110.523 116.666 110.996 116.212L116.197 111.011C116.651 110.557 116.746 109.838 116.405 109.27L114.514 106.112C114.873 105.374 115.195 104.617 115.459 103.823L119.034 102.934C119.658 102.783 120.112 102.215 120.112 101.553V94.2143C120.112 93.5523 119.677 93.0037 119.034 92.8335ZM106.267 97.8837C106.267 102.499 102.503 106.263 97.8876 106.263C93.2724 106.263 89.5084 102.499 89.5084 97.8837C89.5084 93.2685 93.2724 89.5045 97.8876 89.5045C102.503 89.5045 106.267 93.2685 106.267 97.8837Z" fill="#3692E7"/>
<path d="M71.4055 74.7141H78.9714C79.7469 74.7141 80.39 74.071 80.39 73.2954V65.7296C80.39 64.9541 79.7469 64.311 78.9714 64.311H71.4055C70.63 64.311 69.9869 64.9541 69.9869 65.7296V68.0939H60.9456C66.5822 64.746 70.403 58.7689 70.8759 52.0164H73.297C74.0725 52.0164 74.7156 51.3733 74.7156 50.5978V43.0319C74.7156 42.2564 74.0725 41.6133 73.297 41.6133H65.7311C64.9556 41.6133 64.3125 42.2564 64.3125 43.0319V50.5978C64.3125 51.3733 64.9556 52.0164 65.7311 52.0164H68.0387C67.4523 59.1094 62.5723 65.1999 55.8008 67.2995V65.7296C55.8008 64.9541 55.1577 64.311 54.3822 64.311H46.8163C46.0408 64.311 45.3977 64.9541 45.3977 65.7296V67.2995C38.6263 65.1999 33.7463 59.1094 33.1599 52.0164H35.4675C36.243 52.0164 36.8861 51.3733 36.8861 50.5978V43.0319C36.8861 42.2564 36.243 41.6133 35.4675 41.6133H27.9016C27.1261 41.6133 26.483 42.2564 26.483 43.0319V50.5978C26.483 51.3733 27.1261 52.0164 27.9016 52.0164H30.3227C30.7956 58.7689 34.6163 64.746 40.2529 68.0939H31.2117V65.7296C31.2117 64.9541 30.5686 64.311 29.7931 64.311H22.2272C21.4517 64.311 20.8086 64.9541 20.8086 65.7296V73.2954C20.8086 74.071 21.4517 74.7141 22.2272 74.7141H29.7931C30.5686 74.7141 31.2117 74.071 31.2117 73.2954V70.9311H45.3977V73.2954C45.3977 74.071 46.0408 74.7141 46.8163 74.7141H54.3822C55.1577 74.7141 55.8008 74.071 55.8008 73.2954V70.9311H69.9869V73.2954C69.9869 74.071 70.63 74.7141 71.4055 74.7141Z" fill="white"/>
<defs>
<filter id="filter0_d_166_3223" x="11.72" y="116" width="79.56" height="10.56" filterUnits="userSpaceOnUse" color-interpolation-filters="sRGB">
<feFlood flood-opacity="0" result="BackgroundImageFix"/>
<feColorMatrix in="SourceAlpha" type="matrix" values="0 0 0 0 0 0 0 0 0 0 0 0 0 0 0 0 0 0 127 0" result="hardAlpha"/>
<feOffset dy="2.28"/>
<feGaussianBlur stdDeviation="1.14"/>
<feComposite in2="hardAlpha" operator="out"/>
<feColorMatrix type="matrix" values="0 0 0 0 0 0 0 0 0 0 0 0 0 0 0 0 0 0 0.25 0"/>
<feBlend mode="normal" in2="BackgroundImageFix" result="effect1_dropShadow_166_3223"/>
<feBlend mode="normal" in="SourceGraphic" in2="effect1_dropShadow_166_3223" result="shape"/>
</filter>
</defs>
</svg>
