<svg width="133" height="121" viewBox="0 0 133 121" fill="none" xmlns="http://www.w3.org/2000/svg">
<path d="M102.951 84.0114C108.898 84.0114 113.721 79.1883 113.721 73.2407V71.0865H111.567C108.028 71.0865 104.913 72.8185 102.951 75.453V66.7782H102.873C104.288 65.1712 105.105 63.1226 105.105 60.9707C105.105 59.1439 104.538 57.3625 103.483 55.8718L100.527 51.6992L97.8302 56.0161C96.9535 57.4185 96.4882 59.0384 96.4882 60.6928V60.9707C96.4882 63.1226 97.3046 65.1734 98.7199 66.7782H98.6423V75.453C96.6799 72.8163 93.565 71.0865 90.0258 71.0865H87.8716V73.2407C87.8716 79.1883 92.6948 84.0114 98.6423 84.0114V94.7821H68.4843V84.0114C74.4319 84.0114 79.255 79.1883 79.255 73.2407V71.0865H77.1009C73.5616 71.0865 70.4467 72.8185 68.4843 75.453V66.7782H68.4068C69.822 65.1712 70.6385 63.1226 70.6385 60.9707C70.6385 59.1439 70.0719 57.3625 69.0164 55.8718L66.0609 51.6992L63.3639 56.0161C62.4872 57.4185 62.0219 59.0384 62.0219 60.6928V60.9707C62.0219 63.1226 62.8383 65.1734 64.2536 66.7782H64.176V75.453C62.2136 72.8163 59.0987 71.0865 55.5595 71.0865H53.4053V73.2407C53.4053 79.1883 58.2284 84.0114 64.176 84.0114V94.7821H34.018V84.0114C39.9656 84.0114 44.7887 79.1883 44.7887 73.2407V71.0865H42.6346C39.0953 71.0865 35.9804 72.8185 34.018 75.453V66.7782H33.9405C35.3557 65.1712 36.1722 63.1226 36.1722 60.9707C36.1722 59.1439 35.6056 57.3625 34.5501 55.8718L31.5946 51.6992L28.8976 56.0161C28.0209 57.4185 27.5556 59.0384 27.5556 60.6928V60.9707C27.5556 63.1226 28.372 65.1734 29.7873 66.7782H29.7097V75.453C27.7451 72.8185 24.6324 71.0865 21.0931 71.0865H18.939V73.2407C18.939 79.1883 23.7621 84.0114 29.7097 84.0114V94.7821H12.4766V99.0904H16.7849V103.399H21.0931V99.0904H25.4014V103.399H29.7097V99.0904H34.018V103.399H38.3263V99.0904H42.6346V103.399H46.9429V99.0904H51.2512V103.399H55.5595V99.0904H59.8677V103.399H64.176V99.0904H68.4843V103.399H72.7926V99.0904H77.1009V103.399H81.4092V99.0904H85.7175V103.399H90.0258V99.0904H94.3341V103.399H98.6423V99.0904H102.951V103.399H107.259V99.0904H111.567V103.399H115.875V99.0904H120.184V94.7821H102.951V84.0114Z" fill="white"/>
<path d="M105.098 15.0813H109.407V8.61884H124.486V4.31055H85.7109V8.61884H105.098V15.0813Z" fill="#89C4EF"/>
<g filter="url(#filter0_d_166_3221)">
<path d="M116 108H17V115H116V108Z" fill="#A8D6F3"/>
</g>
<path d="M81.4041 0H51.2461V38.7746H81.4063L81.4041 0ZM59.8627 34.4663H55.5544V30.158H59.8627V34.4663ZM68.4792 34.4663H64.171V30.158H68.4792V34.4663ZM77.0958 34.4663H72.7875V30.158H77.0958V34.4663ZM77.0958 21.5414C77.0958 23.9175 75.1636 25.8497 72.7875 25.8497H59.8627C57.4866 25.8497 55.5544 23.9175 55.5544 21.5414V8.61658C55.5544 6.24056 57.4866 4.30829 59.8627 4.30829H72.7875C75.1636 4.30829 77.0958 6.24056 77.0958 8.61658V21.5414Z" fill="#007BFF"/>
<path d="M59.8672 8.61523V14.9937C61.1381 14.0868 62.6073 13.4664 64.1755 13.1562V10.7694H68.4838V13.1562C70.052 13.4642 71.5211 14.0846 72.7942 14.9937L72.7921 8.61523H59.8672Z" fill="#EFF1F5"/>
<path d="M68.4797 17.584V19.387H64.1714V17.584C62.293 18.2087 60.7635 19.6433 60.0117 21.5411H72.6393C71.8875 19.6433 70.3581 18.2087 68.4797 17.584Z" fill="#EFF1F5"/>
<path d="M12.4766 38.7748H38.3263C38.3263 34.6905 35.5604 31.1491 31.5989 30.1604L31.5903 30.1582H19.2083C15.2425 31.1491 12.4766 34.6905 12.4766 38.7748Z" fill="#89C4EF"/>
<path d="M25.3903 17.2324C23.0143 17.2324 21.082 19.1647 21.082 21.5407V25.849H29.6986V21.5407C29.6986 19.1647 27.7663 17.2324 25.3903 17.2324Z" fill="#89C4EF"/>
<path d="M107.254 17.2324C104.878 17.2324 102.945 19.1647 102.945 21.5407V25.849H111.562V21.5407C111.562 19.1647 109.63 17.2324 107.254 17.2324Z" fill="#89C4EF"/>
<path d="M94.3281 38.7748H120.178C120.178 34.6905 117.412 31.1491 113.45 30.1604L113.442 30.1582H101.06C97.094 31.1491 94.3281 34.6905 94.3281 38.7748Z" fill="#89C4EF"/>
<path d="M23.2392 13.233C23.9306 13.0521 24.6437 12.9271 25.3933 12.9271C26.143 12.9271 26.8538 13.0521 27.5475 13.233V8.61884H46.9348V4.31055H8.16016V8.61884H23.2392V13.233Z" fill="#89C4EF"/>
<path d="M12.3734 43.084L0 58.9945L3.40139 61.6398L17.8342 43.084H12.3734Z" fill="#3692E7"/>
<path d="M50.7951 58.9945L38.4217 43.084H32.9609L47.3937 61.6398L50.7951 58.9945Z" fill="#3692E7"/>
<path d="M99.6896 43.084H94.2289L81.8555 58.9945L85.2569 61.6398L99.6896 43.084Z" fill="#3692E7"/>
<path d="M120.273 43.084H114.812L129.245 61.6398L132.647 58.9945L120.273 43.084Z" fill="#3692E7"/>
<defs>
<filter id="filter0_d_166_3221" x="14.3624" y="108" width="104.275" height="12.2753" filterUnits="userSpaceOnUse" color-interpolation-filters="sRGB">
<feFlood flood-opacity="0" result="BackgroundImageFix"/>
<feColorMatrix in="SourceAlpha" type="matrix" values="0 0 0 0 0 0 0 0 0 0 0 0 0 0 0 0 0 0 127 0" result="hardAlpha"/>
<feOffset dy="2.63765"/>
<feGaussianBlur stdDeviation="1.31882"/>
<feComposite in2="hardAlpha" operator="out"/>
<feColorMatrix type="matrix" values="0 0 0 0 0 0 0 0 0 0 0 0 0 0 0 0 0 0 0.25 0"/>
<feBlend mode="normal" in2="BackgroundImageFix" result="effect1_dropShadow_166_3221"/>
<feBlend mode="normal" in="SourceGraphic" in2="effect1_dropShadow_166_3221" result="shape"/>
</filter>
</defs>
</svg>
