<svg width="185" height="206" viewBox="0 0 185 206" fill="none" xmlns="http://www.w3.org/2000/svg">
<path d="M139.918 13.2015L75.8125 16.5611L77.3862 46.589L141.492 43.2293L139.918 13.2015Z" fill="#2C7BD8"/>
<path d="M119.866 21.7594L90.4102 23.3032L91.182 38.0311L120.638 36.4873L119.866 21.7594Z" fill="#03276D"/>
<path d="M91.4624 44.2316L36.6558 99.0377L12.0742 74.4561L66.8808 19.65C73.6689 12.8619 84.6743 12.8619 91.4624 19.65C98.2505 26.4381 98.2505 37.4435 91.4624 44.2316Z" fill="#A8D6F3"/>
<path d="M69.2119 95.866C49.7949 95.866 34.0547 111.606 34.0547 131.023V185.141H104.369V131.023C104.369 111.606 88.6288 95.866 69.2119 95.866Z" fill="#2C7BD8"/>
<path d="M69.2115 160.263C85.0447 160.263 97.8801 147.427 97.8801 131.594C97.8801 115.761 85.0447 102.926 69.2115 102.926C53.3783 102.926 40.543 115.761 40.543 131.594C40.543 147.427 53.3783 160.263 69.2115 160.263Z" fill="#A8D6F3"/>
<path d="M69.212 161.317C61.273 161.317 53.8093 158.225 48.1954 152.611C36.6067 141.023 36.6067 122.167 48.1954 110.578C53.8093 104.965 61.273 101.873 69.212 101.873C77.1516 101.873 84.6152 104.965 90.2287 110.578C95.8426 116.192 98.9341 123.656 98.9341 131.595C98.9341 139.534 95.8426 146.998 90.2287 152.612C84.6152 158.225 77.1516 161.317 69.212 161.317ZM69.212 103.98C61.8358 103.98 54.9008 106.852 49.6853 112.068C38.9181 122.835 38.9181 140.354 49.6853 151.121C54.9013 156.337 61.8358 159.209 69.212 159.209C76.5882 159.209 83.5232 156.337 88.7388 151.121C93.9548 145.905 96.8266 138.971 96.8266 131.595C96.8266 124.218 93.9543 117.283 88.7388 112.068C83.5228 106.852 76.5882 103.98 69.212 103.98Z" fill="#03276D"/>
<path d="M12.0747 74.4563C4.82405 81.707 4.82405 93.4621 12.0747 100.713L56.2078 144.846C63.4585 152.097 75.2135 152.097 82.4642 144.846C89.7149 137.595 89.7149 125.84 82.4642 118.589L38.3312 74.4563C31.0809 67.2061 19.3254 67.2061 12.0747 74.4563Z" fill="#2C7BD8"/>
<path d="M69.2109 138.891C73.2408 138.891 76.5077 135.624 76.5077 131.594C76.5077 127.565 73.2408 124.298 69.2109 124.298C65.181 124.298 61.9141 127.565 61.9141 131.594C61.9141 135.624 65.181 138.891 69.2109 138.891Z" fill="#EFF1F5"/>
<path d="M25.3124 94.993C29.3423 94.993 32.6092 91.7261 32.6092 87.6962C32.6092 83.6663 29.3423 80.3994 25.3124 80.3994C21.2825 80.3994 18.0156 83.6663 18.0156 87.6962C18.0156 91.7261 21.2825 94.993 25.3124 94.993Z" fill="#EFF1F5"/>
<g filter="url(#filter0_d_166_2641)">
<path d="M167.064 185.141H5V196.58H167.064V185.141Z" fill="#03276D"/>
</g>
<path d="M183.369 37.083C183.94 47.9764 175.571 57.2709 164.677 57.8418L151.112 58.5527C138.125 59.2333 127.043 49.2597 126.362 36.2675L125.85 26.5001C125.169 13.5079 135.147 2.42531 148.134 1.74469L161.7 1.03374C167.15 0.748137 172.194 2.69883 175.952 6.07838C179.706 9.46296 182.173 14.2759 182.459 19.725L153.003 21.2688L153.912 38.6267L183.369 37.083Z" fill="#A8D6F3"/>
<path d="M140.523 37.1843C144.548 36.9734 147.639 33.54 147.428 29.5156C147.217 25.4913 143.784 22.3998 139.759 22.6107C135.735 22.8216 132.644 26.255 132.855 30.2794C133.065 34.3038 136.499 37.3952 140.523 37.1843Z" fill="white"/>
<path d="M47.8202 179.999C51.8502 179.999 55.117 176.732 55.117 172.703C55.117 168.673 51.8502 165.406 47.8202 165.406C43.7903 165.406 40.5234 168.673 40.5234 172.703C40.5234 176.732 43.7903 179.999 47.8202 179.999Z" fill="#EFF1F5"/>
<path d="M90.6054 180C94.6353 180 97.9022 176.733 97.9022 172.703C97.9022 168.673 94.6353 165.406 90.6054 165.406C86.5755 165.406 83.3086 168.673 83.3086 172.703C83.3086 176.733 86.5755 180 90.6054 180Z" fill="#EFF1F5"/>
<path d="M81.2929 37.193C85.3228 37.193 88.5897 33.9261 88.5897 29.8962C88.5897 25.8663 85.3228 22.5994 81.2929 22.5994C77.263 22.5994 73.9961 25.8663 73.9961 29.8962C73.9961 33.9261 77.263 37.193 81.2929 37.193Z" fill="white"/>
<path d="M160.306 38.406L152.941 38.7919L153.975 58.517L161.339 58.131L160.306 38.406Z" fill="#0E3073"/>
<path d="M40.5267 57.5453L36.4297 61.6423L49.4653 74.6778L53.5623 70.5808L40.5267 57.5453Z" fill="#03276D"/>
<path d="M48.8118 49.2594L44.7148 53.3564L57.7504 66.392L61.8474 62.295L48.8118 49.2594Z" fill="#03276D"/>
<path d="M57.1009 40.9741L53.0039 45.0711L66.0395 58.1067L70.1365 54.0097L57.1009 40.9741Z" fill="#03276D"/>
<path d="M65.3861 32.6877L61.2891 36.7847L74.3246 49.8202L78.4216 45.7232L65.3861 32.6877Z" fill="#03276D"/>
<path d="M43.6015 87.7338L25.3516 105.984L50.3053 130.938L68.5553 112.688L43.6015 87.7338Z" fill="#03276D"/>
<defs>
<filter id="filter0_d_166_2641" x="0.462103" y="185.141" width="171.138" height="20.5152" filterUnits="userSpaceOnUse" color-interpolation-filters="sRGB">
<feFlood flood-opacity="0" result="BackgroundImageFix"/>
<feColorMatrix in="SourceAlpha" type="matrix" values="0 0 0 0 0 0 0 0 0 0 0 0 0 0 0 0 0 0 127 0" result="hardAlpha"/>
<feOffset dy="4.5379"/>
<feGaussianBlur stdDeviation="2.26895"/>
<feComposite in2="hardAlpha" operator="out"/>
<feColorMatrix type="matrix" values="0 0 0 0 0 0 0 0 0 0 0 0 0 0 0 0 0 0 0.25 0"/>
<feBlend mode="normal" in2="BackgroundImageFix" result="effect1_dropShadow_166_2641"/>
<feBlend mode="normal" in="SourceGraphic" in2="effect1_dropShadow_166_2641" result="shape"/>
</filter>
</defs>
</svg>
