<svg width="733" height="730" viewBox="0 0 733 730" fill="none" xmlns="http://www.w3.org/2000/svg">
<circle cx="365.362" cy="364.779" r="250.225" fill="#0085FF" fill-opacity="0.4"/>
<circle cx="365.359" cy="364.778" r="179.484" fill="#D9D9D9"/>
<path fill-rule="evenodd" clip-rule="evenodd" d="M271.834 667.889L268.608 718.707L340.398 730L354.11 683.215H383.149L395.249 730L466.232 718.707V667.889L505.757 650.95L529.149 691.282L579.967 667.889L561.414 617.072L582.387 597.713L623.525 625.945L670.309 571.094L636.431 533.989L649.337 509.79L698.541 521.083L722.74 455.746L679.989 434.773L683.215 403.315L732.42 399.282V326.685H683.215L679.989 293.613L722.74 269.414L698.541 208.11L649.337 220.21L636.431 192.785L670.309 157.293L625.945 102.442L582.387 129.867L561.414 111.315L577.547 65.337L521.083 30.6519L492.044 70.1768L463.005 59.6906V11.2928L393.635 0L383.149 48.3978H351.691L337.171 0L269.414 11.2928L275.061 59.6906L244.409 70.1768L214.564 30.6519L155.68 65.337L178.265 111.315L155.68 129.867L110.508 102.442L67.7569 157.293L101.635 192.785L83.8895 220.21L34.6851 208.11L12.0994 269.414L57.2707 293.613L53.2376 325.878L5.64641 328.298L0 397.668L53.2376 403.315L57.2707 434.773L12.0994 455.746L34.6851 521.083L83.8895 509.79L101.635 539.635L67.7569 571.094L101.635 625.945L155.68 597.713L178.265 625.945L155.68 667.889L214.564 701.768L244.409 650.95L271.834 667.889ZM366.885 631.912C514.296 631.912 633.797 512.411 633.797 365C633.797 217.589 514.296 98.0879 366.885 98.0879C219.473 98.0879 99.9728 217.589 99.9728 365C99.9728 512.411 219.473 631.912 366.885 631.912Z" fill="#D7E9FA"/>
</svg>
