<?xml version="1.0" encoding="UTF-8"?>
<svg version="1.1" xmlns="http://www.w3.org/2000/svg" width="32" height="32">
<path d="M0 0 C0.66 0.66 1.32 1.32 2 2 C2.66 1.34 3.32 0.68 4 0 C6.125 0.375 6.125 0.375 8 1 C7.01 2.485 7.01 2.485 6 4 C8.54884345 6.97365069 11.50222064 8.327149 15 10 C16.87264676 11.87264676 16.23607378 14.49759947 16.328125 16.9921875 C15.89773757 19.62574866 15.07492434 20.35452873 13 22 C10.87109375 22.38818359 10.87109375 22.38818359 8.4375 22.3984375 C7.55835937 22.40230469 6.67921875 22.40617187 5.7734375 22.41015625 C4.85820312 22.39855469 3.94296875 22.38695313 3 22.375 C1.62714844 22.39240234 1.62714844 22.39240234 0.2265625 22.41015625 C-0.65257812 22.40628906 -1.53171875 22.40242188 -2.4375 22.3984375 C-3.64212891 22.39336182 -3.64212891 22.39336182 -4.87109375 22.38818359 C-7.53904798 21.90171029 -8.37819873 21.14581509 -10 19 C-11.76245599 13.52711036 -12.48628046 8.73810944 -12 3 C-8.92870863 -1.53381107 -4.91989722 -1.15146531 0 0 Z M-7.75 3.25 C-9.19299384 5.08883843 -9.19299384 5.08883843 -10 8 C-9.01 9.485 -9.01 9.485 -8 11 C-7.01 11 -6.02 11 -5 11 C-4.566875 9.7934375 -4.566875 9.7934375 -4.125 8.5625 C-3 6 -3 6 -1 5 C-1 4.34 -1 3.68 -1 3 C-4.5427515 1.81636006 -4.5427515 1.81636006 -7.75 3.25 Z M-2 9 C-2.12375 9.66 -2.2475 10.32 -2.375 11 C-3 13 -3 13 -5.0625 14.25 C-6.0215625 14.62125 -6.0215625 14.62125 -7 15 C-6.67 16.32 -6.34 17.64 -6 19 C-0.06 19 5.88 19 12 19 C12.66 17.68 13.32 16.36 14 15 C11.88528583 11.72219304 10.73554115 10.84350929 7 10 C6.34 9.01 5.68 8.02 5 7 C1.54204217 6.56775527 0.52024391 6.47975609 -2 9 Z " fill="#000000" transform="translate(16,8)"/>
<path d="M0 0 C0.99 0 1.98 0 3 0 C3 0.99 3 1.98 3 3 C1.68 3.33 0.36 3.66 -1 4 C-0.67 2.68 -0.34 1.36 0 0 Z " fill="#000000" transform="translate(1,19)"/>
<path d="M0 0 C1.32 0.33 2.64 0.66 4 1 C3.67 1.99 3.34 2.98 3 4 C2.01 3.67 1.02 3.34 0 3 C0 2.01 0 1.02 0 0 Z " fill="#000000" transform="translate(0,8)"/>
<path d="M0 0 C0.99 0 1.98 0 3 0 C3 1.32 3 2.64 3 4 C2.01 4 1.02 4 0 4 C0 2.68 0 1.36 0 0 Z " fill="#000000" transform="translate(10,2)"/>
</svg>
