<svg width="570" height="100" viewBox="0 0 570 100" fill="none" xmlns="http://www.w3.org/2000/svg">
<path d="M46.424 1.99999C57.6027 1.99999 67.3733 4.00533 75.736 8.016C84.184 12.0267 90.7547 17.616 95.448 24.784C100.141 31.952 102.488 40.3573 102.488 50C102.488 59.5573 100.141 67.9627 95.448 75.216C90.7547 82.384 84.184 87.9733 75.736 91.984C67.3733 95.9947 57.6027 98 46.424 98H0.856001V1.99999H46.424ZM22.488 89.424L11.48 78.8H48.088C54.5733 78.8 60.248 77.6053 65.112 75.216C70.0613 72.8267 73.8587 69.456 76.504 65.104C79.1493 60.752 80.472 55.7173 80.472 50C80.472 44.1973 79.1493 39.1627 76.504 34.896C73.8587 30.544 70.0613 27.1733 65.112 24.784C60.248 22.3947 54.5733 21.2 48.088 21.2H11.48L22.488 10.576V89.424ZM199.529 99.92C188.35 99.92 178.537 97.8293 170.089 93.648C161.726 89.4667 155.198 83.664 150.505 76.24C145.812 68.7307 143.465 59.984 143.465 50C143.465 40.016 145.812 31.312 150.505 23.888C155.198 16.3787 161.726 10.5333 170.089 6.352C178.537 2.17066 188.35 0.0799942 199.529 0.0799942C210.708 0.0799942 220.478 2.17066 228.841 6.352C237.289 10.5333 243.86 16.3787 248.553 23.888C253.246 31.312 255.593 40.016 255.593 50C255.593 59.984 253.246 68.7307 248.553 76.24C243.86 83.664 237.289 89.4667 228.841 93.648C220.478 97.8293 210.708 99.92 199.529 99.92ZM199.529 80.592C206.526 80.592 212.542 79.3547 217.577 76.88C222.697 74.4053 226.622 70.864 229.353 66.256C232.169 61.648 233.577 56.2293 233.577 50C233.577 43.7707 232.169 38.352 229.353 33.744C226.622 29.136 222.697 25.5947 217.577 23.12C212.542 20.6453 206.526 19.408 199.529 19.408C192.617 19.408 186.601 20.6453 181.481 23.12C176.361 25.5947 172.393 29.136 169.577 33.744C166.846 38.352 165.481 43.7707 165.481 50C165.481 56.2293 166.846 61.648 169.577 66.256C172.393 70.864 176.361 74.4053 181.481 76.88C186.601 79.3547 192.617 80.592 199.529 80.592ZM436.08 1.99999V98H415.344V9.296L420.848 9.67999L379.888 98H357.488L316.528 9.936L321.904 9.424V98H301.296V1.99999H334.704L373.36 87.504H364.016L402.672 1.99999H436.08ZM565.751 41.68V58.32H497.015V41.68H565.751ZM511.607 50L505.207 90.704L495.735 79.952H569.719V98H483.319L490.743 50L483.319 1.99999H569.079V20.048H495.735L505.207 9.296L511.607 50Z" fill="url(#paint0_linear_84_1106)"/>
<path d="M46.424 1.99999C57.6027 1.99999 67.3733 4.00533 75.736 8.016C84.184 12.0267 90.7547 17.616 95.448 24.784C100.141 31.952 102.488 40.3573 102.488 50C102.488 59.5573 100.141 67.9627 95.448 75.216C90.7547 82.384 84.184 87.9733 75.736 91.984C67.3733 95.9947 57.6027 98 46.424 98H0.856001V1.99999H46.424ZM22.488 89.424L11.48 78.8H48.088C54.5733 78.8 60.248 77.6053 65.112 75.216C70.0613 72.8267 73.8587 69.456 76.504 65.104C79.1493 60.752 80.472 55.7173 80.472 50C80.472 44.1973 79.1493 39.1627 76.504 34.896C73.8587 30.544 70.0613 27.1733 65.112 24.784C60.248 22.3947 54.5733 21.2 48.088 21.2H11.48L22.488 10.576V89.424ZM199.529 99.92C188.35 99.92 178.537 97.8293 170.089 93.648C161.726 89.4667 155.198 83.664 150.505 76.24C145.812 68.7307 143.465 59.984 143.465 50C143.465 40.016 145.812 31.312 150.505 23.888C155.198 16.3787 161.726 10.5333 170.089 6.352C178.537 2.17066 188.35 0.0799942 199.529 0.0799942C210.708 0.0799942 220.478 2.17066 228.841 6.352C237.289 10.5333 243.86 16.3787 248.553 23.888C253.246 31.312 255.593 40.016 255.593 50C255.593 59.984 253.246 68.7307 248.553 76.24C243.86 83.664 237.289 89.4667 228.841 93.648C220.478 97.8293 210.708 99.92 199.529 99.92ZM199.529 80.592C206.526 80.592 212.542 79.3547 217.577 76.88C222.697 74.4053 226.622 70.864 229.353 66.256C232.169 61.648 233.577 56.2293 233.577 50C233.577 43.7707 232.169 38.352 229.353 33.744C226.622 29.136 222.697 25.5947 217.577 23.12C212.542 20.6453 206.526 19.408 199.529 19.408C192.617 19.408 186.601 20.6453 181.481 23.12C176.361 25.5947 172.393 29.136 169.577 33.744C166.846 38.352 165.481 43.7707 165.481 50C165.481 56.2293 166.846 61.648 169.577 66.256C172.393 70.864 176.361 74.4053 181.481 76.88C186.601 79.3547 192.617 80.592 199.529 80.592ZM436.08 1.99999V98H415.344V9.296L420.848 9.67999L379.888 98H357.488L316.528 9.936L321.904 9.424V98H301.296V1.99999H334.704L373.36 87.504H364.016L402.672 1.99999H436.08ZM565.751 41.68V58.32H497.015V41.68H565.751ZM511.607 50L505.207 90.704L495.735 79.952H569.719V98H483.319L490.743 50L483.319 1.99999H569.079V20.048H495.735L505.207 9.296L511.607 50Z" fill="url(#paint1_linear_84_1106)" fill-opacity="0.3"/>
<defs>
<linearGradient id="paint0_linear_84_1106" x1="268.5" y1="59.5" x2="706.834" y2="27.2992" gradientUnits="userSpaceOnUse">
<stop stop-color="white"/>
<stop offset="1" stop-color="#666666"/>
</linearGradient>
<linearGradient id="paint1_linear_84_1106" x1="40.5" y1="6.50001" x2="559.881" y2="-60.7253" gradientUnits="userSpaceOnUse">
<stop stop-opacity="0"/>
<stop offset="0.978207"/>
</linearGradient>
</defs>
</svg>
