<svg width="465" height="498" viewBox="0 0 465 498" fill="none" xmlns="http://www.w3.org/2000/svg">
<path d="M203.245 281.219H0V511.018H203.245V281.219Z" fill="url(#paint0_linear_310_2652)"/>
<path d="M188.59 296.531H14.6562V312.377H188.59V296.531Z" fill="url(#paint1_linear_310_2652)"/>
<path d="M188.59 323.07H14.6562V330.798H188.59V323.07Z" fill="url(#paint2_linear_310_2652)"/>
<path d="M188.59 341.5H14.6562V357.346H188.59V341.5Z" fill="url(#paint3_linear_310_2652)"/>
<path d="M188.59 368.055H14.6562V375.783H188.59V368.055Z" fill="url(#paint4_linear_310_2652)"/>
<path d="M188.59 386.477H14.6562V402.322H188.59V386.477Z" fill="url(#paint5_linear_310_2652)"/>
<path d="M188.59 413.031H14.6562V420.759H188.59V413.031Z" fill="url(#paint6_linear_310_2652)"/>
<path d="M188.59 431.453H14.6562V447.299H188.59V431.453Z" fill="url(#paint7_linear_310_2652)"/>
<path d="M188.59 476.438H14.6562V492.283H188.59V476.438Z" fill="url(#paint8_linear_310_2652)"/>
<path d="M188.59 458.016H14.6562V465.744H188.59V458.016Z" fill="url(#paint9_linear_310_2652)"/>
<path d="M327.36 74.3359H130.875V511.017H327.36V74.3359Z" fill="url(#paint10_linear_310_2652)"/>
<path d="M171.761 90.3125H147.742V132.601H171.761V90.3125Z" fill="url(#paint11_linear_310_2652)"/>
<path d="M216.616 90.3125H192.598V132.601H216.616V90.3125Z" fill="url(#paint12_linear_310_2652)"/>
<path d="M261.487 90.3125H237.469V132.601H261.487V90.3125Z" fill="url(#paint13_linear_310_2652)"/>
<path d="M306.35 90.3125H282.332V132.601H306.35V90.3125Z" fill="url(#paint14_linear_310_2652)"/>
<path d="M171.761 147.18H147.742V189.468H171.761V147.18Z" fill="url(#paint15_linear_310_2652)"/>
<path d="M216.616 147.18H192.598V189.468H216.616V147.18Z" fill="url(#paint16_linear_310_2652)"/>
<path d="M261.487 147.18H237.469V189.468H261.487V147.18Z" fill="url(#paint17_linear_310_2652)"/>
<path d="M306.35 147.18H282.332V189.468H306.35V147.18Z" fill="url(#paint18_linear_310_2652)"/>
<path d="M171.761 204.055H147.742V246.343H171.761V204.055Z" fill="url(#paint19_linear_310_2652)"/>
<path d="M216.616 204.055H192.598V246.343H216.616V204.055Z" fill="url(#paint20_linear_310_2652)"/>
<path d="M261.487 204.055H237.469V246.343H261.487V204.055Z" fill="url(#paint21_linear_310_2652)"/>
<path d="M306.35 204.055H282.332V246.343H306.35V204.055Z" fill="url(#paint22_linear_310_2652)"/>
<path d="M171.761 260.922H147.742V303.21H171.761V260.922Z" fill="url(#paint23_linear_310_2652)"/>
<path d="M216.616 260.922H192.598V303.21H216.616V260.922Z" fill="url(#paint24_linear_310_2652)"/>
<path d="M261.487 260.922H237.469V303.21H261.487V260.922Z" fill="url(#paint25_linear_310_2652)"/>
<path d="M306.35 260.922H282.332V303.21H306.35V260.922Z" fill="url(#paint26_linear_310_2652)"/>
<path d="M171.761 317.805H147.742V360.093H171.761V317.805Z" fill="url(#paint27_linear_310_2652)"/>
<path d="M216.616 317.805H192.598V360.093H216.616V317.805Z" fill="url(#paint28_linear_310_2652)"/>
<path d="M261.487 317.805H237.469V360.093H261.487V317.805Z" fill="url(#paint29_linear_310_2652)"/>
<path d="M306.35 317.805H282.332V360.093H306.35V317.805Z" fill="url(#paint30_linear_310_2652)"/>
<path d="M171.761 374.672H147.742V416.96H171.761V374.672Z" fill="url(#paint31_linear_310_2652)"/>
<path d="M216.616 374.672H192.598V416.96H216.616V374.672Z" fill="url(#paint32_linear_310_2652)"/>
<path d="M261.487 374.672H237.469V416.96H261.487V374.672Z" fill="url(#paint33_linear_310_2652)"/>
<path d="M306.35 374.672H282.332V416.96H306.35V374.672Z" fill="url(#paint34_linear_310_2652)"/>
<path d="M171.761 431.523H147.742V473.812H171.761V431.523Z" fill="url(#paint35_linear_310_2652)"/>
<path d="M216.616 431.523H192.598V473.812H216.616V431.523Z" fill="url(#paint36_linear_310_2652)"/>
<path d="M261.487 431.523H237.469V473.812H261.487V431.523Z" fill="url(#paint37_linear_310_2652)"/>
<path d="M306.35 431.523H282.332V473.812H306.35V431.523Z" fill="url(#paint38_linear_310_2652)"/>
<mask id="mask0_310_2652" style="mask-type:luminance" maskUnits="userSpaceOnUse" x="307" y="0" width="210" height="493">
<path d="M516.418 0H307.168V492.29H516.418V0Z" fill="white"/>
</mask>
<g mask="url(#mask0_310_2652)">
<path d="M566.06 14.5078H362.848V424.157H566.06V14.5078Z" fill="url(#paint39_linear_310_2652)"/>
<path d="M551.404 33.4141H377.504V52.9847H551.404V33.4141Z" fill="url(#paint40_linear_310_2652)"/>
<path d="M551.404 66.1875H377.504V75.7282H551.404V66.1875Z" fill="url(#paint41_linear_310_2652)"/>
<path d="M551.404 88.9375H377.504V108.508H551.404V88.9375Z" fill="url(#paint42_linear_310_2652)"/>
<path d="M551.404 121.727H377.504V131.267H551.404V121.727Z" fill="url(#paint43_linear_310_2652)"/>
<path d="M551.404 144.461H377.504V164.032H551.404V144.461Z" fill="url(#paint44_linear_310_2652)"/>
<path d="M551.404 177.242H377.504V186.783H551.404V177.242Z" fill="url(#paint45_linear_310_2652)"/>
<path d="M551.404 200H377.504V219.571H551.404V200Z" fill="url(#paint46_linear_310_2652)"/>
<path d="M551.404 255.523H377.504V275.094H551.404V255.523Z" fill="url(#paint47_linear_310_2652)"/>
<path d="M551.404 232.773H377.504V242.314H551.404V232.773Z" fill="url(#paint48_linear_310_2652)"/>
<path d="M551.404 311.055H377.504V330.625H551.404V311.055Z" fill="url(#paint49_linear_310_2652)"/>
<path d="M551.404 288.305H377.504V297.845H551.404V288.305Z" fill="url(#paint50_linear_310_2652)"/>
</g>
<defs>
<linearGradient id="paint0_linear_310_2652" x1="4.25882" y1="159.759" x2="198.553" y2="631.444" gradientUnits="userSpaceOnUse">
<stop stop-color="#F0FDFF"/>
<stop offset="1" stop-color="#8AD6FF"/>
</linearGradient>
<linearGradient id="paint1_linear_310_2652" x1="53.475" y1="107.608" x2="117.914" y2="371.078" gradientUnits="userSpaceOnUse">
<stop stop-color="#F0FDFF"/>
<stop offset="1" stop-color="#8AD6FF"/>
</linearGradient>
<linearGradient id="paint2_linear_310_2652" x1="46.8366" y1="102.979" x2="112.376" y2="370.896" gradientUnits="userSpaceOnUse">
<stop stop-color="#F0FDFF"/>
<stop offset="1" stop-color="#8AD6FF"/>
</linearGradient>
<linearGradient id="paint3_linear_310_2652" x1="42.0217" y1="105.796" x2="106.471" y2="369.255" gradientUnits="userSpaceOnUse">
<stop stop-color="#F0FDFF"/>
<stop offset="1" stop-color="#8AD6FF"/>
</linearGradient>
<linearGradient id="paint4_linear_310_2652" x1="35.2054" y1="100.381" x2="100.734" y2="368.288" gradientUnits="userSpaceOnUse">
<stop stop-color="#F0FDFF"/>
<stop offset="1" stop-color="#8AD6FF"/>
</linearGradient>
<linearGradient id="paint5_linear_310_2652" x1="30.5796" y1="103.981" x2="95.0182" y2="367.44" gradientUnits="userSpaceOnUse">
<stop stop-color="#F0FDFF"/>
<stop offset="1" stop-color="#8AD6FF"/>
</linearGradient>
<linearGradient id="paint6_linear_310_2652" x1="23.5631" y1="97.7768" x2="89.0916" y2="365.684" gradientUnits="userSpaceOnUse">
<stop stop-color="#F0FDFF"/>
<stop offset="1" stop-color="#8AD6FF"/>
</linearGradient>
<linearGradient id="paint7_linear_310_2652" x1="19.1375" y1="102.155" x2="83.576" y2="365.625" gradientUnits="userSpaceOnUse">
<stop stop-color="#F0FDFF"/>
<stop offset="1" stop-color="#8AD6FF"/>
</linearGradient>
<linearGradient id="paint8_linear_310_2652" x1="7.68422" y1="100.348" x2="72.1339" y2="363.806" gradientUnits="userSpaceOnUse">
<stop stop-color="#F0FDFF"/>
<stop offset="1" stop-color="#8AD6FF"/>
</linearGradient>
<linearGradient id="paint9_linear_310_2652" x1="11.9208" y1="95.1689" x2="77.4493" y2="363.087" gradientUnits="userSpaceOnUse">
<stop stop-color="#F0FDFF"/>
<stop offset="1" stop-color="#8AD6FF"/>
</linearGradient>
<linearGradient id="paint10_linear_310_2652" x1="54.4384" y1="-4.44694" x2="424.423" y2="624.882" gradientUnits="userSpaceOnUse">
<stop stop-color="#F0FDFF"/>
<stop offset="1" stop-color="#8AD6FF"/>
</linearGradient>
<linearGradient id="paint11_linear_310_2652" x1="-52.5562" y1="-323.328" x2="316.095" y2="431.653" gradientUnits="userSpaceOnUse">
<stop stop-color="#F0FDFF"/>
<stop offset="1" stop-color="#8AD6FF"/>
</linearGradient>
<linearGradient id="paint12_linear_310_2652" x1="-16.2629" y1="-340.886" x2="352.388" y2="414.095" gradientUnits="userSpaceOnUse">
<stop stop-color="#F0FDFF"/>
<stop offset="1" stop-color="#8AD6FF"/>
</linearGradient>
<linearGradient id="paint13_linear_310_2652" x1="20.0349" y1="-358.444" x2="388.686" y2="396.537" gradientUnits="userSpaceOnUse">
<stop stop-color="#F0FDFF"/>
<stop offset="1" stop-color="#8AD6FF"/>
</linearGradient>
<linearGradient id="paint14_linear_310_2652" x1="56.3249" y1="-375.991" x2="424.976" y2="378.99" gradientUnits="userSpaceOnUse">
<stop stop-color="#F0FDFF"/>
<stop offset="1" stop-color="#8AD6FF"/>
</linearGradient>
<linearGradient id="paint15_linear_310_2652" x1="-75.0291" y1="-312.486" x2="293.622" y2="442.496" gradientUnits="userSpaceOnUse">
<stop stop-color="#F0FDFF"/>
<stop offset="1" stop-color="#8AD6FF"/>
</linearGradient>
<linearGradient id="paint16_linear_310_2652" x1="-38.7358" y1="-330.032" x2="329.915" y2="424.949" gradientUnits="userSpaceOnUse">
<stop stop-color="#F0FDFF"/>
<stop offset="1" stop-color="#8AD6FF"/>
</linearGradient>
<linearGradient id="paint17_linear_310_2652" x1="-2.43795" y1="-347.59" x2="366.213" y2="407.391" gradientUnits="userSpaceOnUse">
<stop stop-color="#F0FDFF"/>
<stop offset="1" stop-color="#8AD6FF"/>
</linearGradient>
<linearGradient id="paint18_linear_310_2652" x1="33.8521" y1="-365.148" x2="402.503" y2="389.833" gradientUnits="userSpaceOnUse">
<stop stop-color="#F0FDFF"/>
<stop offset="1" stop-color="#8AD6FF"/>
</linearGradient>
<linearGradient id="paint19_linear_310_2652" x1="-97.5019" y1="-301.635" x2="271.149" y2="453.346" gradientUnits="userSpaceOnUse">
<stop stop-color="#F0FDFF"/>
<stop offset="1" stop-color="#8AD6FF"/>
</linearGradient>
<linearGradient id="paint20_linear_310_2652" x1="-61.2086" y1="-319.182" x2="307.442" y2="435.799" gradientUnits="userSpaceOnUse">
<stop stop-color="#F0FDFF"/>
<stop offset="1" stop-color="#8AD6FF"/>
</linearGradient>
<linearGradient id="paint21_linear_310_2652" x1="-24.9107" y1="-336.74" x2="343.74" y2="418.242" gradientUnits="userSpaceOnUse">
<stop stop-color="#F0FDFF"/>
<stop offset="1" stop-color="#8AD6FF"/>
</linearGradient>
<linearGradient id="paint22_linear_310_2652" x1="11.3792" y1="-354.286" x2="380.03" y2="400.695" gradientUnits="userSpaceOnUse">
<stop stop-color="#F0FDFF"/>
<stop offset="1" stop-color="#8AD6FF"/>
</linearGradient>
<linearGradient id="paint23_linear_310_2652" x1="-119.964" y1="-290.781" x2="248.687" y2="464.2" gradientUnits="userSpaceOnUse">
<stop stop-color="#F0FDFF"/>
<stop offset="1" stop-color="#8AD6FF"/>
</linearGradient>
<linearGradient id="paint24_linear_310_2652" x1="-83.6703" y1="-308.339" x2="284.969" y2="446.642" gradientUnits="userSpaceOnUse">
<stop stop-color="#F0FDFF"/>
<stop offset="1" stop-color="#8AD6FF"/>
</linearGradient>
<linearGradient id="paint25_linear_310_2652" x1="-47.3725" y1="-325.885" x2="321.267" y2="429.096" gradientUnits="userSpaceOnUse">
<stop stop-color="#F0FDFF"/>
<stop offset="1" stop-color="#8AD6FF"/>
</linearGradient>
<linearGradient id="paint26_linear_310_2652" x1="-11.0935" y1="-343.443" x2="357.557" y2="411.538" gradientUnits="userSpaceOnUse">
<stop stop-color="#F0FDFF"/>
<stop offset="1" stop-color="#8AD6FF"/>
</linearGradient>
<linearGradient id="paint27_linear_310_2652" x1="-142.436" y1="-279.922" x2="226.214" y2="475.059" gradientUnits="userSpaceOnUse">
<stop stop-color="#F0FDFF"/>
<stop offset="1" stop-color="#8AD6FF"/>
</linearGradient>
<linearGradient id="paint28_linear_310_2652" x1="-106.143" y1="-297.469" x2="262.508" y2="457.512" gradientUnits="userSpaceOnUse">
<stop stop-color="#F0FDFF"/>
<stop offset="1" stop-color="#8AD6FF"/>
</linearGradient>
<linearGradient id="paint29_linear_310_2652" x1="-69.8453" y1="-315.027" x2="298.805" y2="439.954" gradientUnits="userSpaceOnUse">
<stop stop-color="#F0FDFF"/>
<stop offset="1" stop-color="#8AD6FF"/>
</linearGradient>
<linearGradient id="paint30_linear_310_2652" x1="-33.5553" y1="-332.585" x2="335.084" y2="422.396" gradientUnits="userSpaceOnUse">
<stop stop-color="#F0FDFF"/>
<stop offset="1" stop-color="#8AD6FF"/>
</linearGradient>
<linearGradient id="paint31_linear_310_2652" x1="-164.909" y1="-269.068" x2="203.741" y2="485.913" gradientUnits="userSpaceOnUse">
<stop stop-color="#F0FDFF"/>
<stop offset="1" stop-color="#8AD6FF"/>
</linearGradient>
<linearGradient id="paint32_linear_310_2652" x1="-128.616" y1="-286.626" x2="240.035" y2="468.355" gradientUnits="userSpaceOnUse">
<stop stop-color="#F0FDFF"/>
<stop offset="1" stop-color="#8AD6FF"/>
</linearGradient>
<linearGradient id="paint33_linear_310_2652" x1="-92.3182" y1="-304.184" x2="276.333" y2="450.797" gradientUnits="userSpaceOnUse">
<stop stop-color="#F0FDFF"/>
<stop offset="1" stop-color="#8AD6FF"/>
</linearGradient>
<linearGradient id="paint34_linear_310_2652" x1="-56.0281" y1="-321.731" x2="312.623" y2="433.25" gradientUnits="userSpaceOnUse">
<stop stop-color="#F0FDFF"/>
<stop offset="1" stop-color="#8AD6FF"/>
</linearGradient>
<linearGradient id="paint35_linear_310_2652" x1="-187.371" y1="-258.23" x2="181.269" y2="496.751" gradientUnits="userSpaceOnUse">
<stop stop-color="#F0FDFF"/>
<stop offset="1" stop-color="#8AD6FF"/>
</linearGradient>
<linearGradient id="paint36_linear_310_2652" x1="-151.089" y1="-275.788" x2="217.562" y2="479.193" gradientUnits="userSpaceOnUse">
<stop stop-color="#F0FDFF"/>
<stop offset="1" stop-color="#8AD6FF"/>
</linearGradient>
<linearGradient id="paint37_linear_310_2652" x1="-114.791" y1="-293.335" x2="253.86" y2="461.646" gradientUnits="userSpaceOnUse">
<stop stop-color="#F0FDFF"/>
<stop offset="1" stop-color="#8AD6FF"/>
</linearGradient>
<linearGradient id="paint38_linear_310_2652" x1="-78.501" y1="-310.893" x2="290.15" y2="444.088" gradientUnits="userSpaceOnUse">
<stop stop-color="#F0FDFF"/>
<stop offset="1" stop-color="#8AD6FF"/>
</linearGradient>
<linearGradient id="paint39_linear_310_2652" x1="311.252" y1="-152.588" x2="616.988" y2="589.64" gradientUnits="userSpaceOnUse">
<stop stop-color="#F0FDFF"/>
<stop offset="1" stop-color="#8AD6FF"/>
</linearGradient>
<linearGradient id="paint40_linear_310_2652" x1="413.243" y1="-166.151" x2="481.784" y2="114.054" gradientUnits="userSpaceOnUse">
<stop stop-color="#F0FDFF"/>
<stop offset="1" stop-color="#8AD6FF"/>
</linearGradient>
<linearGradient id="paint41_linear_310_2652" x1="407.705" y1="-161.043" x2="475.591" y2="116.493" gradientUnits="userSpaceOnUse">
<stop stop-color="#F0FDFF"/>
<stop offset="1" stop-color="#8AD6FF"/>
</linearGradient>
<linearGradient id="paint42_linear_310_2652" x1="401.078" y1="-160.399" x2="469.619" y2="119.806" gradientUnits="userSpaceOnUse">
<stop stop-color="#F0FDFF"/>
<stop offset="1" stop-color="#8AD6FF"/>
</linearGradient>
<linearGradient id="paint43_linear_310_2652" x1="395.651" y1="-154.798" x2="463.537" y2="122.727" gradientUnits="userSpaceOnUse">
<stop stop-color="#F0FDFF"/>
<stop offset="1" stop-color="#8AD6FF"/>
</linearGradient>
<linearGradient id="paint44_linear_310_2652" x1="388.902" y1="-154.636" x2="457.443" y2="125.569" gradientUnits="userSpaceOnUse">
<stop stop-color="#F0FDFF"/>
<stop offset="1" stop-color="#8AD6FF"/>
</linearGradient>
<linearGradient id="paint45_linear_310_2652" x1="383.597" y1="-148.565" x2="451.483" y2="128.96" gradientUnits="userSpaceOnUse">
<stop stop-color="#F0FDFF"/>
<stop offset="1" stop-color="#8AD6FF"/>
</linearGradient>
<linearGradient id="paint46_linear_310_2652" x1="376.726" y1="-148.869" x2="445.267" y2="131.336" gradientUnits="userSpaceOnUse">
<stop stop-color="#F0FDFF"/>
<stop offset="1" stop-color="#8AD6FF"/>
</linearGradient>
<linearGradient id="paint47_linear_310_2652" x1="364.549" y1="-143.117" x2="433.091" y2="137.088" gradientUnits="userSpaceOnUse">
<stop stop-color="#F0FDFF"/>
<stop offset="1" stop-color="#8AD6FF"/>
</linearGradient>
<linearGradient id="paint48_linear_310_2652" x1="371.533" y1="-142.327" x2="439.418" y2="135.198" gradientUnits="userSpaceOnUse">
<stop stop-color="#F0FDFF"/>
<stop offset="1" stop-color="#8AD6FF"/>
</linearGradient>
<linearGradient id="paint49_linear_310_2652" x1="364.549" y1="-87.5858" x2="433.091" y2="192.619" gradientUnits="userSpaceOnUse">
<stop stop-color="#F0FDFF"/>
<stop offset="1" stop-color="#8AD6FF"/>
</linearGradient>
<linearGradient id="paint50_linear_310_2652" x1="371.533" y1="-86.7947" x2="439.418" y2="190.73" gradientUnits="userSpaceOnUse">
<stop stop-color="#F0FDFF"/>
<stop offset="1" stop-color="#8AD6FF"/>
</linearGradient>
</defs>
</svg>
