<svg width="341" height="435" viewBox="0 0 341 435" fill="none" xmlns="http://www.w3.org/2000/svg">
<path d="M212.755 240H-32V486.701H212.755V240Z" fill="url(#paint0_linear_310_2653)"/>
<path d="M195.11 256.438H-14.3516V273.451H195.11V256.438Z" fill="url(#paint1_linear_310_2653)"/>
<path d="M195.11 284.945H-14.3516V293.241H195.11V284.945Z" fill="url(#paint2_linear_310_2653)"/>
<path d="M195.11 304.727H-14.3516V321.74H195.11V304.727Z" fill="url(#paint3_linear_310_2653)"/>
<path d="M195.11 333.234H-14.3516V341.53H195.11V333.234Z" fill="url(#paint4_linear_310_2653)"/>
<path d="M195.11 353.016H-14.3516V370.029H195.11V353.016Z" fill="url(#paint5_linear_310_2653)"/>
<path d="M195.11 381.508H-14.3516V389.803H195.11V381.508Z" fill="url(#paint6_linear_310_2653)"/>
<path d="M195.11 401.289H-14.3516V418.302H195.11V401.289Z" fill="url(#paint7_linear_310_2653)"/>
<path d="M195.11 429.789H-14.3516V438.084H195.11V429.789Z" fill="url(#paint8_linear_310_2653)"/>
<path d="M340.978 163.205L202.383 0.757812V479.882H340.978V163.205Z" fill="url(#paint9_linear_310_2653)"/>
<path d="M309.351 441.531H325.719V371.744H309.351V441.531Z" fill="url(#paint10_linear_310_2653)"/>
<path d="M278.772 441.531H295.141V371.744H278.772V441.531Z" fill="url(#paint11_linear_310_2653)"/>
<path d="M248.206 441.531H264.574V371.744H248.206V441.531Z" fill="url(#paint12_linear_310_2653)"/>
<path d="M217.636 441.531H234.004V371.744H217.636V441.531Z" fill="url(#paint13_linear_310_2653)"/>
<path d="M309.351 359.828H325.719V290.041H309.351V359.828Z" fill="url(#paint14_linear_310_2653)"/>
<path d="M278.772 359.828H295.141V290.041H278.772V359.828Z" fill="url(#paint15_linear_310_2653)"/>
<path d="M248.206 359.828H264.574V290.041H248.206V359.828Z" fill="url(#paint16_linear_310_2653)"/>
<path d="M217.636 359.828H234.004V290.041H217.636V359.828Z" fill="url(#paint17_linear_310_2653)"/>
<path d="M309.351 278.156H325.719V208.369H309.351V278.156Z" fill="url(#paint18_linear_310_2653)"/>
<path d="M278.772 278.156H295.141V208.369H278.772V278.156Z" fill="url(#paint19_linear_310_2653)"/>
<path d="M248.206 278.156H264.574V208.369H248.206V278.156Z" fill="url(#paint20_linear_310_2653)"/>
<path d="M217.636 278.156H234.004V208.369H217.636V278.156Z" fill="url(#paint21_linear_310_2653)"/>
<path d="M278.772 187.164H295.141V135.969H278.772V187.164Z" fill="url(#paint22_linear_310_2653)"/>
<path d="M248.206 187.164H264.574V135.969H248.206V187.164Z" fill="url(#paint23_linear_310_2653)"/>
<path d="M217.636 187.164H234.004V135.969H217.636V187.164Z" fill="url(#paint24_linear_310_2653)"/>
<path d="M217.64 123.859H234.008V72.6644H217.64V123.859Z" fill="url(#paint25_linear_310_2653)"/>
<defs>
<linearGradient id="paint0_linear_310_2653" x1="-17.5333" y1="101.371" x2="197.821" y2="624.196" gradientUnits="userSpaceOnUse">
<stop stop-color="#F0FDFF"/>
<stop offset="1" stop-color="#8AD6FF"/>
</linearGradient>
<linearGradient id="paint1_linear_310_2653" x1="90.3846" y1="221.633" x2="90.3846" y2="484.758" gradientUnits="userSpaceOnUse">
<stop stop-color="#F0FDFF"/>
<stop offset="1" stop-color="#8AD6FF"/>
</linearGradient>
<linearGradient id="paint2_linear_310_2653" x1="90.3846" y1="267.977" x2="90.3846" y2="396.22" gradientUnits="userSpaceOnUse">
<stop stop-color="#F0FDFF"/>
<stop offset="1" stop-color="#8AD6FF"/>
</linearGradient>
<linearGradient id="paint3_linear_310_2653" x1="90.3846" y1="269.911" x2="90.3846" y2="533.047" gradientUnits="userSpaceOnUse">
<stop stop-color="#F0FDFF"/>
<stop offset="1" stop-color="#8AD6FF"/>
</linearGradient>
<linearGradient id="paint4_linear_310_2653" x1="90.3846" y1="316.266" x2="90.3846" y2="444.52" gradientUnits="userSpaceOnUse">
<stop stop-color="#F0FDFF"/>
<stop offset="1" stop-color="#8AD6FF"/>
</linearGradient>
<linearGradient id="paint5_linear_310_2653" x1="90.3846" y1="318.2" x2="90.3846" y2="581.336" gradientUnits="userSpaceOnUse">
<stop stop-color="#F0FDFF"/>
<stop offset="1" stop-color="#8AD6FF"/>
</linearGradient>
<linearGradient id="paint6_linear_310_2653" x1="90.3846" y1="364.539" x2="90.3846" y2="492.794" gradientUnits="userSpaceOnUse">
<stop stop-color="#F0FDFF"/>
<stop offset="1" stop-color="#8AD6FF"/>
</linearGradient>
<linearGradient id="paint7_linear_310_2653" x1="90.3846" y1="366.485" x2="90.3846" y2="629.609" gradientUnits="userSpaceOnUse">
<stop stop-color="#F0FDFF"/>
<stop offset="1" stop-color="#8AD6FF"/>
</linearGradient>
<linearGradient id="paint8_linear_310_2653" x1="90.3846" y1="412.832" x2="90.3846" y2="541.075" gradientUnits="userSpaceOnUse">
<stop stop-color="#F0FDFF"/>
<stop offset="1" stop-color="#8AD6FF"/>
</linearGradient>
<linearGradient id="paint9_linear_310_2653" x1="129.398" y1="-326.072" x2="564.542" y2="457.362" gradientUnits="userSpaceOnUse">
<stop stop-color="#F0FDFF"/>
<stop offset="1" stop-color="#8AD6FF"/>
</linearGradient>
<linearGradient id="paint10_linear_310_2653" x1="317.535" y1="289.837" x2="317.535" y2="1113.48" gradientUnits="userSpaceOnUse">
<stop stop-color="#F0FDFF"/>
<stop offset="1" stop-color="#8AD6FF"/>
</linearGradient>
<linearGradient id="paint11_linear_310_2653" x1="286.968" y1="289.837" x2="286.968" y2="1113.48" gradientUnits="userSpaceOnUse">
<stop stop-color="#F0FDFF"/>
<stop offset="1" stop-color="#8AD6FF"/>
</linearGradient>
<linearGradient id="paint12_linear_310_2653" x1="256.379" y1="289.837" x2="256.379" y2="1113.48" gradientUnits="userSpaceOnUse">
<stop stop-color="#F0FDFF"/>
<stop offset="1" stop-color="#8AD6FF"/>
</linearGradient>
<linearGradient id="paint13_linear_310_2653" x1="225.82" y1="289.837" x2="225.82" y2="1113.48" gradientUnits="userSpaceOnUse">
<stop stop-color="#F0FDFF"/>
<stop offset="1" stop-color="#8AD6FF"/>
</linearGradient>
<linearGradient id="paint14_linear_310_2653" x1="317.535" y1="208.145" x2="317.535" y2="1031.79" gradientUnits="userSpaceOnUse">
<stop stop-color="#F0FDFF"/>
<stop offset="1" stop-color="#8AD6FF"/>
</linearGradient>
<linearGradient id="paint15_linear_310_2653" x1="286.968" y1="208.145" x2="286.968" y2="1031.79" gradientUnits="userSpaceOnUse">
<stop stop-color="#F0FDFF"/>
<stop offset="1" stop-color="#8AD6FF"/>
</linearGradient>
<linearGradient id="paint16_linear_310_2653" x1="256.379" y1="208.145" x2="256.379" y2="1031.79" gradientUnits="userSpaceOnUse">
<stop stop-color="#F0FDFF"/>
<stop offset="1" stop-color="#8AD6FF"/>
</linearGradient>
<linearGradient id="paint17_linear_310_2653" x1="225.82" y1="208.145" x2="225.82" y2="1031.79" gradientUnits="userSpaceOnUse">
<stop stop-color="#F0FDFF"/>
<stop offset="1" stop-color="#8AD6FF"/>
</linearGradient>
<linearGradient id="paint18_linear_310_2653" x1="317.535" y1="126.462" x2="317.535" y2="950.107" gradientUnits="userSpaceOnUse">
<stop stop-color="#F0FDFF"/>
<stop offset="1" stop-color="#8AD6FF"/>
</linearGradient>
<linearGradient id="paint19_linear_310_2653" x1="286.968" y1="126.462" x2="286.968" y2="950.107" gradientUnits="userSpaceOnUse">
<stop stop-color="#F0FDFF"/>
<stop offset="1" stop-color="#8AD6FF"/>
</linearGradient>
<linearGradient id="paint20_linear_310_2653" x1="256.379" y1="126.462" x2="256.379" y2="950.107" gradientUnits="userSpaceOnUse">
<stop stop-color="#F0FDFF"/>
<stop offset="1" stop-color="#8AD6FF"/>
</linearGradient>
<linearGradient id="paint21_linear_310_2653" x1="225.82" y1="126.462" x2="225.82" y2="950.107" gradientUnits="userSpaceOnUse">
<stop stop-color="#F0FDFF"/>
<stop offset="1" stop-color="#8AD6FF"/>
</linearGradient>
<linearGradient id="paint22_linear_310_2653" x1="286.968" y1="75.8895" x2="286.968" y2="680.077" gradientUnits="userSpaceOnUse">
<stop stop-color="#F0FDFF"/>
<stop offset="1" stop-color="#8AD6FF"/>
</linearGradient>
<linearGradient id="paint23_linear_310_2653" x1="256.379" y1="75.8895" x2="256.379" y2="680.077" gradientUnits="userSpaceOnUse">
<stop stop-color="#F0FDFF"/>
<stop offset="1" stop-color="#8AD6FF"/>
</linearGradient>
<linearGradient id="paint24_linear_310_2653" x1="225.82" y1="75.8895" x2="225.82" y2="680.077" gradientUnits="userSpaceOnUse">
<stop stop-color="#F0FDFF"/>
<stop offset="1" stop-color="#8AD6FF"/>
</linearGradient>
<linearGradient id="paint25_linear_310_2653" x1="225.824" y1="12.5959" x2="225.824" y2="616.783" gradientUnits="userSpaceOnUse">
<stop stop-color="#F0FDFF"/>
<stop offset="1" stop-color="#8AD6FF"/>
</linearGradient>
</defs>
</svg>
