<svg width="287" height="643" viewBox="0 0 287 643" fill="none" xmlns="http://www.w3.org/2000/svg">
<g opacity="0.43">
<path d="M284.504 73.1659H-356V2H213.327L284.504 73.1659Z" stroke="#2C7BD8" stroke-width="3.3359" stroke-linecap="round" stroke-linejoin="round"/>
<path d="M213.328 73.1689L248.911 37.5859L284.505 73.1689H213.328Z" stroke="#2C7BD8" stroke-width="3.3359" stroke-linecap="round" stroke-linejoin="round"/>
<path d="M142.164 2V73.1659H213.33L142.164 2Z" stroke="#2C7BD8" stroke-width="3.3359" stroke-linecap="round" stroke-linejoin="round"/>
<path d="M142.164 73.1659H213.33V2L142.164 73.1659Z" stroke="#2C7BD8" stroke-width="3.3359" stroke-linecap="round" stroke-linejoin="round"/>
<path d="M71 2V73.1659H142.166L71 2Z" stroke="#2C7BD8" stroke-width="3.3359" stroke-linecap="round" stroke-linejoin="round"/>
<path d="M71 73.1659H142.166V2L71 73.1659Z" stroke="#2C7BD8" stroke-width="3.3359" stroke-linecap="round" stroke-linejoin="round"/>
<path d="M-0.167969 2V73.1659H70.9979L-0.167969 2Z" stroke="#2C7BD8" stroke-width="3.3359" stroke-linecap="round" stroke-linejoin="round"/>
<path d="M-0.167969 73.1659H70.9979V2L-0.167969 73.1659Z" stroke="#2C7BD8" stroke-width="3.3359" stroke-linecap="round" stroke-linejoin="round"/>
<path d="M-71.332 2V73.1659H-0.166122L-71.332 2Z" stroke="#2C7BD8" stroke-width="3.3359" stroke-linecap="round" stroke-linejoin="round"/>
<path d="M-71.332 73.1659H-0.166122V2L-71.332 73.1659Z" stroke="#2C7BD8" stroke-width="3.3359" stroke-linecap="round" stroke-linejoin="round"/>
<path d="M139.82 172.012C143.045 172.012 145.658 169.398 145.658 166.174C145.658 162.949 143.045 160.336 139.82 160.336" stroke="#21407E" stroke-width="2.22393" stroke-linecap="round" stroke-linejoin="round"/>
<path d="M195.086 196.328H73.6367V348.679H195.086V196.328Z" fill="url(#paint0_linear_296_6477)"/>
<path d="M195.074 348.679L210.197 333.4V211.595L195.074 196.328V348.679Z" fill="url(#paint1_linear_296_6477)"/>
<path d="M195.074 348.679L210.197 333.4V211.595L195.074 196.328V348.679Z" stroke="#0E3073" stroke-width="2.84664" stroke-linecap="round" stroke-linejoin="round"/>
<path d="M180.563 212.578H88.1367V332.404H180.563V212.578Z" fill="url(#paint2_linear_296_6477)"/>
<path d="M195.086 196.328H73.6367V348.679H195.086V196.328Z" stroke="#0E3073" stroke-width="2.84664" stroke-linecap="round" stroke-linejoin="round"/>
<path d="M73.6367 348.679L195.075 196.328L210.197 333.4" stroke="#0E3073" stroke-width="2.84664" stroke-linecap="round" stroke-linejoin="round"/>
<path d="M210.197 211.589L195.075 348.673L73.6367 196.322L139.821 168.656L195.075 196.322" stroke="#0E3073" stroke-width="2.84664" stroke-linecap="round" stroke-linejoin="round"/>
<path d="M139.818 160.328C136.594 160.328 133.98 162.941 133.98 166.166C133.98 169.391 136.594 172.004 139.818 172.004" stroke="#21407E" stroke-width="2.22393" stroke-linecap="round" stroke-linejoin="round"/>
<path d="M139.821 161.586C144.383 161.586 148.082 157.887 148.082 153.324C148.082 148.762 144.383 145.062 139.821 145.062C135.258 145.062 131.559 148.762 131.559 153.324C131.559 157.887 135.258 161.586 139.821 161.586Z" fill="url(#paint3_linear_296_6477)"/>
<path d="M131.559 85.3125H148.082V154.666C148.082 159.058 144.513 162.616 140.132 162.616H139.52C135.128 162.616 131.57 159.047 131.57 154.666V85.3125H131.559Z" stroke="#0E3073" stroke-width="2.84664" stroke-linecap="round" stroke-linejoin="round"/>
<path d="M123.586 72.8359H156.066V78.5181C156.066 87.1469 149.061 94.1523 140.432 94.1523H139.22C130.591 94.1523 123.586 87.1469 123.586 78.5181V72.8359Z" fill="url(#paint4_linear_296_6477)"/>
</g>
<defs>
<linearGradient id="paint0_linear_296_6477" x1="65.2303" y1="124.373" x2="201.591" y2="416.564" gradientUnits="userSpaceOnUse">
<stop stop-color="#A8E9FF"/>
<stop offset="1" stop-color="#0069EB"/>
</linearGradient>
<linearGradient id="paint1_linear_296_6477" x1="218.811" y1="164.759" x2="92.6029" y2="251.296" gradientUnits="userSpaceOnUse">
<stop stop-color="#A8E9FF"/>
<stop offset="1" stop-color="#0069EB"/>
</linearGradient>
<linearGradient id="paint2_linear_296_6477" x1="62.0944" y1="167.543" x2="251.362" y2="442.422" gradientUnits="userSpaceOnUse">
<stop stop-color="#A8E9FF"/>
<stop offset="1" stop-color="#0069EB"/>
</linearGradient>
<linearGradient id="paint3_linear_296_6477" x1="139.821" y1="148.487" x2="139.821" y2="175.519" gradientUnits="userSpaceOnUse">
<stop stop-color="#21407E"/>
<stop offset="1"/>
</linearGradient>
<linearGradient id="paint4_linear_296_6477" x1="139.821" y1="76.65" x2="139.821" y2="104.394" gradientUnits="userSpaceOnUse">
<stop stop-color="#3692E7"/>
<stop offset="1"/>
</linearGradient>
</defs>
</svg>
