<svg width="126" height="127" viewBox="0 0 126 127" fill="none" xmlns="http://www.w3.org/2000/svg">
<path d="M48.4794 68.5557C48.0596 69.2253 47.5657 69.9891 47.0273 70.8025C47.6596 71.1397 48.2967 71.4571 48.9437 71.7498C48.7659 70.5941 48.6079 69.4931 48.4794 68.5557Z" fill="#A3D8FF"/>
<path d="M76.8364 68.5557C76.703 69.508 76.545 70.6289 76.3672 71.7994C77.029 71.5018 77.6761 71.1844 78.3182 70.8422C77.77 70.0139 77.2662 69.2352 76.8364 68.5557Z" fill="#A3D8FF"/>
<path d="M33.8566 58.1393C34.0146 58.4121 34.0442 58.7444 33.9257 59.042L33.3775 60.4208L37.072 67.3397C39.1267 62.3105 40.9048 59.1907 42.357 57.2613C38.8601 52.8222 36.7658 47.2126 36.7658 41.1219C36.7658 26.7588 48.4025 15.0672 62.712 15.0672C77.0153 15.0672 88.6583 26.7525 88.6583 41.1219C88.6583 47.2423 86.5443 52.8767 83.0128 57.3261C84.46 59.2604 86.2133 62.3703 88.2483 67.335L92.0022 60.3069L91.4984 59.0371C91.3799 58.7395 91.4046 58.4072 91.5675 58.1344C91.9627 57.4599 92.3331 56.7755 92.6789 56.0811C92.5455 55.6198 92.4665 55.1387 92.4665 54.6328C92.4665 52.7828 93.4494 51.1609 94.9163 50.2582C94.9805 50.0301 95.0447 49.8019 95.104 49.5738C95.183 49.2663 95.4004 49.0133 95.6918 48.8893L103.427 45.5563C103.585 44.0733 103.664 42.5854 103.664 41.1222C103.664 39.6591 103.585 38.1661 103.427 36.688L95.6918 33.3501C95.4004 33.2261 95.183 32.9731 95.104 32.6607C94.3286 29.6599 93.1382 26.7832 91.5675 24.0999C91.4045 23.8271 91.3798 23.4899 91.4984 23.1972L94.6249 15.3408C92.7728 13.0345 90.6785 10.9265 88.3818 9.07157L80.5581 12.2112C80.2617 12.3302 79.9308 12.3054 79.6591 12.1418C76.987 10.5645 74.1174 9.36921 71.134 8.59049C70.8278 8.51113 70.5759 8.29289 70.4524 8.00027L67.1284 0.238073C65.6515 0.0793577 64.1698 0 62.7127 0C61.2556 0 59.7739 0.0793577 58.297 0.238073L54.9779 8.00522C54.8544 8.29785 54.6025 8.51608 54.2963 8.59544C51.313 9.37413 48.4433 10.5695 45.7712 12.1467C45.4995 12.3054 45.1637 12.3352 44.8722 12.2162L37.0485 9.07652C34.7518 10.9315 32.6575 13.0345 30.8054 15.3458L33.927 23.2022C34.0456 23.4998 34.0209 23.8321 33.8579 24.1049C32.2872 26.7882 31.0969 29.6698 30.3214 32.6656C30.2423 32.9731 30.025 33.2261 29.7336 33.355L21.9988 36.693C21.8407 38.1611 21.7617 39.649 21.7617 41.1271C21.7617 42.6003 21.8407 44.0881 21.9988 45.5563L29.7336 48.8893C30.025 49.0133 30.2423 49.2663 30.3214 49.5738C30.3806 49.8019 30.4449 50.0301 30.5091 50.2582C31.9761 51.1609 32.954 52.7828 32.954 54.6328C32.954 55.1338 32.8799 55.6198 32.7416 56.0811C33.0923 56.7804 33.4627 57.4648 33.8579 58.1394L33.8566 58.1393Z" fill="url(#paint0_radial_172_3036)"/>
<path d="M89.7201 121.17C89.1076 121.304 88.4162 121.368 87.6506 121.368C87.5271 121.368 87.4037 121.368 87.29 121.363C87.1913 122.326 86.9443 123.511 86.3467 124.121C86.2676 124.364 86.317 125.024 86.4454 125.688C87.053 125.832 87.9174 126.006 88.5149 126.006C88.5989 126.006 88.6631 126.001 88.7125 125.996C88.9545 125.669 89.4139 125.371 90.2585 125.371C91.4489 125.371 93.3999 125.931 95.2867 126.477C95.7263 126.606 96.1609 126.73 96.5709 126.844C96.882 126.928 97.1784 126.973 97.4451 126.973C98.0724 126.973 98.3836 126.74 98.4428 126.586C98.4922 126.452 98.3737 126.229 98.1366 126.021C96.9265 124.954 92.6096 123.729 91.8539 123.585C91.9329 123.6 91.9823 123.595 92.002 123.595C91.2414 123.6 90.2486 122.336 89.7201 121.17Z" fill="white"/>
<path d="M38.0271 121.363C37.9135 121.368 37.795 121.368 37.6666 121.368C36.901 121.368 36.2046 121.299 35.5971 121.17C35.0686 122.335 34.0807 123.6 33.3151 123.6C33.3349 123.6 33.3892 123.6 33.4633 123.59C32.7076 123.729 28.3908 124.959 27.1806 126.026C26.9435 126.234 26.8249 126.457 26.8743 126.591C26.9336 126.745 27.2448 126.978 27.8721 126.978C28.1437 126.978 28.4351 126.933 28.7463 126.849C29.1563 126.735 29.5909 126.611 30.0305 126.482C31.9173 125.941 33.8683 125.381 35.0586 125.381C35.9032 125.381 36.3625 125.679 36.6047 126.006C36.654 126.011 36.7183 126.016 36.8022 126.016C37.3999 126.016 38.2642 125.842 38.8668 125.698C38.9952 125.034 39.0446 124.374 38.9656 124.131C38.3729 123.511 38.1259 122.326 38.0271 121.363Z" fill="white"/>
<path d="M62.651 56.7366C61.8706 56.7366 61.1099 56.6176 60.3789 56.4043L62.1916 59.6034H63.1004L64.9131 56.4043C64.192 56.6176 63.4314 56.7366 62.651 56.7366Z" fill="#A3D8FF"/>
<path d="M38.9482 117.357L39.0075 102.75C39.0075 102.468 39.126 102.2 39.3335 102.006C39.5409 101.813 39.8126 101.714 40.0941 101.729C40.1978 101.734 50.8073 102.294 60.3643 97.5524C60.389 97.5425 60.4088 97.5326 60.4335 97.5226C62.1523 96.8233 62.4487 96.7936 62.5623 96.7836L62.6611 97.8054L62.7598 96.7836C62.8734 96.7936 63.1698 96.8233 64.8886 97.5226C64.9133 97.5326 64.9331 97.5425 64.9578 97.5524C74.5152 102.294 85.1192 101.739 85.228 101.729C85.5046 101.714 85.7861 101.813 85.9886 102.006C86.1911 102.2 86.3097 102.468 86.3097 102.75L86.3689 117.357C87.9001 117.7 89.5596 117.089 90.3006 116.762C90.6661 114.991 91.9157 108.831 92.6911 104.159C93.6098 98.604 93.0715 95.3603 90.9525 93.6342C88.888 91.9529 77.0235 86.8342 72.6283 85.004C72.2826 84.8602 72.0405 84.5329 72.001 84.1609L71.9121 83.2979C69.7092 84.141 66.1333 85.0833 62.661 85.0833C59.1937 85.0833 55.6177 84.141 53.4099 83.2979L53.321 84.1609C53.2815 84.5378 53.0394 84.8602 52.6937 85.009C48.2978 86.8392 36.4292 91.9578 34.3695 93.6392C32.2456 95.3652 31.7121 98.614 32.6309 104.164C33.4014 108.836 34.656 115.001 35.0214 116.767C35.7574 117.094 37.4071 117.7 38.9482 117.357ZM60.4538 86.8141C60.5032 86.2487 61.002 85.832 61.5651 85.8767C62.1282 85.9263 62.548 86.4223 62.4986 86.9927C62.1331 91.2483 62.5776 92.2352 62.7456 92.4485C63.2741 92.4882 63.689 92.9346 63.689 93.4752C63.689 94.0406 63.2296 94.5019 62.6665 94.5019C62.1282 94.5019 61.6441 94.2837 61.2687 93.872C60.35 92.88 60.113 90.7721 60.4538 86.8141Z" fill="white"/>
<path d="M52.8661 80.8153C52.8957 80.8301 52.9352 80.85 52.9797 80.8748C54.3677 81.5791 58.5561 83.0274 62.6506 83.0274C66.7502 83.0274 70.9337 81.5791 72.3166 80.8797C72.366 80.8549 72.4006 80.8351 72.4351 80.8202C73.1019 79.5803 74.3417 72.1206 75.1863 65.435C75.2406 64.9985 75.5666 64.6464 75.9963 64.5571C76.426 64.4678 76.8656 64.6662 77.0879 65.0432C77.1077 65.0779 79.1722 68.5895 81.632 72.0464C86.1218 78.3554 87.7567 78.6729 88.0382 78.6729C88.1024 78.6729 89.6335 78.5786 93.2045 70.5388C94.6122 67.3645 95.7927 64.1604 96.3162 62.6972L93.7824 61.3234L89.0062 70.266C88.8185 70.6182 88.4432 70.8315 88.0381 70.8067C87.6381 70.7819 87.2923 70.5239 87.1441 70.152C82.1852 57.2617 79.1525 56.364 78.9056 56.3145C78.8562 56.3195 78.8019 56.3195 78.7475 56.3145L71.5462 55.7441L69.5705 64.8653C69.4964 65.2125 69.2445 65.5002 68.9086 65.6192C68.8 65.6589 68.6864 65.6787 68.5728 65.6787C68.3406 65.6787 68.1085 65.5994 67.9257 65.4456L65.5747 63.5163L64.7251 65.2919L66.039 76.7045C66.0637 76.9228 66.0192 77.141 65.9155 77.3295L63.5496 81.5404C63.5249 81.585 63.5002 81.6247 63.4706 81.6594C63.4656 81.6644 63.4607 81.6693 63.4607 81.6693C63.4261 81.714 63.3866 81.7536 63.3471 81.7884C63.3372 81.7983 63.3273 81.8082 63.3125 81.8181C63.2631 81.8578 63.2137 81.8975 63.1594 81.9272C63.1495 81.9322 63.1397 81.9372 63.1298 81.9421C63.1001 81.957 63.0754 81.9719 63.0458 81.9818C63.0162 81.9917 62.9865 82.0016 62.9569 82.0116C62.947 82.0165 62.9322 82.0215 62.9223 82.0215C62.8384 82.0463 62.7495 82.0562 62.6606 82.0562C62.5716 82.0562 62.4877 82.0463 62.3988 82.0215C62.3889 82.0165 62.379 82.0116 62.3642 82.0116C62.3346 82.0016 62.3049 81.9917 62.2753 81.9818C62.2457 81.9719 62.216 81.957 62.1913 81.9421C62.1815 81.9372 62.1716 81.9322 62.1617 81.9272C62.1074 81.8975 62.058 81.8578 62.0086 81.8181C61.9987 81.8082 61.9888 81.7983 61.974 81.7884C61.9345 81.7487 61.895 81.709 61.8604 81.6693C61.8555 81.6644 61.8505 81.6594 61.8505 81.6594C61.8209 81.6197 61.7962 81.58 61.7715 81.5404L59.4056 77.3295C59.297 77.141 59.2574 76.9228 59.2821 76.7045L60.596 65.2919L59.7465 63.5163L57.3954 65.4456C57.2077 65.5994 56.9805 65.6787 56.7483 65.6787C56.6347 65.6787 56.5211 65.6589 56.4125 65.6192C56.0766 65.5002 55.8247 65.2175 55.7506 64.8653L53.77 55.7441L46.5687 56.3145C46.5143 56.3195 46.4649 56.3195 46.4106 56.3145C46.1636 56.3641 43.1309 57.2619 38.172 70.152C38.0288 70.5289 37.6781 70.7819 37.278 70.8067C36.878 70.8315 36.5026 70.6182 36.31 70.266L31.5338 61.3234L29 62.6972C29.5236 64.1653 30.709 67.3744 32.1166 70.5487C35.6827 78.5787 37.2138 78.6729 37.278 78.6729C37.5596 78.6729 39.1993 78.3554 43.694 72.0365C46.1537 68.5795 48.2084 65.0778 48.2282 65.0432C48.4504 64.6662 48.89 64.4678 49.3197 64.5571C49.7494 64.6464 50.0754 64.9985 50.1298 65.435C50.9596 72.1159 52.2042 79.5811 52.8661 80.8153Z" fill="#04BEFE"/>
<path d="M60.2783 60.3884L56.8653 54.3672C56.6974 54.2084 56.5295 54.0398 56.3714 53.8662L55.6602 54.8681L57.379 62.7791L60.2783 60.3884Z" fill="white"/>
<path d="M69.6455 54.8661L68.9342 53.8643C68.7762 54.0379 68.6082 54.2065 68.4403 54.3652L65.0273 60.3865L67.9316 62.7722L69.6455 54.8661Z" fill="white"/>
<path d="M55.6068 49.0536C55.8834 49.1578 56.1057 49.381 56.2094 49.6637C57.3158 52.709 59.8496 54.683 62.66 54.683C65.4705 54.683 68.0043 52.7139 69.1107 49.6637C69.2144 49.376 69.4367 49.1528 69.7182 49.0487C70.3504 48.7808 71.4716 47.7342 71.9063 46.5935C72.094 46.1025 72.1286 45.666 72.0101 45.2842C71.8717 45.3487 71.7137 45.4677 71.6742 45.5619C71.6297 46.043 71.2593 46.42 70.7901 46.4795C70.5283 46.9656 70.2962 47.5211 70.1529 48.0022C70.0146 48.4783 69.5602 48.7858 69.0663 48.7362C68.5773 48.6866 68.192 48.2948 68.1476 47.7988C68.1229 47.5062 68.0883 47.2086 68.0537 46.9209C66.7844 47.9922 64.789 48.1956 62.7392 48.2005H62.6651H62.591C60.5412 48.1906 58.5458 47.9922 57.2765 46.9209C57.2419 47.2086 57.2073 47.5062 57.1826 47.7988C57.1431 48.2898 56.7529 48.6866 56.2639 48.7362C56.2293 48.7412 56.1948 48.7412 56.1602 48.7412C55.7107 48.7412 55.3057 48.4436 55.1773 48.0022C55.0341 47.521 54.8069 46.9655 54.5401 46.4795C54.0709 46.42 53.7005 46.043 53.6511 45.5619C53.6116 45.4727 53.4535 45.3487 53.3152 45.2842C53.1967 45.6661 53.2312 46.1026 53.414 46.5935C53.8487 47.7392 54.9746 48.7858 55.6068 49.0536Z" fill="#A3D8FF"/>
<path d="M54.6987 35.7708C54.2838 35.7411 53.8244 35.9593 53.3305 36.4206C51.7055 37.9333 52.4415 41.0928 53.5726 43.166C54.4468 43.2404 55.1531 43.8107 55.6964 44.5101C55.9878 43.8108 56.3385 43.6768 56.7188 43.6223C56.7682 43.6173 56.8226 43.6124 56.8818 43.6124C57.2523 43.6124 57.7907 43.7909 58.1216 44.6787C58.4476 45.5566 59.3465 46.1468 62.6557 46.1519C65.9601 46.1469 66.859 45.5567 67.1899 44.6787C67.5751 43.6471 68.237 43.5727 68.5926 43.6272C68.973 43.6818 69.3236 43.8157 69.6151 44.5151C70.1584 43.8157 70.8647 43.2453 71.7389 43.1709C72.87 41.1027 73.606 37.9432 71.981 36.4255C71.487 35.9643 71.0277 35.746 70.6128 35.7758C70.0498 35.8155 69.6497 36.3065 69.6448 36.3115C69.4027 36.6239 69.0076 36.7678 68.6223 36.6834C68.2371 36.5991 67.9358 36.2966 67.8419 35.9097C67.8074 35.7758 66.9134 32.418 62.6508 32.418C58.3882 32.418 57.4943 35.7757 57.4597 35.9196C57.3658 36.3015 57.0596 36.5991 56.6743 36.6785C56.2891 36.7578 55.8939 36.614 55.6519 36.3015C55.6569 36.2916 55.2568 35.8105 54.6987 35.7708Z" fill="#89C4EF"/>
<path d="M94.5039 54.6396C94.5039 56.3358 95.877 57.7197 97.5712 57.7197C99.2603 57.7197 100.634 56.3409 100.634 54.6396C100.634 52.9434 99.2605 51.5645 97.5712 51.5645C95.882 51.5595 94.5039 52.9433 94.5039 54.6396Z" fill="#A3D8FF"/>
<path d="M27.8436 51.5566C26.1544 51.5566 24.7812 52.9354 24.7812 54.6318C24.7812 56.328 26.1543 57.7119 27.8436 57.7119C29.5328 57.7119 30.9059 56.3331 30.9059 54.6318C30.9059 52.9405 29.5329 51.5566 27.8436 51.5566Z" fill="#A3D8FF"/>
<path d="M116.071 87.754C116.071 87.1836 116.531 86.7273 117.094 86.7273H125.411L110.692 62.6025L95.9727 86.7273H104.295C104.858 86.7273 105.318 87.1885 105.318 87.754V116.407C105.318 119.382 107.728 121.803 110.691 121.803C113.655 121.803 116.065 119.382 116.065 116.407L116.071 87.754Z" fill="#54A4E9"/>
<path d="M9.34597 87.754V116.407C9.34597 119.382 11.7562 121.803 14.7198 121.803C17.6834 121.803 20.0937 119.382 20.0937 116.407L20.0986 87.754C20.0986 87.1836 20.558 86.7273 21.121 86.7273H29.4386L14.7244 62.6025L0 86.7273H8.31759C8.8856 86.7273 9.34597 87.1885 9.34597 87.754Z" fill="#54A4E9"/>
<defs>
<radialGradient id="paint0_radial_172_3036" cx="0" cy="0" r="1" gradientUnits="userSpaceOnUse" gradientTransform="translate(94.8382 36.0341) rotate(175.215) scale(73.3321 89.9321)">
<stop stop-color="white"/>
<stop offset="0.505" stop-color="white"/>
<stop offset="1" stop-color="#3692E7"/>
</radialGradient>
</defs>
</svg>
