<svg width="108" height="111" viewBox="0 0 108 111" fill="none" xmlns="http://www.w3.org/2000/svg">
<path d="M96.666 88.5693C100.373 88.5693 103.379 85.5638 103.379 81.8564C103.379 78.149 100.373 75.1436 96.666 75.1436C92.9586 75.1436 89.9531 78.149 89.9531 81.8564C89.9531 85.5638 92.9586 88.5693 96.666 88.5693Z" fill="white"/>
<path d="M107.406 94.8359C107.406 91.381 104.595 88.5706 101.141 88.5706H88.9142C86.9809 88.5706 85.1013 89.1971 83.5439 90.3607L75.1841 96.626V99.705V96.5007L67.7373 90.9872C65.5534 89.3761 62.9219 88.499 60.201 88.5169L53.7029 88.5527C57.4084 88.5527 60.4158 85.5453 60.4158 81.8398C60.4158 78.1343 57.4084 75.127 53.7029 75.127C49.9974 75.127 46.9901 78.1343 46.9901 81.8398C46.9901 85.5453 49.9974 88.5527 53.7029 88.5527L45.8802 88.5885C43.9469 88.5885 42.0673 89.2329 40.5278 90.4144L32.2218 96.7155V96.6081L23.862 90.3428C22.3046 89.1792 20.425 88.5527 18.4917 88.5527H6.26534C2.81045 88.5527 0 91.3631 0 94.818V110.929H21.4812V98.3982L32.2218 103.769V99.8124V103.894L42.9624 98.4698L43.034 111.001L64.5151 110.875L64.4435 98.3445L75.1841 103.643V103.769L85.9247 98.3982V110.929H107.406V94.818V94.8359Z" fill="white"/>
<path d="M21.5352 51.9261C21.5352 64.7074 29.0357 75.7523 39.8658 80.9615C39.9374 79.7084 40.188 78.509 40.5818 77.3634C41.6917 74.1233 43.9651 71.4202 46.9187 69.7555C48.2971 68.9857 48.9595 67.4641 48.7267 65.9067C48.6372 65.2623 48.673 64.5821 48.9058 63.9018L50.1409 60.1605C50.7675 58.2988 50.0693 56.2223 48.4224 55.1483L46.6681 54.0026C44.9138 52.8032 44.2336 50.5298 45.1107 48.5607L51.9131 33.2554C52.9156 30.9819 51.8236 28.3505 49.5144 27.4017L43.7861 25.1104C46.9008 23.9469 50.2483 23.2845 53.7569 23.2845C58.1069 23.2845 62.2062 24.287 65.8938 26.0234L61.0784 40.0756C60.3982 42.17 62.779 43.8706 64.5333 42.5818C64.9271 42.2775 65.4105 42.0984 65.858 42.0984C67.1111 42.0984 68.3104 43.2441 68.0598 44.7299L67.4333 48.5607C67.0573 50.5835 69.4561 51.944 71.0672 50.6193L80.859 42.7071C81.8436 45.607 82.4164 48.7039 82.4164 51.9261C82.4164 63.0068 76.0794 72.6196 66.8425 77.3813C67.2364 78.5269 67.4691 79.7442 67.5586 81.0152C78.4424 75.8418 86.0145 64.7611 86.0145 51.9261C86.0145 34.759 72.5171 20.7247 55.5828 19.7938V11.8458C57.6951 11.989 61.2037 11.8458 63.2802 9.73347C66.4308 6.5829 65.1777 0.245956 65.1777 0.245956C65.1777 0.245956 58.8229 -1.00711 55.6902 2.14346C54.4014 3.43233 53.8643 5.24033 53.6495 6.94092C53.381 5.66995 52.8619 4.38108 51.8773 3.41443C49.0848 0.621876 43.6429 1.51693 43.6429 1.51693C43.6429 1.51693 42.7478 6.94092 45.5404 9.75138C47.3126 11.5236 50.1409 11.81 51.9847 11.7921V19.8117C35.0504 20.7426 21.5531 34.7769 21.5531 51.944L21.5352 51.9261ZM33.0455 53.5193L32.3294 56.3476C32.0072 57.7439 32.2578 59.2118 33.0455 60.3932L35.6411 64.2599C36.4288 65.4413 36.6794 66.9092 36.3393 68.3055L35.0146 73.5326C28.9641 68.2876 25.1154 60.5544 25.1154 51.9261C25.1154 50.3508 25.2765 48.8113 25.5271 47.2897L30.79 48.3638C33.6362 48.9008 33.7615 50.7446 33.0634 53.5193H33.0455Z" fill="url(#paint0_linear_172_3077)"/>
<path d="M10.7402 88.5693C14.4476 88.5693 17.4531 85.5638 17.4531 81.8564C17.4531 78.149 14.4476 75.1436 10.7402 75.1436C7.0328 75.1436 4.02734 78.149 4.02734 81.8564C4.02734 85.5638 7.0328 88.5693 10.7402 88.5693Z" fill="white"/>
<defs>
<linearGradient id="paint0_linear_172_3077" x1="53.7748" y1="0" x2="53.7748" y2="81.0152" gradientUnits="userSpaceOnUse">
<stop stop-color="#89C4EF"/>
<stop offset="1" stop-color="#3692E7"/>
</linearGradient>
</defs>
</svg>
