<svg width="91" height="91" viewBox="0 0 91 91" fill="none" xmlns="http://www.w3.org/2000/svg">
<path fill-rule="evenodd" clip-rule="evenodd" d="M73.6938 83.4549H17.3236V84.9817C17.3236 88.2904 20.0332 91 23.342 91H67.6755C70.9842 91 73.6938 88.2904 73.6938 84.9817V83.4549ZM51.6556 7.78829C50.7691 7.78829 50.7691 6.44157 51.6556 6.44157H54.426C55.3126 6.44157 55.3126 7.78829 54.426 7.78829H51.6556ZM36.5914 7.78829C35.7049 7.78829 35.7049 6.44157 36.5914 6.44157H47.7884C48.675 6.44157 48.675 7.78829 47.7884 7.78829H36.5914ZM87.5264 5.61179H61.2076C59.2939 5.61179 57.7253 7.18034 57.7253 9.09404V28.0251C57.7253 29.9388 59.2939 31.5074 61.2076 31.5074H64.8147C65.1866 31.5074 65.488 31.8088 65.488 32.1807V39.9082L70.3545 31.8889C70.4632 31.6632 70.6941 31.5074 70.9615 31.5074H87.5264C89.4399 31.5074 91.0086 29.9386 91.0086 28.0251V9.09404C91.0088 7.18034 89.4403 5.61179 87.5264 5.61179ZM33.2919 41.6232L25.0361 33.3674L8.41103 49.9925H20.0558C20.323 49.9925 20.554 50.1483 20.6627 50.374L25.5292 58.3933V50.6658C25.5292 50.294 25.8307 49.9925 26.2026 49.9925H29.8097C31.7234 49.9925 33.2919 48.4239 33.2919 46.5102V41.6232ZM0.0086321 43.1001V27.579C0.0086321 25.6653 1.57699 24.0967 3.49087 24.0967H29.8097C31.7234 24.0967 33.2919 25.6651 33.2919 27.579V39.7187L25.5123 31.9391C25.2493 31.6761 24.823 31.6761 24.5602 31.9391L16.4943 40.005L10.2753 33.786C10.0123 33.523 9.58595 33.523 9.32314 33.786L0.0086321 43.1001ZM15.5419 40.9573L6.50676 49.9925H3.49087C2.53412 49.9925 1.66375 49.6004 1.03214 48.969C-0.163748 47.7731 0.0086321 46.5422 0.0086321 45.0048L9.79892 35.2145L15.5419 40.9573ZM73.6938 18.044C73.2246 17.9226 72.8054 17.6771 72.4731 17.3448C71.0031 15.8748 71.7049 13.3724 73.6938 12.8576V18.044ZM75.0403 19.5613C75.5096 19.6827 75.9288 19.9282 76.261 20.2605C77.7309 21.7303 77.0294 24.2329 75.0403 24.7478V19.5613ZM73.6938 9.74316C73.6938 8.85663 75.0405 8.85663 75.0405 9.74316V11.4818C76.9575 11.8046 78.3925 13.4718 78.3925 15.451C78.3925 16.3375 77.0458 16.3375 77.0458 15.451C77.0458 14.217 76.2064 13.1596 75.0405 12.8577V18.1856C78.2378 18.7243 79.5315 22.6829 77.2134 25.001C76.6352 25.5791 75.8822 25.9821 75.0405 26.1239V27.8625C75.0405 28.7491 73.6938 28.7491 73.6938 27.8625V26.1239C71.7768 25.8011 70.3418 24.1339 70.3418 22.1547C70.3418 21.2682 71.6885 21.2682 71.6885 22.1547C71.6885 23.3887 72.5279 24.4461 73.6938 24.748V19.4201C70.4967 18.8816 69.2027 14.923 71.521 12.6047C72.0991 12.0266 72.8521 11.6238 73.6938 11.482V9.74316ZM18.1128 29.0455C16.8134 27.7462 14.5821 28.671 14.5821 30.5081C14.5821 32.3452 16.8134 33.27 18.1128 31.9706C18.9203 31.1628 18.9203 29.853 18.1128 29.0455ZM16.6503 27.093C19.6825 27.093 21.2111 30.7765 19.065 32.9226C16.9189 35.0687 13.2354 33.5401 13.2354 30.5079C13.2354 28.6221 14.7645 27.093 16.6503 27.093ZM77.4138 48.2762C70.1991 48.2762 62.9843 48.2762 55.7695 48.2762C54.2616 48.2762 53.0253 49.5125 53.0253 51.0204V66.5891C53.0253 68.0971 54.2617 69.3333 55.7695 69.3333H58.7359C59.1078 69.3333 59.4093 69.6348 59.4093 70.0067V75.9352L63.184 69.7149C63.2927 69.4892 63.5235 69.3333 63.791 69.3333C68.3319 69.3333 72.8729 69.3333 77.4138 69.3333C78.9214 69.3333 80.1581 68.0969 80.1581 66.5891V51.0204C80.1579 49.5125 78.9218 48.2762 77.4138 48.2762ZM73.6938 46.9294V32.8541H71.337L65.3882 42.6571C65.0371 43.2364 64.1452 42.9828 64.1444 42.3098H64.1413V32.8539H61.2076C58.5505 32.8539 56.3786 30.6822 56.3786 28.0249V9.09384C56.3786 6.43657 58.5503 4.26488 61.2076 4.26488H73.4335C72.6674 1.76844 70.3412 0 67.6755 0H23.342C20.0332 0 17.3236 2.70961 17.3236 6.01831V22.7502H29.8097C32.467 22.7502 34.6387 24.9219 34.6387 27.5792V46.5102C34.6387 49.1675 32.467 51.3392 29.8097 51.3392H26.876V60.7951H26.8729C26.8723 61.4681 25.9802 61.7215 25.6291 61.1424L19.6802 51.3392H17.3234V82.1084H73.6936V70.6799H64.1661L59.3091 78.6838C58.958 79.2631 58.066 79.0095 58.0653 78.3368H58.0622V70.6799H55.7691C53.5178 70.6799 51.6782 68.8403 51.6782 66.5889V51.0202C51.6782 48.7689 53.5176 46.9293 55.7691 46.9293L73.6938 46.9294ZM58.6261 53.9613C57.7396 53.9613 57.7396 52.6145 58.6261 52.6145H74.5574C75.444 52.6145 75.444 53.9613 74.5574 53.9613H58.6261ZM58.6261 57.6549C57.7396 57.6549 57.7396 56.3082 58.6261 56.3082H74.5574C75.444 56.3082 75.444 57.6549 74.5574 57.6549H58.6261ZM58.6261 61.3488C57.7396 61.3488 57.7396 60.0021 58.6261 60.0021H74.5574C75.444 60.0021 75.444 61.3488 74.5574 61.3488H58.6261ZM58.6261 65.0425C57.7396 65.0425 57.7396 63.6958 58.6261 63.6958H74.5574C75.444 63.6958 75.444 65.0425 74.5574 65.0425H58.6261ZM39.9101 87.9008C39.0236 87.9008 39.0236 86.5541 39.9101 86.5541H51.1071C51.9937 86.5541 51.9937 87.9008 51.1071 87.9008H39.9101Z" fill="url(#paint0_linear_172_3059)"/>
<path fill-rule="evenodd" clip-rule="evenodd" d="M73.6938 83.4549H17.3236V84.9817C17.3236 88.2904 20.0332 91 23.342 91H67.6755C70.9842 91 73.6938 88.2904 73.6938 84.9817V83.4549ZM51.6556 7.78829C50.7691 7.78829 50.7691 6.44157 51.6556 6.44157H54.426C55.3126 6.44157 55.3126 7.78829 54.426 7.78829H51.6556ZM36.5914 7.78829C35.7049 7.78829 35.7049 6.44157 36.5914 6.44157H47.7884C48.675 6.44157 48.675 7.78829 47.7884 7.78829H36.5914ZM87.5264 5.61179H61.2076C59.2939 5.61179 57.7253 7.18034 57.7253 9.09404V28.0251C57.7253 29.9388 59.2939 31.5074 61.2076 31.5074H64.8147C65.1866 31.5074 65.488 31.8088 65.488 32.1807V39.9082L70.3545 31.8889C70.4632 31.6632 70.6941 31.5074 70.9615 31.5074H87.5264C89.4399 31.5074 91.0086 29.9386 91.0086 28.0251V9.09404C91.0088 7.18034 89.4403 5.61179 87.5264 5.61179ZM33.2919 41.6232L25.0361 33.3674L8.41103 49.9925H20.0558C20.323 49.9925 20.554 50.1483 20.6627 50.374L25.5292 58.3933V50.6658C25.5292 50.294 25.8307 49.9925 26.2026 49.9925H29.8097C31.7234 49.9925 33.2919 48.4239 33.2919 46.5102V41.6232ZM0.0086321 43.1001V27.579C0.0086321 25.6653 1.57699 24.0967 3.49087 24.0967H29.8097C31.7234 24.0967 33.2919 25.6651 33.2919 27.579V39.7187L25.5123 31.9391C25.2493 31.6761 24.823 31.6761 24.5602 31.9391L16.4943 40.005L10.2753 33.786C10.0123 33.523 9.58595 33.523 9.32314 33.786L0.0086321 43.1001ZM15.5419 40.9573L6.50676 49.9925H3.49087C2.53412 49.9925 1.66375 49.6004 1.03214 48.969C-0.163748 47.7731 0.0086321 46.5422 0.0086321 45.0048L9.79892 35.2145L15.5419 40.9573ZM73.6938 18.044C73.2246 17.9226 72.8054 17.6771 72.4731 17.3448C71.0031 15.8748 71.7049 13.3724 73.6938 12.8576V18.044ZM75.0403 19.5613C75.5096 19.6827 75.9288 19.9282 76.261 20.2605C77.7309 21.7303 77.0294 24.2329 75.0403 24.7478V19.5613ZM73.6938 9.74316C73.6938 8.85663 75.0405 8.85663 75.0405 9.74316V11.4818C76.9575 11.8046 78.3925 13.4718 78.3925 15.451C78.3925 16.3375 77.0458 16.3375 77.0458 15.451C77.0458 14.217 76.2064 13.1596 75.0405 12.8577V18.1856C78.2378 18.7243 79.5315 22.6829 77.2134 25.001C76.6352 25.5791 75.8822 25.9821 75.0405 26.1239V27.8625C75.0405 28.7491 73.6938 28.7491 73.6938 27.8625V26.1239C71.7768 25.8011 70.3418 24.1339 70.3418 22.1547C70.3418 21.2682 71.6885 21.2682 71.6885 22.1547C71.6885 23.3887 72.5279 24.4461 73.6938 24.748V19.4201C70.4967 18.8816 69.2027 14.923 71.521 12.6047C72.0991 12.0266 72.8521 11.6238 73.6938 11.482V9.74316ZM18.1128 29.0455C16.8134 27.7462 14.5821 28.671 14.5821 30.5081C14.5821 32.3452 16.8134 33.27 18.1128 31.9706C18.9203 31.1628 18.9203 29.853 18.1128 29.0455ZM16.6503 27.093C19.6825 27.093 21.2111 30.7765 19.065 32.9226C16.9189 35.0687 13.2354 33.5401 13.2354 30.5079C13.2354 28.6221 14.7645 27.093 16.6503 27.093ZM77.4138 48.2762C70.1991 48.2762 62.9843 48.2762 55.7695 48.2762C54.2616 48.2762 53.0253 49.5125 53.0253 51.0204V66.5891C53.0253 68.0971 54.2617 69.3333 55.7695 69.3333H58.7359C59.1078 69.3333 59.4093 69.6348 59.4093 70.0067V75.9352L63.184 69.7149C63.2927 69.4892 63.5235 69.3333 63.791 69.3333C68.3319 69.3333 72.8729 69.3333 77.4138 69.3333C78.9214 69.3333 80.1581 68.0969 80.1581 66.5891V51.0204C80.1579 49.5125 78.9218 48.2762 77.4138 48.2762ZM73.6938 46.9294V32.8541H71.337L65.3882 42.6571C65.0371 43.2364 64.1452 42.9828 64.1444 42.3098H64.1413V32.8539H61.2076C58.5505 32.8539 56.3786 30.6822 56.3786 28.0249V9.09384C56.3786 6.43657 58.5503 4.26488 61.2076 4.26488H73.4335C72.6674 1.76844 70.3412 0 67.6755 0H23.342C20.0332 0 17.3236 2.70961 17.3236 6.01831V22.7502H29.8097C32.467 22.7502 34.6387 24.9219 34.6387 27.5792V46.5102C34.6387 49.1675 32.467 51.3392 29.8097 51.3392H26.876V60.7951H26.8729C26.8723 61.4681 25.9802 61.7215 25.6291 61.1424L19.6802 51.3392H17.3234V82.1084H73.6936V70.6799H64.1661L59.3091 78.6838C58.958 79.2631 58.066 79.0095 58.0653 78.3368H58.0622V70.6799H55.7691C53.5178 70.6799 51.6782 68.8403 51.6782 66.5889V51.0202C51.6782 48.7689 53.5176 46.9293 55.7691 46.9293L73.6938 46.9294ZM58.6261 53.9613C57.7396 53.9613 57.7396 52.6145 58.6261 52.6145H74.5574C75.444 52.6145 75.444 53.9613 74.5574 53.9613H58.6261ZM58.6261 57.6549C57.7396 57.6549 57.7396 56.3082 58.6261 56.3082H74.5574C75.444 56.3082 75.444 57.6549 74.5574 57.6549H58.6261ZM58.6261 61.3488C57.7396 61.3488 57.7396 60.0021 58.6261 60.0021H74.5574C75.444 60.0021 75.444 61.3488 74.5574 61.3488H58.6261ZM58.6261 65.0425C57.7396 65.0425 57.7396 63.6958 58.6261 63.6958H74.5574C75.444 63.6958 75.444 65.0425 74.5574 65.0425H58.6261ZM39.9101 87.9008C39.0236 87.9008 39.0236 86.5541 39.9101 86.5541H51.1071C51.9937 86.5541 51.9937 87.9008 51.1071 87.9008H39.9101Z" fill="url(#paint1_linear_172_3059)"/>
<defs>
<linearGradient id="paint0_linear_172_3059" x1="37.5" y1="-9.5" x2="63.5" y2="77.5" gradientUnits="userSpaceOnUse">
<stop stop-color="white"/>
<stop offset="1" stop-color="#016CEA"/>
</linearGradient>
<linearGradient id="paint1_linear_172_3059" x1="4.85778e-06" y1="136.5" x2="81.5" y2="61" gradientUnits="userSpaceOnUse">
<stop stop-color="#04BEFE"/>
<stop offset="0.564466" stop-color="#55A4EA"/>
<stop offset="1" stop-color="white"/>
</linearGradient>
</defs>
</svg>
