<svg width="256" height="226" viewBox="0 0 256 226" fill="none" xmlns="http://www.w3.org/2000/svg">
<path d="M148.721 110.34C153.722 115.158 153.869 123.119 149.051 128.12L86.524 193.014C81.7055 198.015 73.7453 198.163 68.7443 193.345L3.84978 130.818C-1.15118 125.999 -1.2991 118.039 3.51942 113.038L66.0463 48.1434C70.8648 43.1424 78.8251 42.9945 83.826 47.813L148.721 110.34Z" fill="url(#paint0_linear_25_167)"/>
<path d="M253.259 172.286C256.363 175.277 256.455 180.219 253.464 183.324L214.647 223.61C211.656 226.715 206.714 226.807 203.609 223.815L163.323 184.999C160.218 182.007 160.127 177.066 163.118 173.961L201.935 133.675C204.926 130.57 209.868 130.478 212.972 133.469L253.259 172.286Z" fill="url(#paint1_linear_25_167)"/>
<path d="M251.75 41.0014C254.854 43.9927 254.946 48.9344 251.955 52.039L213.138 92.3255C210.147 95.4301 205.205 95.5219 202.1 92.5305L161.814 53.7139C158.709 50.7226 158.618 45.7809 161.609 42.6763L200.425 2.38987C203.417 -0.714725 208.359 -0.806543 211.463 2.18478L251.75 41.0014Z" fill="url(#paint2_linear_25_167)"/>
<defs>
<linearGradient id="paint0_linear_25_167" x1="232.545" y1="72.1822" x2="181.016" y2="22.5331" gradientUnits="userSpaceOnUse">
<stop stop-color="#2C7DB8"/>
<stop offset="1" stop-color="#0566A3"/>
</linearGradient>
<linearGradient id="paint1_linear_25_167" x1="232.545" y1="72.1822" x2="181.016" y2="22.5331" gradientUnits="userSpaceOnUse">
<stop stop-color="#2C7DB8"/>
<stop offset="1" stop-color="#0566A3"/>
</linearGradient>
<linearGradient id="paint2_linear_25_167" x1="232.545" y1="72.1822" x2="181.016" y2="22.5331" gradientUnits="userSpaceOnUse">
<stop stop-color="#2C7DB8"/>
<stop offset="1" stop-color="#0566A3"/>
</linearGradient>
</defs>
</svg>
