<svg width="746" height="746" viewBox="0 0 746 746" fill="none" xmlns="http://www.w3.org/2000/svg">
<g filter="url(#filter0_d_46_2710)">
<path fill-rule="evenodd" clip-rule="evenodd" d="M519 48.6567L529.985 37.3912C481.587 14.0695 427.32 1 370 1C300.297 1 235.109 20.3262 179.5 53.9125L196.687 69.8776L57.9116 219.278L40.7115 203.301C15.3135 253.371 1 310.014 1 370C1 428.24 14.4926 483.329 38.5225 532.311L58.4852 514L196.323 664.267L175.325 683.528C231.834 718.69 298.545 739 370 739C443.584 739 512.138 717.461 569.7 680.344L559 670.406L697.77 521L704.091 526.871C726.484 479.264 739 426.094 739 370C739 297.691 718.202 230.241 682.261 173.303L664.995 191.011L519 48.6567ZM67.7102 370C67.7102 536.95 203.05 672.29 370 672.29C536.95 672.29 672.29 536.95 672.29 370C672.29 203.05 536.95 67.7102 370 67.7102C203.05 67.7102 67.7102 203.05 67.7102 370Z" fill="#21407E"/>
</g>
<defs>
<filter id="filter0_d_46_2710" x="0" y="0" width="746" height="746" filterUnits="userSpaceOnUse" color-interpolation-filters="sRGB">
<feFlood flood-opacity="0" result="BackgroundImageFix"/>
<feColorMatrix in="SourceAlpha" type="matrix" values="0 0 0 0 0 0 0 0 0 0 0 0 0 0 0 0 0 0 127 0" result="hardAlpha"/>
<feOffset dx="3" dy="3"/>
<feGaussianBlur stdDeviation="2"/>
<feComposite in2="hardAlpha" operator="out"/>
<feColorMatrix type="matrix" values="0 0 0 0 0 0 0 0 0 0 0 0 0 0 0 0 0 0 0.25 0"/>
<feBlend mode="normal" in2="BackgroundImageFix" result="effect1_dropShadow_46_2710"/>
<feBlend mode="normal" in="SourceGraphic" in2="effect1_dropShadow_46_2710" result="shape"/>
</filter>
</defs>
</svg>
