<svg width="1583" height="249" viewBox="0 0 1583 249" fill="none" xmlns="http://www.w3.org/2000/svg">
<g clip-path="url(#clip0_10_462)">
<g opacity="0.56">
<path d="M-16.9521 209.244H50.74V93.7266L-16.9521 103.284V209.244Z" fill="#3692E7"/>
<path d="M7.78345 97.0946V86.5943L50.7401 77.0391V97.0946H7.78345Z" fill="#3692E7"/>
<path d="M-4.58447 103.986V96.699L50.7399 87.1465V103.986H-4.58447Z" fill="#3692E7"/>
<path d="M273.583 208.984H358.343V140.697L273.583 150.974V208.984Z" fill="#3692E7"/>
<path d="M280.998 150.813V142.278L350.929 133.793V142.187L280.998 150.813Z" fill="#3692E7"/>
<path d="M118.309 207.074H188.988V108.204L118.309 94.9512V207.074Z" fill="#3692E7"/>
<path d="M126.962 99.5602V85.8438H180.321V109.93L126.962 99.5602Z" fill="#3692E7"/>
<path d="M131.253 87.0398V65.4108L176.03 59.9609V87.0398H131.253Z" fill="#3692E7"/>
<path d="M111.211 139.951H57.5281V209.479H111.211V139.951Z" fill="#3692E7"/>
<path d="M106.632 132.742H62.0991V140.194H106.632V132.742Z" fill="#3692E7"/>
<path d="M77.858 124.301H65.915V133.337H77.858V124.301Z" fill="#3692E7"/>
<path d="M376.449 208.438H463.729V122.201L376.449 109.635V208.438Z" fill="#3692E7"/>
<path d="M471.878 207.345H518.225V72.5205L471.878 60.3242V207.345Z" fill="#3692E7"/>
<path d="M1556.51 167.008H1513.4V204.627H1556.51V167.008Z" fill="#3692E7"/>
<path d="M1517.7 148.195H1466V203.988H1517.7V148.195Z" fill="#3692E7"/>
<path d="M1212.53 146.283H1124.64V202.076H1212.53V146.283Z" fill="#3692E7"/>
<path d="M1206.7 140.451H1130.45V146.934H1206.7V140.451Z" fill="#3692E7"/>
<path d="M1201.53 134.477H1135.62V140.834H1201.53V134.477Z" fill="#3692E7"/>
<path d="M1118.13 95.1133H1034.55V202.074H1118.13V95.1133Z" fill="#3692E7"/>
<path d="M1040.49 146.48H956.91V202.076H1040.49V146.48Z" fill="#3692E7"/>
<path d="M945.82 91.0938H896.674V202.713H945.82V91.0938Z" fill="#3692E7"/>
<path d="M943.46 83.1348H936.04V92.8976H943.46V83.1348Z" fill="#3692E7"/>
<path d="M906.443 83.1348H899.028V92.8976H906.443V83.1348Z" fill="#3692E7"/>
<path d="M907.94 159.852H858.793V202.713H907.94V159.852Z" fill="#3692E7"/>
<path d="M854.589 53.2227H805.441V202.711H854.589V53.2227Z" fill="#3692E7"/>
<path d="M267.025 126.424H200.039V214.593H267.025V126.424Z" fill="#3692E7"/>
<path d="M709.414 102.766H630.435V201.225H709.414V102.766Z" fill="#3692E7"/>
<path d="M526.979 203.99H619.917V83.6777L526.979 94.7345V203.99Z" fill="#3692E7"/>
<path d="M1114.15 87.7773H1038.54V95.9108H1114.15V87.7773Z" fill="#3692E7"/>
<path d="M1110.49 80.9258H1042.19V89.0513H1110.49V80.9258Z" fill="#3692E7"/>
<path d="M1045.83 82.8398H1106.85V77.7387L1045.83 74.709V82.8398Z" fill="#3692E7"/>
<path d="M1381.52 201.755H1433.21V51.5898L1381.52 56.3714V201.755Z" fill="#3692E7"/>
<path d="M1298.78 201.756H1377.19V122.133L1298.78 119.5V201.756Z" fill="#3692E7"/>
<path d="M1292.01 28H1221.02V202.23H1292.01V28Z" fill="#3692E7"/>
<path d="M1460.73 106.109H1438.71V203.27H1460.73V106.109Z" fill="#3692E7"/>
<path d="M797.652 131.275H716.758V202.712H797.652V131.275Z" fill="#3692E7"/>
<path d="M793.534 134.022C793.534 126.605 777.265 120.588 757.208 120.588C737.152 120.588 720.89 126.605 720.89 134.022H793.534Z" fill="#3692E7"/>
<path d="M210.124 174.967H163.223V207.488H210.124V174.967Z" fill="#3692E7"/>
<path d="M1595.74 200.756H-24.2014V248.58H1595.74V200.756Z" fill="#3692E7"/>
<path d="M142.044 121.924H78.7649V228.317H142.044V121.924Z" fill="#0566A3"/>
<path d="M135.716 119.17H85.0859V122.453H135.716V119.17Z" fill="#0566A3"/>
<path d="M430.535 162.016H350.475V230.454H430.535V162.016Z" fill="#0566A3"/>
<path d="M375.052 157.566H354.319V162.51H375.052V157.566Z" fill="#0566A3"/>
<path d="M426.697 157.566H384.346V162.51H426.697V157.566Z" fill="#0566A3"/>
<path d="M199.592 190.115H145.838V228.395H199.592V190.115Z" fill="#0566A3"/>
<path d="M162.352 187.625H148.422V190.391H162.352V187.625Z" fill="#0566A3"/>
<path d="M197.015 187.625H168.579V190.391H197.015V187.625Z" fill="#0566A3"/>
<path d="M21.274 103.768H-17.3481V228.023H21.274V103.768Z" fill="#0566A3"/>
<path d="M47.212 134.834H8.58252V228.022H47.212V134.834Z" fill="#0566A3"/>
<path d="M74.2589 176.92H35.6289V228.024H74.2589V176.92Z" fill="#0566A3"/>
<path d="M242.671 168.418H207.9V229.506H242.671V168.418Z" fill="#0566A3"/>
<path d="M278.111 148.383H231.296V229.505H278.111V148.383Z" fill="#0566A3"/>
<path d="M833.021 90.8711H786.206V225.147H833.021V90.8711Z" fill="#0566A3"/>
<path d="M964.39 187.02H917.572V224.569H964.39V187.02Z" fill="#0566A3"/>
<path d="M914.318 164.797H867.496V224.567H914.318V164.797Z" fill="#0566A3"/>
<path d="M1013.87 134.297H967.06V224.567H1013.87V134.297Z" fill="#0566A3"/>
<path d="M1139.31 223.406H1069.56V107.646L1139.31 100.021V223.406Z" fill="#0566A3"/>
<path d="M1127.98 108.952V89.6984L1080.9 84.5547V108.952H1127.98Z" fill="#0566A3"/>
<path d="M1065.7 224.055H1018.88V147.73L1065.7 154.591V224.055Z" fill="#0566A3"/>
<path d="M1009.74 129.941H971.18V134.811H1009.74V129.941Z" fill="#0566A3"/>
<path d="M864.25 144.318H836.267V224.565H864.25V144.318Z" fill="#0566A3"/>
<path d="M359.027 176.826H283.46V229.506H359.027V176.826Z" fill="#0566A3"/>
<path d="M490.768 190.924H434.595V227.031H490.768V190.924Z" fill="#0566A3"/>
<path d="M462.678 170.643H434.595V206.749H462.678V170.643Z" fill="#0566A3"/>
<path d="M512.171 173.945H495.671V225.361H512.171V173.945Z" fill="#0566A3"/>
<path d="M529.016 191.375H518.11V225.36H529.016V191.375Z" fill="#0566A3"/>
<path d="M577.667 182.953H535.423V225.362H577.667V182.953Z" fill="#0566A3"/>
<path d="M616.793 180.852H580.525V225.358H616.793V180.852Z" fill="#0566A3"/>
<path d="M614.777 178.414H582.547V181.196H614.777V178.414Z" fill="#0566A3"/>
<path d="M612.913 176.861H584.412V179.321H612.913V176.861Z" fill="#0566A3"/>
<path d="M677.113 169.01H621.335V225.071H677.113V169.01Z" fill="#0566A3"/>
<path d="M781.973 190.684H726.786V224.418H781.973V190.684Z" fill="#0566A3"/>
<path d="M776.66 187.42H732.091V191.086H776.66V187.42Z" fill="#0566A3"/>
<path d="M772.535 183.709H736.209V187.378H772.535V183.709Z" fill="#0566A3"/>
<path d="M679.467 166.469H618.981V169.879H679.467V166.469Z" fill="#0566A3"/>
<path d="M677.998 167.156H620.457L649.224 139.092L677.998 167.156Z" fill="#0566A3"/>
<path d="M724.525 203.504H681.533V226.813H724.525V203.504Z" fill="#0566A3"/>
<path d="M1186.96 125.922L1145.22 118.758V125.922V223.33H1186.96H1197.85V125.922H1186.96Z" fill="#0566A3"/>
<path d="M1431.62 74.2417L1389.88 63.2754V74.2417V223.328H1431.62H1442.51L1431.62 74.2417Z" fill="#0566A3"/>
<path d="M1598.41 222.422H-21.6099V252.294H1598.41V222.422Z" fill="#0566A3"/>
<path d="M1305.65 164.068H1205.51V225.939H1305.65V164.068Z" fill="#0566A3"/>
<path d="M1217.87 155.792C1217.87 148.09 1234.76 141.85 1255.58 141.85C1276.4 141.85 1293.27 148.09 1293.27 155.792H1217.87Z" fill="#0566A3"/>
<path d="M1299.16 155.137H1211.98V164.724H1299.16V155.137Z" fill="#0566A3"/>
<path d="M1382.82 225.288H1315.08V94.8884H1341.17L1382.82 86.9492V225.288Z" fill="#0566A3"/>
<path d="M1515.35 135.527H1448.2V224.847H1515.35V135.527Z" fill="#0566A3"/>
<path d="M1589.18 187.092H1522.02V224.852H1589.18V187.092Z" fill="#0566A3"/>
<path d="M1576.23 180.41H1534.99V218.173H1576.23V180.41Z" fill="#0566A3"/>
<path d="M1530.28 172.277H1522.02V210.038H1530.28V172.277Z" fill="#0566A3"/>
<path d="M1589.19 172.277H1580.93V210.038H1589.19V172.277Z" fill="#0566A3"/>
<path d="M1508.68 132.336H1454.87V136.111H1508.68V132.336Z" fill="#0566A3"/>
<path d="M1503.54 128.742H1460.03V132.517H1503.54V128.742Z" fill="#0566A3"/>
<path d="M202.99 255.858H139.618V189.784C142.793 188.996 163.727 173.762 202.99 173.762V255.858Z" fill="#549BD0"/>
<path d="M427.785 255.86H376.888V171.087L389.306 158.186L427.785 171.087V255.86Z" fill="#549BD0"/>
<path d="M65.699 163.348L67.182 169.964V255.859H137.134V169.964L138.632 163.348H65.699Z" fill="#549BD0"/>
<path d="M125.234 147.76H79.082V164.884H125.234V147.76Z" fill="#3692E7"/>
<path d="M496.124 255.86H425.963V187.852L496.124 185.965V255.86Z" fill="#549BD0"/>
<path d="M485.527 188.54V181.609L431.254 183.494V188.54H485.527Z" fill="#549BD0"/>
<path d="M769.188 168.318V255.859H694.059V159.828H718.327L740.874 168.318H769.188Z" fill="#549BD0"/>
<path d="M264.109 199.881L238.402 195.342H210.765V255.86H296.44V199.881H264.109Z" fill="#549BD0"/>
<path d="M368.674 164.229V255.859H320.779V140.656H342.585L368.674 164.229Z" fill="#3692E7"/>
<path d="M329.288 154.305V255.86H306.094V174.885L320.779 161.847L329.288 154.305Z" fill="#549BD0"/>
<path d="M59.8821 192.075V255.86H-2.698V179.006H23.3121L42.8781 186L44.1961 186.458L54.6061 190.182L55.8371 190.64L59.8821 192.075Z" fill="#549BD0"/>
<path d="M580.877 205.586H504.799V255.859H580.877V205.586Z" fill="#549BD0"/>
<path d="M577.314 200.217H508.362V205.962H577.314V200.217Z" fill="#549BD0"/>
<path d="M547.697 202.134H537.986V179.283L547.697 180.495V202.134Z" fill="#549BD0"/>
<path d="M-1.12891 166.742C-1.12891 166.742 7.75459 174.633 19.8992 179.564H-0.545807L-1.12891 166.742Z" fill="#549BD0"/>
<path d="M760.39 169.482L761.722 112.934H762.615L763.947 169.482H760.39Z" fill="#549BD0"/>
<path d="M541.067 180.661L542.629 158.633H543.054L544.616 180.661H541.067Z" fill="#549BD0"/>
<path d="M121.124 148.22H83.1919V143.619L121.124 141.867V148.22Z" fill="#549BD0"/>
<path d="M219.317 196.66C221.34 185.697 221.995 172.033 222.463 160.99C222.607 157.026 222.636 153.064 222.607 149.1C222.6 148.983 223.14 148.967 223.133 149.1C222.982 160.077 223.795 173.737 224.774 184.77C225.221 188.734 225.681 192.696 226.423 196.66C226.56 197.387 225.077 198.015 223.111 198.066C220.973 198.127 219.145 197.451 219.31 196.66H219.317Z" fill="#549BD0"/>
<path d="M44.1959 186.458V255.772H42.8779V186L44.1959 186.458Z" fill="#03276D"/>
<path d="M59.8901 193.359H43.7061V193.817H59.8901V193.359Z" fill="#03276D"/>
<path d="M55.8371 190.642H43.7061V190.184H54.6061L55.8371 190.642Z" fill="#03276D"/>
<path d="M59.8901 196.506H43.7061V196.996H59.8901V196.506Z" fill="#03276D"/>
<path d="M59.8901 199.68H43.7061V200.167H59.8901V199.68Z" fill="#03276D"/>
<path d="M59.8901 202.855H43.7061V203.34H59.8901V202.855Z" fill="#03276D"/>
<path d="M59.8901 206.033H43.7061V206.488H59.8901V206.033Z" fill="#03276D"/>
<path d="M59.8901 209.207H43.7061V209.662H59.8901V209.207Z" fill="#03276D"/>
<path d="M59.8901 212.379H43.7061V212.837H59.8901V212.379Z" fill="#03276D"/>
<path d="M59.8901 215.557H43.7061V216.015H59.8901V215.557Z" fill="#03276D"/>
<path d="M59.8901 218.732H43.7061V219.19H59.8901V218.732Z" fill="#03276D"/>
<path d="M59.8901 221.879H43.7061V222.369H59.8901V221.879Z" fill="#03276D"/>
<path d="M59.8901 225.051H43.7061V225.541H59.8901V225.051Z" fill="#03276D"/>
<path d="M59.8901 228.229H43.7061V228.718H59.8901V228.229Z" fill="#03276D"/>
<path d="M59.8901 231.404H43.7061V231.894H59.8901V231.404Z" fill="#03276D"/>
<path d="M59.8901 234.582H43.7061V235.04H59.8901V234.582Z" fill="#03276D"/>
<path d="M59.8901 237.758H43.7061V238.216H59.8901V237.758Z" fill="#03276D"/>
<path d="M59.8901 240.93H43.7061V241.385H59.8901V240.93Z" fill="#03276D"/>
<path d="M59.8901 244.107H43.7061V244.563H59.8901V244.107Z" fill="#03276D"/>
<path d="M59.8901 247.254H43.7061V247.741H59.8901V247.254Z" fill="#03276D"/>
<path d="M114.99 166.109H70.53V166.607H114.99V166.109Z" fill="#03276D"/>
<path d="M200.37 190.191H142.238V190.45H200.37V190.191Z" fill="#03276D"/>
<path d="M360.33 176.961H306.094V177.206H360.33V176.961Z" fill="#03276D"/>
<path d="M368.681 182.059H313.94V182.304H368.681V182.059Z" fill="#03276D"/>
<path d="M339.36 192.473H306.094V192.747H339.36V192.473Z" fill="#03276D"/>
<path d="M368.674 202.518H315.668V202.792H368.674V202.518Z" fill="#03276D"/>
<path d="M349.028 215.893H306.094V216.138H349.028V215.893Z" fill="#03276D"/>
<path d="M368.674 226.182H315.25V226.456H368.674V226.182Z" fill="#03276D"/>
<path d="M356.205 236.625H306.094V236.899H356.205V236.625Z" fill="#03276D"/>
<path d="M368.674 246.029H315.999V246.304H368.674V246.029Z" fill="#03276D"/>
<path d="M200.37 195.916H142.238V196.174H200.37V195.916Z" fill="#03276D"/>
<path d="M200.37 201.641H142.238V201.899H200.37V201.641Z" fill="#03276D"/>
<path d="M200.37 207.369H142.238V207.627H200.37V207.369Z" fill="#03276D"/>
<path d="M200.37 213.092H142.238V213.35H200.37V213.092Z" fill="#03276D"/>
<path d="M200.37 218.814H142.238V219.073H200.37V218.814Z" fill="#03276D"/>
<path d="M200.37 224.543H142.238V224.801H200.37V224.543Z" fill="#03276D"/>
<path d="M200.37 230.266H142.238V230.524H200.37V230.266Z" fill="#03276D"/>
<path d="M200.37 235.992H142.238V236.25H200.37V235.992Z" fill="#03276D"/>
<path d="M200.37 241.719H142.238V241.977H200.37V241.719Z" fill="#03276D"/>
<path d="M200.37 247.441H142.238V247.7H200.37V247.441Z" fill="#03276D"/>
<path d="M132.534 171.523H88.073V172.021H132.534V171.523Z" fill="#03276D"/>
<path d="M114.99 176.941H70.53V177.439H114.99V176.941Z" fill="#03276D"/>
<path d="M132.534 182.355H88.073V182.853H132.534V182.355Z" fill="#03276D"/>
<path d="M114.99 187.771H70.53V188.269H114.99V187.771Z" fill="#03276D"/>
<path d="M132.534 193.191H88.073V193.689H132.534V193.191Z" fill="#03276D"/>
<path d="M114.99 198.605H70.53V199.103H114.99V198.605Z" fill="#03276D"/>
<path d="M132.534 204.023H88.073V204.521H132.534V204.023Z" fill="#03276D"/>
<path d="M114.99 209.439H70.53V209.937H114.99V209.439Z" fill="#03276D"/>
<path d="M132.534 214.852H88.073V215.349H132.534V214.852Z" fill="#03276D"/>
<path d="M114.99 220.27H70.53V220.767H114.99V220.27Z" fill="#03276D"/>
<path d="M132.534 225.686H88.073V226.183H132.534V225.686Z" fill="#03276D"/>
<path d="M114.99 231.104H70.53V231.601H114.99V231.104Z" fill="#03276D"/>
<path d="M132.534 236.518H88.073V237.015H132.534V236.518Z" fill="#03276D"/>
<path d="M114.99 241.936H70.53V242.433H114.99V241.936Z" fill="#03276D"/>
<path d="M586.989 251.638H683.117V191.223L685.183 184.607H584.952L586.989 191.223V251.638Z" fill="#549BD0"/>
<path d="M666.761 169.02H603.338V186.144H666.761V169.02Z" fill="#549BD0"/>
<path d="M661.117 169.479H608.989V164.879L661.117 163.127V169.479Z" fill="#549BD0"/>
<path d="M652.68 187.367H591.582V187.865H652.68V187.367Z" fill="#03276D"/>
<path d="M676.796 192.783H615.699V193.281H676.796V192.783Z" fill="#03276D"/>
<path d="M652.68 198.201H591.582V198.699H652.68V198.201Z" fill="#03276D"/>
<path d="M676.796 203.615H615.699V204.113H676.796V203.615Z" fill="#03276D"/>
<path d="M652.68 209.031H591.582V209.529H652.68V209.031Z" fill="#03276D"/>
<path d="M676.796 214.449H615.699V214.947H676.796V214.449Z" fill="#03276D"/>
<path d="M652.68 219.865H591.582V220.363H652.68V219.865Z" fill="#03276D"/>
<path d="M676.796 225.279H615.699V225.777H676.796V225.279Z" fill="#03276D"/>
<path d="M652.68 230.699H591.582V231.197H652.68V230.699Z" fill="#03276D"/>
<path d="M676.796 236.111H615.699V236.609H676.796V236.111Z" fill="#03276D"/>
<path d="M652.68 241.527H591.582V242.025H652.68V241.527Z" fill="#03276D"/>
<path d="M676.796 246.947H615.699V247.445H676.796V246.947Z" fill="#03276D"/>
<path d="M132.534 247.352H88.073V247.849H132.534V247.352Z" fill="#03276D"/>
<path d="M254.232 209.561H213.645V210.237H254.232V209.561Z" fill="#03276D"/>
<path d="M292.077 217.959H251.49V218.635H292.077V217.959Z" fill="#03276D"/>
<path d="M261.46 226.104H220.872V226.78H261.46V226.104Z" fill="#03276D"/>
<path d="M289.673 244.17H249.085V244.846H289.673V244.17Z" fill="#03276D"/>
<path d="M424.178 179.264H380.833V179.639H424.178V179.264Z" fill="#03276D"/>
<path d="M424.178 186.131H380.833V186.506H424.178V186.131Z" fill="#03276D"/>
<path d="M424.178 193.004H380.833V193.379H424.178V193.004Z" fill="#03276D"/>
<path d="M424.178 199.873H380.833V200.248H424.178V199.873Z" fill="#03276D"/>
<path d="M424.178 206.742H380.833V207.118H424.178V206.742Z" fill="#03276D"/>
<path d="M424.178 213.613H380.833V213.989H424.178V213.613Z" fill="#03276D"/>
<path d="M424.178 220.48H380.833V220.856H424.178V220.48Z" fill="#03276D"/>
<path d="M424.178 227.354H380.833V227.729H424.178V227.354Z" fill="#03276D"/>
<path d="M424.178 234.223H380.833V234.598H424.178V234.223Z" fill="#03276D"/>
<path d="M424.178 241.094H380.833V241.469H424.178V241.094Z" fill="#03276D"/>
<path d="M424.178 247.963H380.833V248.338H424.178V247.963Z" fill="#03276D"/>
<path d="M554.911 209.287H511.566V209.662H554.911V209.287Z" fill="#03276D"/>
<path d="M572.109 226.209H528.764V226.584H572.109V226.209Z" fill="#03276D"/>
<path d="M552.499 241.477H509.154V241.852H552.499V241.477Z" fill="#03276D"/>
<path d="M728.283 171.516H697.32V171.886H728.283V171.516Z" fill="#03276D"/>
<path d="M728.283 174.443H697.32V174.813H728.283V174.443Z" fill="#03276D"/>
<path d="M728.283 177.365H697.32V177.735H728.283V177.365Z" fill="#03276D"/>
<path d="M728.283 180.291H697.32V180.661H728.283V180.291Z" fill="#03276D"/>
<path d="M728.283 183.219H697.32V183.589H728.283V183.219Z" fill="#03276D"/>
<path d="M728.283 186.141H697.32V186.511H728.283V186.141Z" fill="#03276D"/>
<path d="M728.283 189.068H697.32V189.438H728.283V189.068Z" fill="#03276D"/>
<path d="M728.283 191.992H697.32V192.362H728.283V191.992Z" fill="#03276D"/>
<path d="M728.283 194.92H697.32V195.29H728.283V194.92Z" fill="#03276D"/>
<path d="M728.283 197.84H697.32V198.21H728.283V197.84Z" fill="#03276D"/>
<path d="M728.283 200.768H697.32V201.138H728.283V200.768Z" fill="#03276D"/>
<path d="M728.283 203.693H697.32V204.063H728.283V203.693Z" fill="#03276D"/>
<path d="M728.283 206.617H697.32V206.987H728.283V206.617Z" fill="#03276D"/>
<path d="M728.283 209.543H697.32V209.913H728.283V209.543Z" fill="#03276D"/>
<path d="M728.283 212.469H697.32V212.839H728.283V212.469Z" fill="#03276D"/>
<path d="M728.283 215.395H697.32V215.765H728.283V215.395Z" fill="#03276D"/>
<path d="M728.283 218.318H697.32V218.688H728.283V218.318Z" fill="#03276D"/>
<path d="M728.283 221.242H697.32V221.612H728.283V221.242Z" fill="#03276D"/>
<path d="M728.283 224.168H697.32V224.538H728.283V224.168Z" fill="#03276D"/>
<path d="M728.283 227.094H697.32V227.464H728.283V227.094Z" fill="#03276D"/>
<path d="M728.283 230.018H697.32V230.388H728.283V230.018Z" fill="#03276D"/>
<path d="M728.283 232.945H697.32V233.315H728.283V232.945Z" fill="#03276D"/>
<path d="M728.283 235.871H697.32V236.241H728.283V235.871Z" fill="#03276D"/>
<path d="M728.283 238.795H697.32V239.165H728.283V238.795Z" fill="#03276D"/>
<path d="M728.283 241.721H697.32V242.091H728.283V241.721Z" fill="#03276D"/>
<path d="M728.283 244.645H697.32V245.015H728.283V244.645Z" fill="#03276D"/>
<path d="M728.283 247.572H697.32V247.942H728.283V247.572Z" fill="#03276D"/>
<path d="M744.502 168.318H742.688V251.493H744.502V168.318Z" fill="#03276D"/>
<path d="M755.149 168.318H753.335V251.493H755.149V168.318Z" fill="#03276D"/>
<path d="M765.804 168.318H763.99V251.493H765.804V168.318Z" fill="#03276D"/>
<path d="M1425.23 138.643H1414V151.6H1425.23V138.643Z" fill="#549BD0"/>
<path d="M1448.72 143.688H1423.46V151.603H1448.72V143.688Z" fill="#549BD0"/>
<path d="M1459.77 141.424H1447.41V151.602H1459.77V141.424Z" fill="#549BD0"/>
<path d="M1469.49 145.256H1457.13V151.6H1469.49V145.256Z" fill="#549BD0"/>
<path d="M999.27 249.975V144.537C959.98 144.537 939.07 166.768 935.87 167.915V249.977H999.27V249.975Z" fill="#549BD0"/>
<path d="M1593.99 249.976V181.418L1506.37 183.556V249.976H1593.99Z" fill="#549BD0"/>
<path d="M1550.21 249.975V190.783L1474.11 192.644V249.975H1550.21Z" fill="#549BD0"/>
<path d="M1390.98 248.96V175.556C1390.98 174.427 1389.24 173.237 1386.27 172.106C1385.69 171.861 1385.04 171.648 1384.29 171.403C1379.92 169.968 1373.73 168.565 1367.36 167.375V138.304C1367.36 131.223 1337.06 123.558 1322.28 121.236C1321.54 121.114 1320.88 121.02 1320.3 120.933C1318.23 120.658 1316.67 120.504 1315.59 120.504V248.963H1390.98V248.96Z" fill="#549BD0"/>
<path d="M1208.76 249.974V181.453L1093.9 168.373V249.974H1208.76Z" fill="#549BD0"/>
<path d="M1191.59 181.526V171.67L1111.07 162.498V181.526H1191.59Z" fill="#549BD0"/>
<path d="M1306.72 249.976C1305.22 235.636 1293.53 155.302 1220.78 151.609V249.976H1306.72Z" fill="#549BD0"/>
<path d="M1477.59 150.824H1405.92V249.968H1477.59V150.824Z" fill="#549BD0"/>
<path d="M801.885 198.066H766.459V249.974H801.885V198.066Z" fill="#549BD0"/>
<path d="M776.761 185.721H766.459V199.017H776.761V185.721Z" fill="#549BD0"/>
<path d="M794.261 191.133H780.144V200.547H794.261V191.133Z" fill="#549BD0"/>
<path d="M846.699 174.561H798.768V249.977H846.699V174.561Z" fill="#549BD0"/>
<path d="M923.82 210.018H855.035V249.977H923.82V210.018Z" fill="#549BD0"/>
<path d="M918.595 200.57H860.247V210.687H918.595V200.57Z" fill="#549BD0"/>
<path d="M913.908 196.625H864.941V200.858H913.908V196.625Z" fill="#549BD0"/>
<path d="M911.561 193.443H867.281V197.684H911.561V193.443Z" fill="#549BD0"/>
<path d="M1079.07 192.674H990.5V249.976H1079.07V192.674Z" fill="#549BD0"/>
<path d="M1059.46 177.646H1010.09V211.557H1059.46V177.646Z" fill="#549BD0"/>
<path d="M1545.23 184.588L1547.37 133.308C1547.37 132.986 1548.8 132.96 1548.8 133.308L1550.95 184.588C1550.99 185.978 1545.19 186.004 1545.23 184.588Z" fill="#549BD0"/>
<path d="M1148.47 174.473L1150.62 138.717C1150.62 138.393 1152.05 138.374 1152.05 138.717L1154.19 174.473C1154.26 175.876 1148.41 175.895 1148.47 174.473Z" fill="#549BD0"/>
<path d="M1155.45 138.719C1155.45 139.563 1153.6 140.244 1151.34 140.244C1149.07 140.244 1147.19 139.56 1147.19 138.719C1147.19 137.878 1149.05 137.193 1151.34 137.193C1153.63 137.193 1155.45 137.875 1155.45 138.719Z" fill="#549BD0"/>
<path d="M1552.22 133.309C1552.22 134.15 1550.36 134.834 1548.09 134.834C1545.82 134.834 1543.97 134.147 1543.97 133.309C1543.97 132.47 1545.81 131.783 1548.09 131.783C1550.37 131.783 1552.22 132.465 1552.22 133.309Z" fill="#549BD0"/>
<path d="M808.594 177.295H804.973L806.024 133.311H807.565L808.594 177.295Z" fill="#549BD0"/>
<path d="M843.689 162.357H815.066V175.06H843.689V162.357Z" fill="#549BD0"/>
<path d="M842.746 177.207H801.719V177.588H842.746V177.207Z" fill="#03276D"/>
<path d="M842.746 181.592H801.719V181.973H842.746V181.592Z" fill="#03276D"/>
<path d="M842.746 185.982H801.719V186.363H842.746V185.982Z" fill="#03276D"/>
<path d="M842.746 190.375H801.719V190.756H842.746V190.375Z" fill="#03276D"/>
<path d="M842.746 194.762H801.719V195.142H842.746V194.762Z" fill="#03276D"/>
<path d="M842.746 199.152H801.719V199.533H842.746V199.152Z" fill="#03276D"/>
<path d="M842.746 203.541H801.719V203.922H842.746V203.541Z" fill="#03276D"/>
<path d="M842.746 207.93H801.719V208.31H842.746V207.93Z" fill="#03276D"/>
<path d="M842.746 212.32H801.719V212.701H842.746V212.32Z" fill="#03276D"/>
<path d="M842.746 216.711H801.719V217.092H842.746V216.711Z" fill="#03276D"/>
<path d="M842.746 221.096H801.719V221.476H842.746V221.096Z" fill="#03276D"/>
<path d="M842.746 225.488H801.719V225.869H842.746V225.488Z" fill="#03276D"/>
<path d="M842.746 229.875H801.719V230.256H842.746V229.875Z" fill="#03276D"/>
<path d="M842.746 234.266H801.719V234.646H842.746V234.266Z" fill="#03276D"/>
<path d="M842.746 238.654H801.719V239.035H842.746V238.654Z" fill="#03276D"/>
<path d="M842.746 243.043H801.719V243.424H842.746V243.043Z" fill="#03276D"/>
<path d="M874.998 212.416H859.001V212.988H874.998V212.416Z" fill="#03276D"/>
<path d="M920.409 215.514H895.637V216.086H920.409V215.514Z" fill="#03276D"/>
<path d="M874.998 218.613H859.001V219.186H874.998V218.613Z" fill="#03276D"/>
<path d="M918.083 227.922H902.087V228.494H918.083V227.922Z" fill="#03276D"/>
<path d="M878.863 231.023H862.867V231.596H878.863V231.023Z" fill="#03276D"/>
<path d="M910.604 234.123H894.608V234.695H910.604V234.123Z" fill="#03276D"/>
<path d="M879.382 237.223H863.386V237.795H879.382V237.223Z" fill="#03276D"/>
<path d="M910.856 240.326H894.859V240.899H910.856V240.326Z" fill="#03276D"/>
<path d="M894.859 243.428H878.863V244H894.859V243.428Z" fill="#03276D"/>
<path d="M920.409 221.717H895.637V222.289H920.409V221.717Z" fill="#03276D"/>
<path d="M895.896 224.818H871.125V225.391H895.896V224.818Z" fill="#03276D"/>
<path d="M993.68 169.381H941.47V169.953H993.68V169.381Z" fill="#03276D"/>
<path d="M993.68 177.875H941.47V178.447H993.68V177.875Z" fill="#03276D"/>
<path d="M993.68 186.365H941.47V186.938H993.68V186.365Z" fill="#03276D"/>
<path d="M993.68 194.857H941.47V195.43H993.68V194.857Z" fill="#03276D"/>
<path d="M993.68 203.35H941.47V203.922H993.68V203.35Z" fill="#03276D"/>
<path d="M993.68 211.844H941.47V212.416H993.68V211.844Z" fill="#03276D"/>
<path d="M993.68 220.334H941.47V220.906H993.68V220.334Z" fill="#03276D"/>
<path d="M993.68 228.826H941.47V229.399H993.68V228.826Z" fill="#03276D"/>
<path d="M993.68 237.318H941.47V237.891H993.68V237.318Z" fill="#03276D"/>
<path d="M1057.15 195.162H1005.55V195.798H1057.15V195.162Z" fill="#03276D"/>
<path d="M1075.03 200.42H1023.43V201.056H1075.03V200.42Z" fill="#03276D"/>
<path d="M1057.15 205.678H1005.55V206.314H1057.15V205.678Z" fill="#03276D"/>
<path d="M1075.03 210.928H1023.43V211.564H1075.03V210.928Z" fill="#03276D"/>
<path d="M1057.15 216.182H1005.55V216.821H1057.15V216.182Z" fill="#03276D"/>
<path d="M1075.03 221.438H1023.43V222.076H1075.03V221.438Z" fill="#03276D"/>
<path d="M1057.15 226.695H1005.55V227.332H1057.15V226.695Z" fill="#03276D"/>
<path d="M1075.03 231.947H1023.43V232.584H1075.03V231.947Z" fill="#03276D"/>
<path d="M1057.15 237.203H1005.55V237.839H1057.15V237.203Z" fill="#03276D"/>
<path d="M1075.03 242.459H1023.43V243.095H1075.03V242.459Z" fill="#03276D"/>
<path d="M1122.17 177.969H1100.5V178.541H1122.17V177.969Z" fill="#03276D"/>
<path d="M1253.76 163.928H1226.75V164.391H1253.76V163.928Z" fill="#03276D"/>
<path d="M1253.76 168.912H1226.75V169.375H1253.76V168.912Z" fill="#03276D"/>
<path d="M1253.76 173.9H1226.75V174.358H1253.76V173.9Z" fill="#03276D"/>
<path d="M1253.76 178.879H1226.75V179.337H1253.76V178.879Z" fill="#03276D"/>
<path d="M1253.76 183.863H1226.75V184.327H1253.76V183.863Z" fill="#03276D"/>
<path d="M1253.76 188.844H1226.75V189.304H1253.76V188.844Z" fill="#03276D"/>
<path d="M1253.76 193.832H1226.75V194.29H1253.76V193.832Z" fill="#03276D"/>
<path d="M1253.76 198.814H1226.75V199.272H1253.76V198.814Z" fill="#03276D"/>
<path d="M1253.76 203.797H1226.75V204.257H1253.76V203.797Z" fill="#03276D"/>
<path d="M1253.76 208.779H1226.75V209.243H1253.76V208.779Z" fill="#03276D"/>
<path d="M1253.76 213.766H1226.75V214.224H1253.76V213.766Z" fill="#03276D"/>
<path d="M1253.76 218.75H1226.75V219.213H1253.76V218.75Z" fill="#03276D"/>
<path d="M1253.76 223.729H1226.75V224.189H1253.76V223.729Z" fill="#03276D"/>
<path d="M1253.76 228.715H1226.75V229.173H1253.76V228.715Z" fill="#03276D"/>
<path d="M1253.76 233.697H1226.75V234.155H1253.76V233.697Z" fill="#03276D"/>
<path d="M1253.76 238.682H1226.75V239.142H1253.76V238.682Z" fill="#03276D"/>
<path d="M1253.76 243.664H1226.75V244.127H1253.76V243.664Z" fill="#03276D"/>
<path d="M1162.94 187.605H1141.27V188.178H1162.94V187.605Z" fill="#03276D"/>
<path d="M1195.96 200.965H1174.29V201.537H1195.96V200.965Z" fill="#03276D"/>
<path d="M1136.62 204.781H1114.95V205.354H1136.62V204.781Z" fill="#03276D"/>
<path d="M1192.87 215.277H1171.19V215.85H1192.87V215.277Z" fill="#03276D"/>
<path d="M1141.27 222.719H1119.59V223.291H1141.27V222.719Z" fill="#03276D"/>
<path d="M1176.87 236.078H1155.2V236.651H1176.87V236.078Z" fill="#03276D"/>
<path d="M1137.65 240.85H1115.98V241.422H1137.65V240.85Z" fill="#03276D"/>
<path d="M1322.28 248.957V121.233C1321.54 121.111 1320.88 121.017 1320.3 120.93V248.957H1322.28Z" fill="#03276D"/>
<path d="M1386.27 248.956V172.101C1385.69 171.856 1385.04 171.643 1384.29 171.398V248.956H1386.27Z" fill="#03276D"/>
<path d="M1416.08 150.824H1414.26V249.968H1416.08V150.824Z" fill="#03276D"/>
<path d="M1426.65 150.824H1424.82V249.968H1426.65V150.824Z" fill="#03276D"/>
<path d="M1437.21 150.824H1435.39V249.968H1437.21V150.824Z" fill="#03276D"/>
<path d="M1447.78 150.824H1445.97V249.968H1447.78V150.824Z" fill="#03276D"/>
<path d="M1458.35 150.824H1456.53V249.968H1458.35V150.824Z" fill="#03276D"/>
<path d="M1468.91 150.824H1467.1V249.968H1468.91V150.824Z" fill="#03276D"/>
<path d="M1646.28 258H-76.2787C-79.3094 258 -80.0653 256.445 -77.2289 256.054L-24.9574 248.836H1594.96L1647.23 256.054C1650.07 256.445 1649.31 258 1646.28 258Z" fill="#549BD0"/>
</g>
</g>
<defs>
<clipPath id="clip0_10_462">
<rect width="1583" height="249" fill="white"/>
</clipPath>
</defs>
</svg>
