<svg width="1728" height="249" viewBox="0 0 1728 249" fill="none" xmlns="http://www.w3.org/2000/svg">
<rect width="1728" height="249" fill="white"/>
<g opacity="0.56">
<path d="M62.0479 181.244H129.74V65.7266L62.0479 75.2844V181.244Z" fill="#C6D5DB"/>
<path d="M86.7834 69.0946V58.5943L129.74 49.0391V69.0946H86.7834Z" fill="#C6D5DB"/>
<path d="M74.4156 75.9859V68.699L129.74 59.1465V75.9859H74.4156Z" fill="#C6D5DB"/>
<path d="M352.583 180.984H437.343V112.697L352.583 122.974V180.984Z" fill="#C6D5DB"/>
<path d="M359.998 122.813V114.278L429.929 105.793V114.187L359.998 122.813Z" fill="#C6D5DB"/>
<path d="M197.309 179.074H267.988V80.2044L197.309 66.9512V179.074Z" fill="#C6D5DB"/>
<path d="M205.962 71.5602V57.8438H259.321V81.9301L205.962 71.5602Z" fill="#C6D5DB"/>
<path d="M210.253 59.0398V37.4108L255.03 31.9609V59.0398H210.253Z" fill="#C6D5DB"/>
<path d="M190.211 111.951H136.528V181.479H190.211V111.951Z" fill="#C6D5DB"/>
<path d="M185.632 104.742H141.099V112.194H185.632V104.742Z" fill="#C6D5DB"/>
<path d="M156.858 96.3008H144.915V105.337H156.858V96.3008Z" fill="#C6D5DB"/>
<path d="M455.449 180.438H542.729V94.2011L455.449 81.6348V180.438Z" fill="#C6D5DB"/>
<path d="M550.878 179.345H597.225V44.5205L550.878 32.3242V179.345Z" fill="#C6D5DB"/>
<path d="M1635.51 139.008H1592.4V176.627H1635.51V139.008Z" fill="#C6D5DB"/>
<path d="M1596.7 120.195H1545V175.988H1596.7V120.195Z" fill="#C6D5DB"/>
<path d="M1291.53 118.283H1203.64V174.076H1291.53V118.283Z" fill="#C6D5DB"/>
<path d="M1285.7 112.451H1209.45V118.934H1285.7V112.451Z" fill="#C6D5DB"/>
<path d="M1280.53 106.477H1214.62V112.834H1280.53V106.477Z" fill="#C6D5DB"/>
<path d="M1197.13 67.1133H1113.55V174.074H1197.13V67.1133Z" fill="#C6D5DB"/>
<path d="M1119.49 118.48H1035.91V174.076H1119.49V118.48Z" fill="#C6D5DB"/>
<path d="M1024.82 63.0938H975.674V174.713H1024.82V63.0938Z" fill="#C6D5DB"/>
<path d="M1022.46 55.1348H1015.04V64.8976H1022.46V55.1348Z" fill="#C6D5DB"/>
<path d="M985.443 55.1348H978.028V64.8976H985.443V55.1348Z" fill="#C6D5DB"/>
<path d="M986.94 131.852H937.793V174.713H986.94V131.852Z" fill="#C6D5DB"/>
<path d="M933.589 25.2227H884.441V174.711H933.589V25.2227Z" fill="#C6D5DB"/>
<path d="M346.025 98.4238H279.039V186.593H346.025V98.4238Z" fill="#C6D5DB"/>
<path d="M788.414 74.7656H709.435V173.225H788.414V74.7656Z" fill="#C6D5DB"/>
<path d="M605.979 175.99H698.917V55.6777L605.979 66.7345V175.99Z" fill="#C6D5DB"/>
<path d="M1193.15 59.7773H1117.54V67.9108H1193.15V59.7773Z" fill="#C6D5DB"/>
<path d="M1189.49 52.9258H1121.19V61.0513H1189.49V52.9258Z" fill="#C6D5DB"/>
<path d="M1124.83 54.8398H1185.85V49.7387L1124.83 46.709V54.8398Z" fill="#C6D5DB"/>
<path d="M1460.52 173.755H1512.21V23.5898L1460.52 28.3714V173.755Z" fill="#C6D5DB"/>
<path d="M1377.78 173.756H1456.19V94.1331L1377.78 91.5V173.756Z" fill="#C6D5DB"/>
<path d="M1371.01 0H1300.02V174.23H1371.01V0Z" fill="#C6D5DB"/>
<path d="M1539.73 78.1094H1517.71V175.27H1539.73V78.1094Z" fill="#C6D5DB"/>
<path d="M876.652 103.275H795.758V174.712H876.652V103.275Z" fill="#C6D5DB"/>
<path d="M872.534 106.022C872.534 98.6048 856.265 92.5879 836.208 92.5879C816.152 92.5879 799.89 98.6048 799.89 106.022H872.534Z" fill="#C6D5DB"/>
<path d="M289.124 146.967H242.223V179.488H289.124V146.967Z" fill="#C6D5DB"/>
<path d="M1674.74 172.756H54.7985V220.58H1674.74V172.756Z" fill="#C6D5DB"/>
<path d="M221.044 93.9238H157.765V200.317H221.044V93.9238Z" fill="#61818F"/>
<path d="M214.716 91.1699H164.086V94.4526H214.716V91.1699Z" fill="#61818F"/>
<path d="M509.535 134.016H429.475V202.454H509.535V134.016Z" fill="#61818F"/>
<path d="M454.052 129.566H433.319V134.51H454.052V129.566Z" fill="#61818F"/>
<path d="M505.697 129.566H463.346V134.51H505.697V129.566Z" fill="#61818F"/>
<path d="M278.592 162.115H224.838V200.395H278.592V162.115Z" fill="#61818F"/>
<path d="M241.352 159.625H227.422V162.391H241.352V159.625Z" fill="#61818F"/>
<path d="M276.015 159.625H247.579V162.391H276.015V159.625Z" fill="#61818F"/>
<path d="M100.274 75.7676H61.6519V200.023H100.274V75.7676Z" fill="#61818F"/>
<path d="M126.212 106.834H87.5825V200.022H126.212V106.834Z" fill="#61818F"/>
<path d="M153.259 148.92H114.629V200.024H153.259V148.92Z" fill="#61818F"/>
<path d="M321.671 140.418H286.9V201.506H321.671V140.418Z" fill="#61818F"/>
<path d="M357.111 120.383H310.296V201.505H357.111V120.383Z" fill="#61818F"/>
<path d="M912.021 62.8711H865.206V197.147H912.021V62.8711Z" fill="#61818F"/>
<path d="M1043.39 159.02H996.572V196.569H1043.39V159.02Z" fill="#61818F"/>
<path d="M993.318 136.797H946.496V196.567H993.318V136.797Z" fill="#61818F"/>
<path d="M1092.87 106.297H1046.06V196.567H1092.87V106.297Z" fill="#61818F"/>
<path d="M1218.31 195.406H1148.56V79.6465L1218.31 72.0215V195.406Z" fill="#61818F"/>
<path d="M1206.98 80.9525V61.6984L1159.9 56.5547V80.9525H1206.98Z" fill="#61818F"/>
<path d="M1144.7 196.055H1097.88V119.73L1144.7 126.591V196.055Z" fill="#61818F"/>
<path d="M1088.74 101.941H1050.18V106.811H1088.74V101.941Z" fill="#61818F"/>
<path d="M943.25 116.318H915.267V196.565H943.25V116.318Z" fill="#61818F"/>
<path d="M438.027 148.826H362.46V201.506H438.027V148.826Z" fill="#61818F"/>
<path d="M569.768 162.924H513.595V199.031H569.768V162.924Z" fill="#61818F"/>
<path d="M541.678 142.643H513.595V178.749H541.678V142.643Z" fill="#61818F"/>
<path d="M591.171 145.945H574.671V197.361H591.171V145.945Z" fill="#61818F"/>
<path d="M608.016 163.375H597.11V197.36H608.016V163.375Z" fill="#61818F"/>
<path d="M656.667 154.953H614.423V197.362H656.667V154.953Z" fill="#61818F"/>
<path d="M695.793 152.852H659.525V197.358H695.793V152.852Z" fill="#61818F"/>
<path d="M693.777 150.414H661.547V153.196H693.777V150.414Z" fill="#61818F"/>
<path d="M691.913 148.861H663.412V151.321H691.913V148.861Z" fill="#61818F"/>
<path d="M756.113 141.01H700.335V197.071H756.113V141.01Z" fill="#61818F"/>
<path d="M860.973 162.684H805.786V196.418H860.973V162.684Z" fill="#61818F"/>
<path d="M855.66 159.42H811.091V163.086H855.66V159.42Z" fill="#61818F"/>
<path d="M851.535 155.709H815.209V159.378H851.535V155.709Z" fill="#61818F"/>
<path d="M758.467 138.469H697.981V141.879H758.467V138.469Z" fill="#61818F"/>
<path d="M756.998 139.156H699.457L728.224 111.092L756.998 139.156Z" fill="#61818F"/>
<path d="M803.525 175.504H760.533V198.813H803.525V175.504Z" fill="#61818F"/>
<path d="M1265.96 97.9222L1224.22 90.7578V97.9222V195.33H1265.96H1276.85V97.9222H1265.96Z" fill="#61818F"/>
<path d="M1510.62 46.2417L1468.88 35.2754V46.2417V195.328H1510.62H1521.51L1510.62 46.2417Z" fill="#61818F"/>
<path d="M1677.41 194.422H57.3901V224.294H1677.41V194.422Z" fill="#61818F"/>
<path d="M1384.65 136.068H1284.51V197.939H1384.65V136.068Z" fill="#61818F"/>
<path d="M1296.87 127.792C1296.87 120.09 1313.76 113.85 1334.58 113.85C1355.4 113.85 1372.27 120.09 1372.27 127.792H1296.87Z" fill="#61818F"/>
<path d="M1378.16 127.137H1290.98V136.724H1378.16V127.137Z" fill="#61818F"/>
<path d="M1461.82 197.288H1394.08V66.8884H1420.17L1461.82 58.9492V197.288Z" fill="#61818F"/>
<path d="M1594.35 107.527H1527.2V196.847H1594.35V107.527Z" fill="#61818F"/>
<path d="M1668.18 159.092H1601.02V196.852H1668.18V159.092Z" fill="#61818F"/>
<path d="M1655.23 152.41H1613.99V190.173H1655.23V152.41Z" fill="#61818F"/>
<path d="M1609.28 144.277H1601.02V182.038H1609.28V144.277Z" fill="#61818F"/>
<path d="M1668.19 144.277H1659.93V182.038H1668.19V144.277Z" fill="#61818F"/>
<path d="M1587.68 104.336H1533.87V108.111H1587.68V104.336Z" fill="#61818F"/>
<path d="M1582.54 100.742H1539.03V104.517H1582.54V100.742Z" fill="#61818F"/>
<path d="M281.99 227.858H218.618V161.784C221.793 160.996 242.727 145.762 281.99 145.762V227.858Z" fill="#0F2129"/>
<path d="M506.785 227.86H455.888V143.087L468.306 130.186L506.785 143.087V227.86Z" fill="#0F2129"/>
<path d="M144.699 135.348L146.182 141.964V227.859H216.134V141.964L217.632 135.348H144.699Z" fill="#0F2129"/>
<path d="M204.234 119.76H158.082V136.884H204.234V119.76Z" fill="#C6D5DB"/>
<path d="M575.124 227.86H504.963V159.852L575.124 157.965V227.86Z" fill="#0F2129"/>
<path d="M564.527 160.54V153.609L510.254 155.494V160.54H564.527Z" fill="#0F2129"/>
<path d="M848.188 140.318V227.859H773.059V131.828H797.327L819.874 140.318H848.188Z" fill="#0F2129"/>
<path d="M343.109 171.881L317.402 167.342H289.765V227.86H375.44V171.881H343.109Z" fill="#0F2129"/>
<path d="M447.674 136.229V227.859H399.779V112.656H421.585L447.674 136.229Z" fill="#C6D5DB"/>
<path d="M408.288 126.305V227.86H385.094V146.885L399.779 133.847L408.288 126.305Z" fill="#0F2129"/>
<path d="M138.882 164.075V227.86H76.3019V151.006H102.312L121.878 158L123.196 158.458L133.606 162.182L134.837 162.64L138.882 164.075Z" fill="#0F2129"/>
<path d="M659.877 177.586H583.799V227.859H659.877V177.586Z" fill="#0F2129"/>
<path d="M656.314 172.217H587.362V177.962H656.314V172.217Z" fill="#0F2129"/>
<path d="M626.697 174.134H616.986V151.283L626.697 152.495V174.134Z" fill="#0F2129"/>
<path d="M78.7639 118.715H76.3091V154.878H78.7639V118.715Z" fill="#0F2129"/>
<path d="M77.8712 138.742C77.8712 138.742 86.7547 146.633 98.8993 151.564H78.4543L77.8712 138.742Z" fill="#0F2129"/>
<path d="M839.39 141.482L840.722 84.9336H841.615L842.947 141.482H839.39Z" fill="#0F2129"/>
<path d="M620.067 152.661L621.629 130.633H622.054L623.616 152.661H620.067Z" fill="#0F2129"/>
<path d="M200.124 120.22H162.192V115.619L200.124 113.867V120.22Z" fill="#0F2129"/>
<path d="M298.317 168.66C300.34 157.697 300.995 144.033 301.463 132.99C301.607 129.026 301.636 125.064 301.607 121.1C301.6 120.983 302.14 120.967 302.133 121.1C301.982 132.077 302.795 145.737 303.774 156.77C304.221 160.734 304.681 164.696 305.423 168.66C305.56 169.387 304.077 170.015 302.111 170.066C299.973 170.127 298.145 169.451 298.31 168.66H298.317Z" fill="#0F2129"/>
<path d="M123.196 158.458V227.772H121.878V158L123.196 158.458Z" fill="#94A7B0"/>
<path d="M138.89 165.359H122.706V165.817H138.89V165.359Z" fill="#94A7B0"/>
<path d="M134.837 162.642H122.706V162.184H133.606L134.837 162.642Z" fill="#94A7B0"/>
<path d="M138.89 168.506H122.706V168.996H138.89V168.506Z" fill="#94A7B0"/>
<path d="M138.89 171.68H122.706V172.167H138.89V171.68Z" fill="#94A7B0"/>
<path d="M138.89 174.855H122.706V175.34H138.89V174.855Z" fill="#94A7B0"/>
<path d="M138.89 178.033H122.706V178.488H138.89V178.033Z" fill="#94A7B0"/>
<path d="M138.89 181.207H122.706V181.662H138.89V181.207Z" fill="#94A7B0"/>
<path d="M138.89 184.379H122.706V184.837H138.89V184.379Z" fill="#94A7B0"/>
<path d="M138.89 187.557H122.706V188.015H138.89V187.557Z" fill="#94A7B0"/>
<path d="M138.89 190.732H122.706V191.19H138.89V190.732Z" fill="#94A7B0"/>
<path d="M138.89 193.879H122.706V194.369H138.89V193.879Z" fill="#94A7B0"/>
<path d="M138.89 197.051H122.706V197.541H138.89V197.051Z" fill="#94A7B0"/>
<path d="M138.89 200.229H122.706V200.718H138.89V200.229Z" fill="#94A7B0"/>
<path d="M138.89 203.404H122.706V203.894H138.89V203.404Z" fill="#94A7B0"/>
<path d="M138.89 206.582H122.706V207.04H138.89V206.582Z" fill="#94A7B0"/>
<path d="M138.89 209.758H122.706V210.216H138.89V209.758Z" fill="#94A7B0"/>
<path d="M138.89 212.93H122.706V213.385H138.89V212.93Z" fill="#94A7B0"/>
<path d="M138.89 216.107H122.706V216.563H138.89V216.107Z" fill="#94A7B0"/>
<path d="M138.89 219.254H122.706V219.741H138.89V219.254Z" fill="#94A7B0"/>
<path d="M193.99 138.109H149.53V138.607H193.99V138.109Z" fill="#94A7B0"/>
<path d="M279.37 162.191H221.238V162.45H279.37V162.191Z" fill="#94A7B0"/>
<path d="M439.33 148.961H385.094V149.206H439.33V148.961Z" fill="#94A7B0"/>
<path d="M447.681 154.059H392.94V154.304H447.681V154.059Z" fill="#94A7B0"/>
<path d="M418.36 164.473H385.094V164.747H418.36V164.473Z" fill="#94A7B0"/>
<path d="M447.674 174.518H394.668V174.792H447.674V174.518Z" fill="#94A7B0"/>
<path d="M428.028 187.893H385.094V188.138H428.028V187.893Z" fill="#94A7B0"/>
<path d="M447.674 198.182H394.25V198.456H447.674V198.182Z" fill="#94A7B0"/>
<path d="M435.205 208.625H385.094V208.899H435.205V208.625Z" fill="#94A7B0"/>
<path d="M447.674 218.029H394.999V218.304H447.674V218.029Z" fill="#94A7B0"/>
<path d="M279.37 167.916H221.238V168.174H279.37V167.916Z" fill="#94A7B0"/>
<path d="M279.37 173.641H221.238V173.899H279.37V173.641Z" fill="#94A7B0"/>
<path d="M279.37 179.369H221.238V179.627H279.37V179.369Z" fill="#94A7B0"/>
<path d="M279.37 185.092H221.238V185.35H279.37V185.092Z" fill="#94A7B0"/>
<path d="M279.37 190.814H221.238V191.073H279.37V190.814Z" fill="#94A7B0"/>
<path d="M279.37 196.543H221.238V196.801H279.37V196.543Z" fill="#94A7B0"/>
<path d="M279.37 202.266H221.238V202.524H279.37V202.266Z" fill="#94A7B0"/>
<path d="M279.37 207.992H221.238V208.25H279.37V207.992Z" fill="#94A7B0"/>
<path d="M279.37 213.719H221.238V213.977H279.37V213.719Z" fill="#94A7B0"/>
<path d="M279.37 219.441H221.238V219.7H279.37V219.441Z" fill="#94A7B0"/>
<path d="M211.534 143.523H167.073V144.021H211.534V143.523Z" fill="#94A7B0"/>
<path d="M193.99 148.941H149.53V149.439H193.99V148.941Z" fill="#94A7B0"/>
<path d="M211.534 154.355H167.073V154.853H211.534V154.355Z" fill="#94A7B0"/>
<path d="M193.99 159.771H149.53V160.269H193.99V159.771Z" fill="#94A7B0"/>
<path d="M211.534 165.191H167.073V165.689H211.534V165.191Z" fill="#94A7B0"/>
<path d="M193.99 170.605H149.53V171.103H193.99V170.605Z" fill="#94A7B0"/>
<path d="M211.534 176.023H167.073V176.521H211.534V176.023Z" fill="#94A7B0"/>
<path d="M193.99 181.439H149.53V181.937H193.99V181.439Z" fill="#94A7B0"/>
<path d="M211.534 186.852H167.073V187.349H211.534V186.852Z" fill="#94A7B0"/>
<path d="M193.99 192.27H149.53V192.767H193.99V192.27Z" fill="#94A7B0"/>
<path d="M211.534 197.686H167.073V198.183H211.534V197.686Z" fill="#94A7B0"/>
<path d="M193.99 203.104H149.53V203.601H193.99V203.104Z" fill="#94A7B0"/>
<path d="M211.534 208.518H167.073V209.015H211.534V208.518Z" fill="#94A7B0"/>
<path d="M193.99 213.936H149.53V214.433H193.99V213.936Z" fill="#94A7B0"/>
<path d="M665.989 223.638H762.117V163.223L764.183 156.607H663.952L665.989 163.223V223.638Z" fill="#0F2129"/>
<path d="M745.761 141.02H682.338V158.144H745.761V141.02Z" fill="#0F2129"/>
<path d="M740.117 141.479H687.989V136.879L740.117 135.127V141.479Z" fill="#0F2129"/>
<path d="M731.68 159.367H670.582V159.865H731.68V159.367Z" fill="#94A7B0"/>
<path d="M755.796 164.783H694.699V165.281H755.796V164.783Z" fill="#94A7B0"/>
<path d="M731.68 170.201H670.582V170.699H731.68V170.201Z" fill="#94A7B0"/>
<path d="M755.796 175.615H694.699V176.113H755.796V175.615Z" fill="#94A7B0"/>
<path d="M731.68 181.031H670.582V181.529H731.68V181.031Z" fill="#94A7B0"/>
<path d="M755.796 186.449H694.699V186.947H755.796V186.449Z" fill="#94A7B0"/>
<path d="M731.68 191.865H670.582V192.363H731.68V191.865Z" fill="#94A7B0"/>
<path d="M755.796 197.279H694.699V197.777H755.796V197.279Z" fill="#94A7B0"/>
<path d="M731.68 202.699H670.582V203.197H731.68V202.699Z" fill="#94A7B0"/>
<path d="M755.796 208.111H694.699V208.609H755.796V208.111Z" fill="#94A7B0"/>
<path d="M731.68 213.527H670.582V214.025H731.68V213.527Z" fill="#94A7B0"/>
<path d="M755.796 218.947H694.699V219.445H755.796V218.947Z" fill="#94A7B0"/>
<path d="M211.534 219.352H167.073V219.849H211.534V219.352Z" fill="#94A7B0"/>
<path d="M333.232 181.561H292.645V182.237H333.232V181.561Z" fill="#94A7B0"/>
<path d="M371.077 189.959H330.49V190.635H371.077V189.959Z" fill="#94A7B0"/>
<path d="M340.46 198.104H299.872V198.78H340.46V198.104Z" fill="#94A7B0"/>
<path d="M368.673 216.17H328.085V216.846H368.673V216.17Z" fill="#94A7B0"/>
<path d="M503.178 151.264H459.833V151.639H503.178V151.264Z" fill="#94A7B0"/>
<path d="M503.178 158.131H459.833V158.506H503.178V158.131Z" fill="#94A7B0"/>
<path d="M503.178 165.004H459.833V165.379H503.178V165.004Z" fill="#94A7B0"/>
<path d="M503.178 171.873H459.833V172.248H503.178V171.873Z" fill="#94A7B0"/>
<path d="M503.178 178.742H459.833V179.118H503.178V178.742Z" fill="#94A7B0"/>
<path d="M503.178 185.613H459.833V185.989H503.178V185.613Z" fill="#94A7B0"/>
<path d="M503.178 192.48H459.833V192.856H503.178V192.48Z" fill="#94A7B0"/>
<path d="M503.178 199.354H459.833V199.729H503.178V199.354Z" fill="#94A7B0"/>
<path d="M503.178 206.223H459.833V206.598H503.178V206.223Z" fill="#94A7B0"/>
<path d="M503.178 213.094H459.833V213.469H503.178V213.094Z" fill="#94A7B0"/>
<path d="M503.178 219.963H459.833V220.338H503.178V219.963Z" fill="#94A7B0"/>
<path d="M633.911 181.287H590.566V181.662H633.911V181.287Z" fill="#94A7B0"/>
<path d="M651.109 198.209H607.764V198.584H651.109V198.209Z" fill="#94A7B0"/>
<path d="M631.499 213.477H588.154V213.852H631.499V213.477Z" fill="#94A7B0"/>
<path d="M807.283 143.516H776.32V143.886H807.283V143.516Z" fill="#94A7B0"/>
<path d="M807.283 146.443H776.32V146.813H807.283V146.443Z" fill="#94A7B0"/>
<path d="M807.283 149.365H776.32V149.735H807.283V149.365Z" fill="#94A7B0"/>
<path d="M807.283 152.291H776.32V152.661H807.283V152.291Z" fill="#94A7B0"/>
<path d="M807.283 155.219H776.32V155.589H807.283V155.219Z" fill="#94A7B0"/>
<path d="M807.283 158.141H776.32V158.511H807.283V158.141Z" fill="#94A7B0"/>
<path d="M807.283 161.068H776.32V161.438H807.283V161.068Z" fill="#94A7B0"/>
<path d="M807.283 163.992H776.32V164.362H807.283V163.992Z" fill="#94A7B0"/>
<path d="M807.283 166.92H776.32V167.29H807.283V166.92Z" fill="#94A7B0"/>
<path d="M807.283 169.84H776.32V170.21H807.283V169.84Z" fill="#94A7B0"/>
<path d="M807.283 172.768H776.32V173.138H807.283V172.768Z" fill="#94A7B0"/>
<path d="M807.283 175.693H776.32V176.063H807.283V175.693Z" fill="#94A7B0"/>
<path d="M807.283 178.617H776.32V178.987H807.283V178.617Z" fill="#94A7B0"/>
<path d="M807.283 181.543H776.32V181.913H807.283V181.543Z" fill="#94A7B0"/>
<path d="M807.283 184.469H776.32V184.839H807.283V184.469Z" fill="#94A7B0"/>
<path d="M807.283 187.395H776.32V187.765H807.283V187.395Z" fill="#94A7B0"/>
<path d="M807.283 190.318H776.32V190.688H807.283V190.318Z" fill="#94A7B0"/>
<path d="M807.283 193.242H776.32V193.612H807.283V193.242Z" fill="#94A7B0"/>
<path d="M807.283 196.168H776.32V196.538H807.283V196.168Z" fill="#94A7B0"/>
<path d="M807.283 199.094H776.32V199.464H807.283V199.094Z" fill="#94A7B0"/>
<path d="M807.283 202.018H776.32V202.388H807.283V202.018Z" fill="#94A7B0"/>
<path d="M807.283 204.945H776.32V205.315H807.283V204.945Z" fill="#94A7B0"/>
<path d="M807.283 207.871H776.32V208.241H807.283V207.871Z" fill="#94A7B0"/>
<path d="M807.283 210.795H776.32V211.165H807.283V210.795Z" fill="#94A7B0"/>
<path d="M807.283 213.721H776.32V214.091H807.283V213.721Z" fill="#94A7B0"/>
<path d="M807.283 216.645H776.32V217.015H807.283V216.645Z" fill="#94A7B0"/>
<path d="M807.283 219.572H776.32V219.942H807.283V219.572Z" fill="#94A7B0"/>
<path d="M823.502 140.318H821.688V223.493H823.502V140.318Z" fill="#94A7B0"/>
<path d="M834.149 140.318H832.335V223.493H834.149V140.318Z" fill="#94A7B0"/>
<path d="M844.804 140.318H842.99V223.493H844.804V140.318Z" fill="#94A7B0"/>
<path d="M1504.23 110.643H1493V123.6H1504.23V110.643Z" fill="#0F2129"/>
<path d="M1527.72 115.688H1502.46V123.603H1527.72V115.688Z" fill="#0F2129"/>
<path d="M1538.77 113.424H1526.41V123.602H1538.77V113.424Z" fill="#0F2129"/>
<path d="M1548.49 117.256H1536.13V123.6H1548.49V117.256Z" fill="#0F2129"/>
<path d="M1078.27 221.975V116.537C1038.98 116.537 1018.07 138.768 1014.87 139.915V221.977H1078.27V221.975Z" fill="#0F2129"/>
<path d="M1672.99 221.976V153.418L1585.37 155.556V221.976H1672.99Z" fill="#0F2129"/>
<path d="M1629.21 221.975V162.783L1553.11 164.644V221.975H1629.21Z" fill="#0F2129"/>
<path d="M1469.98 220.96V147.556C1469.98 146.427 1468.24 145.237 1465.27 144.106C1464.69 143.861 1464.04 143.648 1463.29 143.403C1458.92 141.968 1452.73 140.565 1446.36 139.375V110.304C1446.36 103.223 1416.06 95.5576 1401.28 93.2361C1400.54 93.1136 1399.88 93.0204 1399.3 92.9326C1397.23 92.6583 1395.67 92.5039 1394.59 92.5039V220.963H1469.98V220.96Z" fill="#0F2129"/>
<path d="M1287.76 221.974V153.453L1172.9 140.373V221.974H1287.76Z" fill="#0F2129"/>
<path d="M1270.59 153.526V143.67L1190.07 134.498V153.526H1270.59Z" fill="#0F2129"/>
<path d="M1385.72 221.976C1384.22 207.636 1372.53 127.302 1299.78 123.609V221.976H1385.72Z" fill="#0F2129"/>
<path d="M1556.59 122.824H1484.92V221.968H1556.59V122.824Z" fill="#0F2129"/>
<path d="M880.885 170.066H845.459V221.974H880.885V170.066Z" fill="#0F2129"/>
<path d="M855.761 157.721H845.459V171.017H855.761V157.721Z" fill="#0F2129"/>
<path d="M873.261 163.133H859.144V172.547H873.261V163.133Z" fill="#0F2129"/>
<path d="M925.699 146.561H877.768V221.977H925.699V146.561Z" fill="#0F2129"/>
<path d="M1002.82 182.018H934.035V221.977H1002.82V182.018Z" fill="#0F2129"/>
<path d="M997.595 172.57H939.247V182.687H997.595V172.57Z" fill="#0F2129"/>
<path d="M992.908 168.625H943.941V172.858H992.908V168.625Z" fill="#0F2129"/>
<path d="M990.561 165.443H946.281V169.684H990.561V165.443Z" fill="#0F2129"/>
<path d="M1158.07 164.674H1069.5V221.976H1158.07V164.674Z" fill="#0F2129"/>
<path d="M1138.46 149.646H1089.09V183.557H1138.46V149.646Z" fill="#0F2129"/>
<path d="M1624.23 156.588L1626.37 105.308C1626.37 104.986 1627.8 104.96 1627.8 105.308L1629.95 156.588C1629.99 157.978 1624.19 158.004 1624.23 156.588Z" fill="#0F2129"/>
<path d="M1227.47 146.473L1229.62 110.717C1229.62 110.393 1231.05 110.374 1231.05 110.717L1233.19 146.473C1233.26 147.876 1227.41 147.895 1227.47 146.473Z" fill="#0F2129"/>
<path d="M1234.45 110.719C1234.45 111.563 1232.6 112.244 1230.34 112.244C1228.07 112.244 1226.19 111.56 1226.19 110.719C1226.19 109.878 1228.05 109.193 1230.34 109.193C1232.63 109.193 1234.45 109.875 1234.45 110.719Z" fill="#0F2129"/>
<path d="M1631.22 105.309C1631.22 106.15 1629.36 106.834 1627.09 106.834C1624.82 106.834 1622.97 106.147 1622.97 105.309C1622.97 104.47 1624.81 103.783 1627.09 103.783C1629.37 103.783 1631.22 104.465 1631.22 105.309Z" fill="#0F2129"/>
<path d="M887.594 149.295H883.973L885.024 105.311H886.565L887.594 149.295Z" fill="#0F2129"/>
<path d="M922.689 134.357H894.066V147.06H922.689V134.357Z" fill="#0F2129"/>
<path d="M921.746 149.207H880.719V149.588H921.746V149.207Z" fill="#94A7B0"/>
<path d="M921.746 153.592H880.719V153.973H921.746V153.592Z" fill="#94A7B0"/>
<path d="M921.746 157.982H880.719V158.363H921.746V157.982Z" fill="#94A7B0"/>
<path d="M921.746 162.375H880.719V162.756H921.746V162.375Z" fill="#94A7B0"/>
<path d="M921.746 166.762H880.719V167.142H921.746V166.762Z" fill="#94A7B0"/>
<path d="M921.746 171.152H880.719V171.533H921.746V171.152Z" fill="#94A7B0"/>
<path d="M921.746 175.541H880.719V175.922H921.746V175.541Z" fill="#94A7B0"/>
<path d="M921.746 179.93H880.719V180.31H921.746V179.93Z" fill="#94A7B0"/>
<path d="M921.746 184.32H880.719V184.701H921.746V184.32Z" fill="#94A7B0"/>
<path d="M921.746 188.711H880.719V189.092H921.746V188.711Z" fill="#94A7B0"/>
<path d="M921.746 193.096H880.719V193.476H921.746V193.096Z" fill="#94A7B0"/>
<path d="M921.746 197.488H880.719V197.869H921.746V197.488Z" fill="#94A7B0"/>
<path d="M921.746 201.875H880.719V202.256H921.746V201.875Z" fill="#94A7B0"/>
<path d="M921.746 206.266H880.719V206.646H921.746V206.266Z" fill="#94A7B0"/>
<path d="M921.746 210.654H880.719V211.035H921.746V210.654Z" fill="#94A7B0"/>
<path d="M921.746 215.043H880.719V215.424H921.746V215.043Z" fill="#94A7B0"/>
<path d="M953.998 184.416H938.001V184.988H953.998V184.416Z" fill="#94A7B0"/>
<path d="M999.409 187.514H974.637V188.086H999.409V187.514Z" fill="#94A7B0"/>
<path d="M953.998 190.613H938.001V191.186H953.998V190.613Z" fill="#94A7B0"/>
<path d="M997.083 199.922H981.087V200.494H997.083V199.922Z" fill="#94A7B0"/>
<path d="M957.863 203.023H941.867V203.596H957.863V203.023Z" fill="#94A7B0"/>
<path d="M989.604 206.123H973.608V206.695H989.604V206.123Z" fill="#94A7B0"/>
<path d="M958.382 209.223H942.386V209.795H958.382V209.223Z" fill="#94A7B0"/>
<path d="M989.856 212.326H973.859V212.899H989.856V212.326Z" fill="#94A7B0"/>
<path d="M973.859 215.428H957.863V216H973.859V215.428Z" fill="#94A7B0"/>
<path d="M999.409 193.717H974.637V194.289H999.409V193.717Z" fill="#94A7B0"/>
<path d="M974.896 196.818H950.125V197.391H974.896V196.818Z" fill="#94A7B0"/>
<path d="M1072.68 141.381H1020.47V141.953H1072.68V141.381Z" fill="#94A7B0"/>
<path d="M1072.68 149.875H1020.47V150.447H1072.68V149.875Z" fill="#94A7B0"/>
<path d="M1072.68 158.365H1020.47V158.938H1072.68V158.365Z" fill="#94A7B0"/>
<path d="M1072.68 166.857H1020.47V167.43H1072.68V166.857Z" fill="#94A7B0"/>
<path d="M1072.68 175.35H1020.47V175.922H1072.68V175.35Z" fill="#94A7B0"/>
<path d="M1072.68 183.844H1020.47V184.416H1072.68V183.844Z" fill="#94A7B0"/>
<path d="M1072.68 192.334H1020.47V192.906H1072.68V192.334Z" fill="#94A7B0"/>
<path d="M1072.68 200.826H1020.47V201.399H1072.68V200.826Z" fill="#94A7B0"/>
<path d="M1072.68 209.318H1020.47V209.891H1072.68V209.318Z" fill="#94A7B0"/>
<path d="M1136.15 167.162H1084.55V167.798H1136.15V167.162Z" fill="#94A7B0"/>
<path d="M1154.03 172.42H1102.43V173.056H1154.03V172.42Z" fill="#94A7B0"/>
<path d="M1136.15 177.678H1084.55V178.314H1136.15V177.678Z" fill="#94A7B0"/>
<path d="M1154.03 182.928H1102.43V183.564H1154.03V182.928Z" fill="#94A7B0"/>
<path d="M1136.15 188.182H1084.55V188.821H1136.15V188.182Z" fill="#94A7B0"/>
<path d="M1154.03 193.438H1102.43V194.076H1154.03V193.438Z" fill="#94A7B0"/>
<path d="M1136.15 198.695H1084.55V199.332H1136.15V198.695Z" fill="#94A7B0"/>
<path d="M1154.03 203.947H1102.43V204.584H1154.03V203.947Z" fill="#94A7B0"/>
<path d="M1136.15 209.203H1084.55V209.839H1136.15V209.203Z" fill="#94A7B0"/>
<path d="M1154.03 214.459H1102.43V215.095H1154.03V214.459Z" fill="#94A7B0"/>
<path d="M1201.17 149.969H1179.5V150.541H1201.17V149.969Z" fill="#94A7B0"/>
<path d="M1332.76 135.928H1305.75V136.391H1332.76V135.928Z" fill="#94A7B0"/>
<path d="M1332.76 140.912H1305.75V141.375H1332.76V140.912Z" fill="#94A7B0"/>
<path d="M1332.76 145.9H1305.75V146.358H1332.76V145.9Z" fill="#94A7B0"/>
<path d="M1332.76 150.879H1305.75V151.337H1332.76V150.879Z" fill="#94A7B0"/>
<path d="M1332.76 155.863H1305.75V156.327H1332.76V155.863Z" fill="#94A7B0"/>
<path d="M1332.76 160.844H1305.75V161.304H1332.76V160.844Z" fill="#94A7B0"/>
<path d="M1332.76 165.832H1305.75V166.29H1332.76V165.832Z" fill="#94A7B0"/>
<path d="M1332.76 170.814H1305.75V171.272H1332.76V170.814Z" fill="#94A7B0"/>
<path d="M1332.76 175.797H1305.75V176.257H1332.76V175.797Z" fill="#94A7B0"/>
<path d="M1332.76 180.779H1305.75V181.243H1332.76V180.779Z" fill="#94A7B0"/>
<path d="M1332.76 185.766H1305.75V186.224H1332.76V185.766Z" fill="#94A7B0"/>
<path d="M1332.76 190.75H1305.75V191.213H1332.76V190.75Z" fill="#94A7B0"/>
<path d="M1332.76 195.729H1305.75V196.189H1332.76V195.729Z" fill="#94A7B0"/>
<path d="M1332.76 200.715H1305.75V201.173H1332.76V200.715Z" fill="#94A7B0"/>
<path d="M1332.76 205.697H1305.75V206.155H1332.76V205.697Z" fill="#94A7B0"/>
<path d="M1332.76 210.682H1305.75V211.142H1332.76V210.682Z" fill="#94A7B0"/>
<path d="M1332.76 215.664H1305.75V216.127H1332.76V215.664Z" fill="#94A7B0"/>
<path d="M1241.94 159.605H1220.27V160.178H1241.94V159.605Z" fill="#94A7B0"/>
<path d="M1274.96 172.965H1253.29V173.537H1274.96V172.965Z" fill="#94A7B0"/>
<path d="M1215.62 176.781H1193.95V177.354H1215.62V176.781Z" fill="#94A7B0"/>
<path d="M1271.87 187.277H1250.19V187.85H1271.87V187.277Z" fill="#94A7B0"/>
<path d="M1220.27 194.719H1198.59V195.291H1220.27V194.719Z" fill="#94A7B0"/>
<path d="M1255.87 208.078H1234.2V208.651H1255.87V208.078Z" fill="#94A7B0"/>
<path d="M1216.65 212.85H1194.98V213.422H1216.65V212.85Z" fill="#94A7B0"/>
<path d="M1401.28 220.957V93.2332C1400.54 93.1107 1399.88 93.0175 1399.3 92.9297V220.957H1401.28Z" fill="#94A7B0"/>
<path d="M1465.27 220.956V144.101C1464.69 143.856 1464.04 143.643 1463.29 143.398V220.956H1465.27Z" fill="#94A7B0"/>
<path d="M1495.08 122.824H1493.26V221.968H1495.08V122.824Z" fill="#94A7B0"/>
<path d="M1505.65 122.824H1503.82V221.968H1505.65V122.824Z" fill="#94A7B0"/>
<path d="M1516.21 122.824H1514.39V221.968H1516.21V122.824Z" fill="#94A7B0"/>
<path d="M1526.78 122.824H1524.97V221.968H1526.78V122.824Z" fill="#94A7B0"/>
<path d="M1537.35 122.824H1535.53V221.968H1537.35V122.824Z" fill="#94A7B0"/>
<path d="M1547.91 122.824H1546.1V221.968H1547.91V122.824Z" fill="#94A7B0"/>
<path d="M1725.28 230H2.72133C-0.309426 230 -1.06532 228.445 1.77107 228.054L54.0426 220.836H1673.96L1726.23 228.054C1729.07 228.445 1728.31 230 1725.28 230Z" fill="#0F2129"/>
</g>
</svg>
