<svg width="244" height="1008" viewBox="0 0 244 1008" fill="none" xmlns="http://www.w3.org/2000/svg">
<path d="M130.387 1007.5H128.001V731.774C125.568 723.807 120.153 715.625 115.192 715.625C110.23 715.625 105.555 724.713 103.956 733.253L103.766 734.303L102.716 734.231C92.3872 733.539 82.2492 731.416 72.5405 727.91L71.5386 727.552L71.7772 726.526C73.7094 718.368 73.1369 708.445 68.7954 705.964C64.3108 703.364 55.9141 709.017 50.2607 715.601L49.569 716.412L48.6864 715.816C40.1227 710.067 32.3939 703.125 25.7386 695.254L25.0469 694.443L25.7863 693.679C31.5352 687.596 35.9721 678.723 33.4912 674.405C31.0104 670.087 20.9201 670.541 12.595 673.499L11.5931 673.856L11.1161 672.902C6.5599 663.623 3.31573 653.771 1.52667 643.609L1.33583 642.56L2.36154 642.25C10.3765 639.84 18.6778 634.378 18.6778 629.392C18.6778 624.407 9.70865 619.779 1.04959 618.181L0 617.99L0.0715596 616.94C0.76333 606.611 2.88634 596.45 6.3929 586.765L6.75073 585.763L7.77645 586.001C15.9346 587.934 25.8579 587.337 28.3388 583.02C30.915 578.535 25.2854 570.115 18.6778 564.485L17.8667 563.793L18.4631 562.911C24.212 554.347 31.1297 546.642 39.0493 539.987L39.8603 539.295L40.6236 540.034C46.7303 545.759 55.6041 550.22 59.8978 547.739C64.2154 545.259 63.7622 535.168 60.8042 526.843L60.4465 525.841L61.4006 525.364C70.6799 520.808 80.5317 517.564 90.6936 515.775L91.7431 515.584L92.0532 516.61C94.4625 524.625 99.9251 532.926 104.911 532.926C109.896 532.926 114.524 523.957 116.146 515.298L116.337 514.248L117.386 514.32C127.691 515.011 137.853 517.134 147.562 520.641L148.564 520.999L148.325 522.025C146.393 530.183 146.989 540.106 151.307 542.611C155.696 545.139 163.926 539.748 169.555 533.284L169.746 511.386C169.746 507.45 169.794 499.292 166.908 497.622C163.663 495.737 158.249 500.079 154.575 504.373L153.883 505.184L153.001 504.587C146.703 500.341 141.026 495.26 136.136 489.464L135.444 488.653L136.183 487.889C140.215 483.619 143.507 477.131 141.765 474.149C140.024 471.12 132.82 471.501 126.833 473.624L125.831 473.982L125.354 473.028C121.99 466.206 119.629 458.954 118.293 451.488L118.102 450.438L119.128 450.128C124.781 448.434 130.864 444.475 130.864 441.016C130.864 437.533 124.423 434.265 118.221 433.096L117.172 432.905L117.243 431.856C117.744 424.246 119.319 416.78 121.895 409.671L122.253 408.67L123.278 408.908C129.003 410.268 136.279 409.886 137.996 406.881C139.738 403.875 135.802 397.816 131.007 393.689L130.196 392.997L130.792 392.115C135.015 385.817 140.119 380.14 145.94 375.25L146.751 374.558L147.514 375.298C151.808 379.329 158.272 382.621 161.254 380.879C164.284 379.138 163.902 371.91 161.779 365.947L161.421 364.945L162.375 364.468C169.198 361.104 176.449 358.743 183.939 357.431L184.989 357.24L185.299 358.266C186.993 363.919 190.953 370.002 194.411 370.002C197.87 370.002 201.162 363.561 202.331 357.359L202.522 356.31L203.571 356.381C211.157 356.882 218.623 358.457 225.756 361.033L226.758 361.391L226.519 362.416C225.159 368.141 225.541 375.417 228.547 377.134C231.481 378.828 237.349 375.107 241.452 370.455V0H243.837V371.29L243.551 371.624C240.211 375.536 232.53 382.12 227.354 379.138C222.965 376.61 222.893 368.38 223.967 362.846C217.669 360.651 211.109 359.291 204.454 358.767C203.285 363.991 199.993 372.316 194.411 372.316C189.331 372.316 185.18 365.231 183.343 359.912C176.783 361.152 170.414 363.251 164.379 366.114C165.977 371.219 167.313 380.092 162.471 382.883C158.082 385.412 150.949 381.38 146.679 377.683C141.622 382.048 137.161 387.034 133.369 392.52C137.305 396.146 142.863 403.183 140.096 408.002C137.567 412.391 129.337 412.462 123.803 411.389C121.609 417.686 120.249 424.246 119.724 430.902C124.948 432.071 133.273 435.362 133.273 440.944C133.273 446.025 126.189 450.2 120.869 452.013C122.109 458.572 124.209 464.942 127.071 470.977C132.176 469.378 141.05 468.066 143.841 472.885C146.369 477.274 142.338 484.43 138.64 488.676C143.006 493.734 147.991 498.194 153.478 501.987C156.269 498.91 162.948 492.541 168.1 495.523C172.203 497.884 172.156 506.329 172.132 511.362L171.941 534.143L171.655 534.476C167.17 539.701 156.937 548.574 150.114 544.638C144.198 541.227 144.246 529.92 145.773 522.502C136.899 519.401 127.667 517.468 118.293 516.753C116.79 523.718 112.401 535.288 104.934 535.288C98.1122 535.288 92.5065 525.483 90.121 518.28C80.8656 519.997 71.8965 522.931 63.4282 527.01C65.6228 533.785 67.6266 546.022 61.1382 549.767C55.2463 553.178 45.4899 547.501 39.8126 542.468C32.6802 548.598 26.3827 555.611 21.0632 563.364C26.335 568.135 34.1592 577.748 30.4141 584.212C27.0029 590.128 15.696 590.081 8.2774 588.554C5.17636 597.404 3.22031 606.635 2.52854 616.034C9.49395 617.537 21.0632 621.926 21.0632 629.392C21.0632 636.214 11.2592 641.82 4.0552 644.206C5.7727 653.437 8.70677 662.406 12.7858 670.898C19.5604 668.704 31.7976 666.724 35.5189 673.212C38.93 679.104 33.2527 688.885 28.2195 694.538C34.35 701.67 41.3631 707.968 49.1157 713.287C53.8866 708.016 63.4998 700.191 69.9643 703.936C75.8801 707.348 75.8324 718.655 74.3057 726.073C83.1556 729.198 92.411 731.13 101.786 731.846C103.289 724.88 107.678 713.311 115.144 713.311C122.61 713.311 128.121 724.093 130.291 731.345L130.339 731.679V1007.58L130.387 1007.5Z" fill="white"/>
<path d="M198.229 480.613C173.039 480.613 152.548 460.123 152.548 434.933C152.548 409.743 173.039 389.252 198.229 389.252C223.419 389.252 243.909 409.743 243.909 434.933C243.909 460.123 223.419 480.613 198.229 480.613ZM198.229 391.637C174.351 391.637 154.933 411.055 154.933 434.933C154.933 458.811 174.351 478.228 198.229 478.228C222.107 478.228 241.524 458.811 241.524 434.933C241.524 411.055 222.107 391.637 198.229 391.637Z" fill="white"/>
<path d="M110.111 693.773C71.777 693.773 40.5757 662.572 40.5757 624.238C40.5757 585.904 71.777 554.703 110.111 554.703C148.444 554.703 179.645 585.904 179.645 624.238C179.645 662.572 148.444 693.773 110.111 693.773ZM110.111 557.112C73.0889 557.112 42.9611 587.24 42.9611 624.262C42.9611 661.284 73.0889 691.411 110.111 691.411C147.132 691.411 177.26 661.284 177.26 624.262C177.26 587.24 147.132 557.112 110.111 557.112Z" fill="white"/>
</svg>
